# Blender v2.92.0 OBJ File: 'Arrow.blend'
# www.blender.org
mtllib Arrow.mtl
o Cube_Cube.001
v -0.008182 0.008186 0.964037
v -0.008182 0.008186 -0.030693
v -0.008182 -0.008186 0.964037
v -0.008182 -0.008186 -0.030693
v 0.008182 0.008186 0.964037
v 0.008182 0.008186 -0.030693
v 0.008182 -0.008186 0.964037
v 0.008182 -0.008186 -0.030693
vt 1.006363 0.494187
vt 0.006363 0.509576
vt 0.006363 0.494187
vt 1.006363 0.479352
vt 0.006363 0.486769
vt 0.006363 0.479352
vt 1.006363 0.509576
vt 0.006363 0.524966
vt 0.006363 0.509576
vt 1.006363 0.486769
vt 0.006363 0.486769
vt 0.021752 0.471934
vt 0.037142 0.479352
vt 0.021752 0.479352
vt 0.006363 0.471934
vt 0.021752 0.479352
vt 0.006363 0.479352
vt 1.006363 0.509576
vt 1.006363 0.486769
vt 1.006363 0.524965
vt 0.037142 0.471934
vt 0.021752 0.471934
vn -1.0000 0.0000 0.0000
vn 0.0000 -1.0000 -0.0000
vn 1.0000 0.0000 0.0000
vn 0.0000 1.0000 0.0000
vn 0.0000 0.0000 1.0000
vn 0.0000 0.0000 -1.0000
usemtl Material.001
s off
f 2/1/1 3/2/1 1/3/1
f 4/4/2 7/5/2 3/6/2
f 8/7/3 5/8/3 7/9/3
f 6/10/4 1/3/4 5/11/4
f 7/12/5 1/13/5 3/14/5
f 4/15/6 6/16/6 8/17/6
f 2/1/1 4/18/1 3/2/1
f 4/4/2 8/19/2 7/5/2
f 8/7/3 6/20/3 5/8/3
f 6/10/4 2/1/4 1/3/4
f 7/12/5 5/21/5 1/13/5
f 4/15/6 2/22/6 6/16/6
o Cone
v 0.000000 -0.041573 0.033041
v 0.036003 -0.020786 0.033041
v 0.036003 0.020787 0.033041
v -0.000000 0.041573 0.033041
v -0.036003 0.020787 0.033041
v -0.036003 -0.020786 0.033041
v 0.000000 0.000000 -0.112464
vt 0.250000 0.490000
vt 0.250000 0.250000
vt 0.457846 0.370000
vt 0.457846 0.130000
vt 0.250000 0.010000
vt 0.042154 0.130000
vt 0.957846 0.370000
vt 0.750000 0.010000
vt 0.542154 0.370000
vt 0.042154 0.370000
vt 0.750000 0.490000
vt 0.957846 0.130000
vt 0.542154 0.130000
vn 0.4854 -0.8407 -0.2402
vn 0.9707 0.0000 -0.2402
vn 0.4854 0.8407 -0.2402
vn -0.4854 0.8407 -0.2402
vn -0.0000 0.0000 1.0000
vn -0.9707 0.0000 -0.2402
vn -0.4854 -0.8407 -0.2402
usemtl Material
s off
f 9/23/7 15/24/7 10/25/7
f 10/25/8 15/24/8 11/26/8
f 11/26/9 15/24/9 12/27/9
f 12/27/10 15/24/10 13/28/10
f 10/29/11 12/30/11 14/31/11
f 13/28/12 15/24/12 14/32/12
f 14/32/13 15/24/13 9/23/13
f 14/31/11 9/33/11 10/29/11
f 10/29/11 11/34/11 12/30/11
f 12/30/11 13/35/11 14/31/11
o Cube.002
v 0.006028 -0.001910 0.814502
v 0.042723 -0.001910 0.905543
v 0.006028 -0.001910 0.962527
v 0.042723 -0.001910 0.962527
v 0.006028 0.001910 0.814502
v 0.042723 0.001910 0.905543
v 0.006028 0.001910 0.962527
v 0.042723 0.001910 0.962527
v -0.006028 -0.001910 0.814502
v -0.042723 -0.001910 0.905543
v -0.006028 -0.001910 0.962527
v -0.042723 -0.001910 0.962527
v -0.006028 0.001910 0.814502
v -0.042723 0.001910 0.905543
v -0.006028 0.001910 0.962527
v -0.042723 0.001910 0.962527
v -0.001909 -0.006028 0.814502
v -0.001909 -0.042723 0.905543
v -0.001909 -0.006028 0.962527
v -0.001909 -0.042723 0.962527
v 0.001910 -0.006028 0.814502
v 0.001910 -0.042723 0.905543
v 0.001910 -0.006028 0.962527
v 0.001910 -0.042723 0.962527
v -0.001909 0.006028 0.814502
v -0.001909 0.042723 0.905543
v -0.001909 0.006028 0.962527
v -0.001909 0.042723 0.962527
v 0.001910 0.006028 0.814502
v 0.001910 0.042723 0.905543
v 0.001910 0.006028 0.962527
v 0.001910 0.042723 0.962527
vt 0.492590 0.304654
vt 0.369442 0.495342
vt 0.369442 0.000000
vt 0.071881 0.618489
vt 0.059064 0.495342
vt 0.071881 0.495342
vt 0.123147 0.000000
vt 0.246295 0.190688
vt 0.123147 0.495342
vt 0.135964 0.809312
vt 0.123147 0.495342
vt 0.135964 0.495342
vt 0.110331 0.495342
vt 0.097514 0.990684
vt 0.097514 0.495342
vt 0.123147 1.000000
vt 0.135964 1.000000
vt 0.246295 0.000000
vt 0.369442 0.190688
vt 0.246295 0.495342
vt 0.012817 0.618489
vt 0.025633 0.495342
vt 0.025633 0.618489
vt 0.000000 0.495342
vt 0.123147 0.304654
vt 0.123147 0.495342
vt 0.123147 0.495342
vt 0.110331 0.809312
vt 0.110331 0.495342
vt 0.135964 0.495342
vt 0.148781 0.990684
vt 0.135964 0.990684
vt 0.123147 1.000000
vt 0.110331 1.000000
vt 0.738884 0.304654
vt 0.615737 0.495342
vt 0.615737 0.000000
vt 0.046248 0.495342
vt 0.059064 0.618489
vt 0.046248 0.618489
vt 0.615737 0.495342
vt 0.492590 0.304654
vt 0.615737 0.000000
vt 0.985179 0.190688
vt 0.997996 0.504658
vt 0.985179 0.504658
vt 0.084698 0.990684
vt 0.097514 0.495342
vt 0.097514 0.990684
vt 0.997996 0.000000
vt 0.985179 0.000000
vt 0.862032 0.495342
vt 0.738884 0.304654
vt 0.862032 0.000000
vt 0.148781 0.495342
vt 0.161597 0.618489
vt 0.148781 0.618489
vt 0.862032 0.495342
vt 0.985179 0.304654
vt 0.985179 0.495342
vt 0.012817 1.000000
vt 0.000000 0.686030
vt 0.012817 0.686030
vt 0.084698 0.990684
vt 0.071881 0.495342
vt 0.084698 0.495342
vt 0.000000 0.495342
vt 0.012817 0.495342
vt 0.492590 0.495342
vt 0.059064 0.618489
vt 0.246295 0.000000
vt 0.123147 0.809312
vt 0.110331 0.990684
vt 0.369442 0.000000
vt 0.012817 0.495342
vt 0.000000 0.000000
vt 0.123147 0.809312
vt 0.148781 0.495342
vt 0.738884 0.495342
vt 0.059064 0.495342
vt 0.492590 0.495342
vt 0.997996 0.190688
vt 0.084698 0.495342
vt 0.738884 0.495342
vt 0.161597 0.495342
vt 0.862032 0.000000
vt 0.000000 1.000000
vt 0.071881 0.990684
vn -0.0000 -1.0000 0.0000
vn 0.0000 0.0000 1.0000
vn 0.0000 1.0000 0.0000
vn 0.9275 0.0000 -0.3738
vn -1.0000 0.0000 0.0000
vn 1.0000 0.0000 -0.0000
vn -0.9275 0.0000 -0.3738
vn 0.0000 -0.9275 -0.3738
vn 0.0000 0.9275 -0.3738
usemtl Material
s off
f 17/36/14 18/37/14 16/38/14
f 19/39/15 22/40/15 18/41/15
f 22/42/16 21/43/16 20/44/16
f 21/45/17 16/46/17 20/47/17
f 22/48/18 16/49/18 18/50/18
f 19/51/19 21/45/19 23/52/19
f 26/53/14 25/54/14 24/55/14
f 30/56/15 27/57/15 26/58/15
f 30/59/16 29/60/16 31/61/16
f 24/62/20 29/63/20 28/64/20
f 24/65/19 30/66/19 26/67/19
f 29/63/18 27/68/18 31/69/18
f 33/70/18 34/71/18 32/72/18
f 35/73/15 38/74/15 34/75/15
f 38/76/19 37/77/19 36/78/19
f 37/79/21 32/80/21 36/81/21
f 38/82/16 32/83/16 34/84/16
f 35/85/14 37/79/14 39/86/14
f 42/87/18 41/88/18 40/89/18
f 42/90/15 47/91/15 43/92/15
f 46/93/19 45/94/19 47/95/19
f 44/96/22 41/97/22 45/98/22
f 40/99/14 46/100/14 42/101/14
f 45/98/16 43/102/16 47/103/16
f 17/36/14 19/104/14 18/37/14
f 19/39/15 23/105/15 22/40/15
f 22/42/16 23/106/16 21/43/16
f 21/45/17 17/107/17 16/46/17
f 22/48/18 20/108/18 16/49/18
f 19/51/19 17/107/19 21/45/19
f 26/53/14 27/109/14 25/54/14
f 30/56/15 31/110/15 27/57/15
f 30/59/16 28/111/16 29/60/16
f 24/62/20 25/112/20 29/63/20
f 24/65/19 28/113/19 30/66/19
f 29/63/18 25/112/18 27/68/18
f 33/70/18 35/114/18 34/71/18
f 35/73/15 39/115/15 38/74/15
f 38/76/19 39/116/19 37/77/19
f 37/79/21 33/117/21 32/80/21
f 38/82/16 36/118/16 32/83/16
f 35/85/14 33/117/14 37/79/14
f 42/87/18 43/119/18 41/88/18
f 42/90/15 46/120/15 47/91/15
f 46/93/19 44/121/19 45/94/19
f 44/96/22 40/122/22 41/97/22
f 40/99/14 44/123/14 46/100/14
f 45/98/16 41/97/16 43/102/16
