# Mesh Id
o cube

# Vertex Positions
v -0.5 -0.5 0.5
v -0.5 -0.5 -0.5
v 0.5 -0.5 -0.5
v 0.5 -0.5 0.5
v -0.5 0.5 0.5
v -0.5 0.5 -0.5
v 0.5 0.5 -0.5
v 0.5 0.5 0.5

# Vertex Normals
vn -1.0 0.0 0.0
vn 0.0 0.0 -1.0
vn 1.0 -0.0 0.0
vn 0.0 -0.0 1.0
vn 0.0 -1.0 0.0
vn 0.0 1.0 0.0

# Triangle face indices: vertex//normal
# Indices start at 1

f 5//1 6//1 2//1
f 6//2 7//2 3//2
f 7//3 8//3 4//3
f 5//4 1//4 8//4
f 1//5 2//5 3//5
f 8//6 7//6 6//6
f 1//1 5//1 2//1
f 2//2 6//2 3//2
f 3//3 7//3 4//3
f 8//4 1//4 4//4
f 4//5 1//5 3//5
f 5//6 8//6 6//6
