# Blender v2.92.0 OBJ File: ''
# www.blender.org
o Cylinder
v 0.000000 1.000000 -1.000000
v 0.000000 1.000000 0.000000
v 0.309017 0.951057 -1.000000
v 0.309017 0.951057 0.000000
v 0.587785 0.809017 -1.000000
v 0.587785 0.809017 0.000000
v 0.809017 0.587785 -1.000000
v 0.809017 0.587785 0.000000
v 0.951057 0.309017 -1.000000
v 0.951057 0.309017 0.000000
v 1.000000 -0.000000 -1.000000
v 1.000000 -0.000000 0.000000
v 0.951056 -0.309017 -1.000000
v 0.951056 -0.309017 0.000000
v 0.809017 -0.587785 -1.000000
v 0.809017 -0.587785 -0.000000
v 0.587785 -0.809017 -1.000000
v 0.587785 -0.809017 -0.000000
v 0.309017 -0.951057 -1.000000
v 0.309017 -0.951057 -0.000000
v -0.000000 -1.000000 -1.000000
v -0.000000 -1.000000 -0.000000
v -0.309017 -0.951056 -1.000000
v -0.309017 -0.951056 -0.000000
v -0.587786 -0.809017 -1.000000
v -0.587786 -0.809017 -0.000000
v -0.809017 -0.587785 -1.000000
v -0.809017 -0.587785 -0.000000
v -0.951057 -0.309016 -1.000000
v -0.951057 -0.309016 0.000000
v -1.000000 0.000001 -1.000000
v -1.000000 0.000001 0.000000
v -0.951056 0.309018 -1.000000
v -0.951056 0.309018 0.000000
v -0.809016 0.587786 -1.000000
v -0.809016 0.587786 0.000000
v -0.587784 0.809018 -1.000000
v -0.587784 0.809018 0.000000
v -0.309016 0.951057 -1.000000
v -0.309016 0.951057 0.000000
vt 1.000000 1.000000
vt 0.950000 0.500000
vt 1.000000 0.500000
vt 0.950000 1.000000
vt 0.900000 0.500000
vt 0.900000 1.000000
vt 0.850000 0.500000
vt 0.850000 1.000000
vt 0.800000 0.500000
vt 0.800000 1.000000
vt 0.750000 0.500000
vt 0.750000 1.000000
vt 0.700000 0.500000
vt 0.700000 1.000000
vt 0.650000 0.500000
vt 0.650000 1.000000
vt 0.600000 0.500000
vt 0.600000 1.000000
vt 0.550000 0.500000
vt 0.550000 1.000000
vt 0.500000 0.500000
vt 0.500000 1.000000
vt 0.450000 0.500000
vt 0.450000 1.000000
vt 0.400000 0.500000
vt 0.400000 1.000000
vt 0.350000 0.500000
vt 0.350000 1.000000
vt 0.300000 0.500000
vt 0.300000 1.000000
vt 0.250000 0.500000
vt 0.250000 1.000000
vt 0.200000 0.500000
vt 0.200000 1.000000
vt 0.150000 0.500000
vt 0.150000 1.000000
vt 0.100000 0.500000
vt 0.021746 0.175836
vt 0.250000 0.010000
vt 0.478254 0.175836
vt 0.100000 1.000000
vt 0.050000 0.500000
vt 0.050000 1.000000
vt -0.000000 0.500000
vt 0.944164 0.108932
vt 0.510000 0.250000
vt 0.675836 0.478254
vt 0.391068 0.444164
vt 0.324164 0.478254
vt 0.250000 0.490000
vt 0.175836 0.478254
vt 0.108932 0.444164
vt 0.055836 0.391069
vt 0.021747 0.324164
vt 0.010000 0.250000
vt 0.055836 0.108932
vt 0.108931 0.055836
vt 0.175836 0.021746
vt 0.324164 0.021746
vt 0.391068 0.055836
vt 0.444164 0.108932
vt 0.490000 0.250000
vt 0.478254 0.324164
vt 0.444164 0.391068
vt -0.000000 1.000000
vt 0.750000 0.490000
vt 0.824164 0.478254
vt 0.891068 0.444164
vt 0.944164 0.391068
vt 0.978254 0.324164
vt 0.990000 0.250000
vt 0.978254 0.175836
vt 0.891068 0.055836
vt 0.824164 0.021746
vt 0.750000 0.010000
vt 0.675836 0.021746
vt 0.608931 0.055836
vt 0.555836 0.108932
vt 0.521746 0.175836
vt 0.521747 0.324164
vt 0.555836 0.391069
vt 0.608932 0.444164
vn 0.1564 0.9877 0.0000
vn 0.4540 0.8910 0.0000
vn 0.7071 0.7071 0.0000
vn 0.8910 0.4540 0.0000
vn 0.9877 0.1564 0.0000
vn 0.9877 -0.1564 -0.0000
vn 0.8910 -0.4540 -0.0000
vn 0.7071 -0.7071 0.0000
vn 0.4540 -0.8910 0.0000
vn 0.1564 -0.9877 0.0000
vn -0.1564 -0.9877 0.0000
vn -0.4540 -0.8910 0.0000
vn -0.7071 -0.7071 0.0000
vn -0.8910 -0.4540 0.0000
vn -0.9877 -0.1564 -0.0000
vn -0.9877 0.1564 0.0000
vn -0.8910 0.4540 0.0000
vn -0.7071 0.7071 0.0000
vn -0.0000 -0.0000 1.0000
vn -0.4540 0.8910 0.0000
vn -0.1564 0.9877 0.0000
vn -0.0000 0.0000 -1.0000
s off
f 2/1/1 3/2/1 1/3/1
f 4/4/2 5/5/2 3/2/2
f 6/6/3 7/7/3 5/5/3
f 8/8/4 9/9/4 7/7/4
f 10/10/5 11/11/5 9/9/5
f 12/12/6 13/13/6 11/11/6
f 14/14/7 15/15/7 13/13/7
f 16/16/8 17/17/8 15/15/8
f 18/18/9 19/19/9 17/17/9
f 20/20/10 21/21/10 19/19/10
f 22/22/11 23/23/11 21/21/11
f 24/24/12 25/25/12 23/23/12
f 26/26/13 27/27/13 25/25/13
f 28/28/14 29/29/14 27/27/14
f 30/30/15 31/31/15 29/29/15
f 32/32/16 33/33/16 31/31/16
f 34/34/17 35/35/17 33/33/17
f 36/36/18 37/37/18 35/35/18
f 30/38/19 22/39/19 14/40/19
f 38/41/20 39/42/20 37/37/20
f 40/43/21 1/44/21 39/42/21
f 15/45/22 31/46/22 39/47/22
f 2/1/1 4/4/1 3/2/1
f 4/4/2 6/6/2 5/5/2
f 6/6/3 8/8/3 7/7/3
f 8/8/4 10/10/4 9/9/4
f 10/10/5 12/12/5 11/11/5
f 12/12/6 14/14/6 13/13/6
f 14/14/7 16/16/7 15/15/7
f 16/16/8 18/18/8 17/17/8
f 18/18/9 20/20/9 19/19/9
f 20/20/10 22/22/10 21/21/10
f 22/22/11 24/24/11 23/23/11
f 24/24/12 26/26/12 25/25/12
f 26/26/13 28/28/13 27/27/13
f 28/28/14 30/30/14 29/29/14
f 30/30/15 32/32/15 31/31/15
f 32/32/16 34/34/16 33/33/16
f 34/34/17 36/36/17 35/35/17
f 36/36/18 38/41/18 37/37/18
f 6/48/19 4/49/19 2/50/19
f 2/50/19 40/51/19 38/52/19
f 38/52/19 36/53/19 34/54/19
f 34/54/19 32/55/19 30/38/19
f 30/38/19 28/56/19 26/57/19
f 26/57/19 24/58/19 30/38/19
f 24/58/19 22/39/19 30/38/19
f 22/39/19 20/59/19 14/40/19
f 20/59/19 18/60/19 14/40/19
f 18/60/19 16/61/19 14/40/19
f 14/40/19 12/62/19 10/63/19
f 10/63/19 8/64/19 14/40/19
f 8/64/19 6/48/19 14/40/19
f 6/48/19 2/50/19 38/52/19
f 38/52/19 34/54/19 30/38/19
f 6/48/19 38/52/19 14/40/19
f 38/52/19 30/38/19 14/40/19
f 38/41/20 40/43/20 39/42/20
f 40/43/21 2/65/21 1/44/21
f 39/47/22 1/66/22 3/67/22
f 3/67/22 5/68/22 39/47/22
f 5/68/22 7/69/22 39/47/22
f 7/69/22 9/70/22 15/45/22
f 9/70/22 11/71/22 15/45/22
f 11/71/22 13/72/22 15/45/22
f 15/45/22 17/73/22 19/74/22
f 19/74/22 21/75/22 23/76/22
f 23/76/22 25/77/22 27/78/22
f 27/78/22 29/79/22 31/46/22
f 31/46/22 33/80/22 35/81/22
f 35/81/22 37/82/22 39/47/22
f 15/45/22 19/74/22 23/76/22
f 23/76/22 27/78/22 31/46/22
f 31/46/22 35/81/22 39/47/22
f 39/47/22 7/69/22 15/45/22
f 15/45/22 23/76/22 31/46/22
