# Blender v2.92.0 OBJ File: 'Lift.blend'
# www.blender.org
mtllib Lift.mtl
o Cylinder
v 0.000000 0.000000 -1.000000
v 0.000000 1.000000 -1.000000
v 0.195090 0.000000 -0.980785
v 0.195090 1.000000 -0.980785
v 0.382683 0.000000 -0.923880
v 0.382683 1.000000 -0.923880
v 0.555570 0.000000 -0.831470
v 0.555570 1.000000 -0.831470
v 0.707107 0.000000 -0.707107
v 0.707107 1.000000 -0.707107
v 0.831470 0.000000 -0.555570
v 0.831470 1.000000 -0.555570
v 0.923880 0.000000 -0.382683
v 0.923880 1.000000 -0.382683
v 0.980785 0.000000 -0.195090
v 0.980785 1.000000 -0.195090
v 1.000000 0.000000 -0.000000
v 1.000000 1.000000 -0.000000
v 0.980785 0.000000 0.195090
v 0.980785 1.000000 0.195090
v 0.923880 0.000000 0.382683
v 0.923880 1.000000 0.382683
v 0.831470 0.000000 0.555570
v 0.831470 1.000000 0.555570
v 0.707107 0.000000 0.707107
v 0.707107 1.000000 0.707107
v 0.555570 0.000000 0.831470
v 0.555570 1.000000 0.831470
v 0.382683 0.000000 0.923880
v 0.382683 1.000000 0.923880
v 0.195090 0.000000 0.980785
v 0.195090 1.000000 0.980785
v -0.000000 0.000000 1.000000
v -0.000000 1.000000 1.000000
v -0.195091 0.000000 0.980785
v -0.195091 1.000000 0.980785
v -0.382684 0.000000 0.923879
v -0.382684 1.000000 0.923879
v -0.555571 0.000000 0.831469
v -0.555571 1.000000 0.831469
v -0.707107 0.000000 0.707106
v -0.707107 1.000000 0.707106
v -0.831470 0.000000 0.555570
v -0.831470 1.000000 0.555570
v -0.923880 0.000000 0.382683
v -0.923880 1.000000 0.382683
v -0.980785 0.000000 0.195089
v -0.980785 1.000000 0.195089
v -1.000000 0.000000 -0.000001
v -1.000000 1.000000 -0.000001
v -0.980785 0.000000 -0.195091
v -0.980785 1.000000 -0.195091
v -0.923879 0.000000 -0.382684
v -0.923879 1.000000 -0.382684
v -0.831469 0.000000 -0.555571
v -0.831469 1.000000 -0.555571
v -0.707106 0.000000 -0.707108
v -0.707106 1.000000 -0.707108
v -0.555569 0.000000 -0.831470
v -0.555569 1.000000 -0.831470
v -0.382682 0.000000 -0.923880
v -0.382682 1.000000 -0.923880
v -0.195089 0.000000 -0.980786
v -0.195089 1.000000 -0.980786
v 0.000000 0.000000 -0.964312
v 0.188128 0.000000 -0.945783
v 0.188128 1.000000 -0.945783
v 0.000000 1.000000 -0.964312
v 0.369026 0.000000 -0.890908
v 0.369026 1.000000 -0.890908
v 0.535743 0.000000 -0.801796
v 0.535743 1.000000 -0.801796
v 0.681872 0.000000 -0.681872
v 0.681872 1.000000 -0.681872
v 0.801796 0.000000 -0.535743
v 0.801796 1.000000 -0.535743
v 0.890908 0.000000 -0.369026
v 0.890908 1.000000 -0.369026
v 0.945783 0.000000 -0.188128
v 0.945783 1.000000 -0.188128
v 0.964312 0.000000 -0.000000
v 0.964312 1.000000 -0.000000
v 0.945783 0.000000 0.188128
v 0.945783 1.000000 0.188128
v 0.890908 0.000000 0.369026
v 0.890908 1.000000 0.369026
v 0.801796 0.000000 0.535743
v 0.801796 1.000000 0.535743
v 0.681872 0.000000 0.681872
v 0.681872 1.000000 0.681872
v 0.535743 0.000000 0.801796
v 0.535743 1.000000 0.801796
v 0.369026 0.000000 0.890909
v 0.369026 1.000000 0.890909
v 0.188128 0.000000 0.945783
v 0.188128 1.000000 0.945783
v -0.000000 0.000000 0.964312
v -0.000000 1.000000 0.964312
v -0.188128 0.000000 0.945783
v -0.188128 1.000000 0.945783
v -0.369027 0.000000 0.890908
v -0.369027 1.000000 0.890908
v -0.535744 0.000000 0.801796
v -0.535744 1.000000 0.801796
v -0.681872 0.000000 0.681871
v -0.681872 1.000000 0.681871
v -0.801797 0.000000 0.535743
v -0.801797 1.000000 0.535743
v -0.890909 0.000000 0.369026
v -0.890909 1.000000 0.369026
v -0.945783 0.000000 0.188127
v -0.945783 1.000000 0.188127
v -0.964312 0.000000 -0.000001
v -0.964312 1.000000 -0.000001
v -0.945783 0.000000 -0.188129
v -0.945783 1.000000 -0.188129
v -0.890908 0.000000 -0.369027
v -0.890908 1.000000 -0.369027
v -0.801796 0.000000 -0.535744
v -0.801796 1.000000 -0.535744
v -0.681871 0.000000 -0.681873
v -0.681871 1.000000 -0.681873
v -0.535742 0.000000 -0.801797
v -0.535742 1.000000 -0.801797
v -0.369025 0.000000 -0.890909
v -0.369025 1.000000 -0.890909
v -0.188127 0.000000 -0.945784
v -0.188127 1.000000 -0.945784
vt 1.000000 1.000000
vt 0.968750 0.500000
vt 1.000000 0.500000
vt 0.968750 1.000000
vt 0.937500 0.500000
vt 0.937500 1.000000
vt 0.906250 0.500000
vt 0.906250 1.000000
vt 0.875000 0.500000
vt 0.875000 1.000000
vt 0.843750 0.500000
vt 0.843750 1.000000
vt 0.812500 0.500000
vt 0.812500 1.000000
vt 0.781250 0.500000
vt 0.781250 1.000000
vt 0.750000 0.500000
vt 0.750000 1.000000
vt 0.718750 0.500000
vt 0.718750 1.000000
vt 0.687500 0.500000
vt 0.687500 1.000000
vt 0.656250 0.500000
vt 0.656250 1.000000
vt 0.625000 0.500000
vt 0.625000 1.000000
vt 0.593750 0.500000
vt 0.593750 1.000000
vt 0.562500 0.500000
vt 0.562500 1.000000
vt 0.531250 0.500000
vt 0.531250 1.000000
vt 0.500000 0.500000
vt 0.500000 1.000000
vt 0.468750 0.500000
vt 0.468750 1.000000
vt 0.437500 0.500000
vt 0.437500 1.000000
vt 0.406250 0.500000
vt 0.406250 1.000000
vt 0.375000 0.500000
vt 0.375000 1.000000
vt 0.343750 0.500000
vt 0.343750 1.000000
vt 0.312500 0.500000
vt 0.312500 1.000000
vt 0.281250 0.500000
vt 0.281250 1.000000
vt 0.250000 0.500000
vt 0.250000 1.000000
vt 0.218750 0.500000
vt 0.218750 1.000000
vt 0.187500 0.500000
vt 0.187500 1.000000
vt 0.156250 0.500000
vt 0.156250 1.000000
vt 0.125000 0.500000
vt 0.125000 1.000000
vt 0.093750 0.500000
vt 0.093750 1.000000
vt 0.062500 0.500000
vt 0.937500 0.500000
vt 0.968750 1.000000
vt 0.968750 0.500000
vt 0.062500 1.000000
vt 0.031250 0.500000
vt 0.031250 1.000000
vt 0.000000 0.500000
vt 1.000000 1.000000
vt 1.000000 0.500000
vt 0.906250 0.500000
vt 0.937500 1.000000
vt 0.875000 0.500000
vt 0.906250 1.000000
vt 0.843750 0.500000
vt 0.875000 1.000000
vt 0.812500 0.500000
vt 0.843750 1.000000
vt 0.781250 0.500000
vt 0.812500 1.000000
vt 0.750000 0.500000
vt 0.781250 1.000000
vt 0.718750 0.500000
vt 0.750000 1.000000
vt 0.687500 0.500000
vt 0.718750 1.000000
vt 0.656250 0.500000
vt 0.687500 1.000000
vt 0.625000 0.500000
vt 0.656250 1.000000
vt 0.593750 0.500000
vt 0.625000 1.000000
vt 0.562500 0.500000
vt 0.593750 1.000000
vt 0.531250 0.500000
vt 0.562500 1.000000
vt 0.500000 0.500000
vt 0.531250 1.000000
vt 0.468750 0.500000
vt 0.500000 1.000000
vt 0.437500 0.500000
vt 0.468750 1.000000
vt 0.406250 0.500000
vt 0.437500 1.000000
vt 0.375000 0.500000
vt 0.406250 1.000000
vt 0.343750 0.500000
vt 0.375000 1.000000
vt 0.312500 0.500000
vt 0.343750 1.000000
vt 0.281250 0.500000
vt 0.312500 1.000000
vt 0.250000 0.500000
vt 0.281250 1.000000
vt 0.218750 0.500000
vt 0.250000 1.000000
vt 0.187500 0.500000
vt 0.218750 1.000000
vt 0.156250 0.500000
vt 0.187500 1.000000
vt 0.125000 0.500000
vt 0.156250 1.000000
vt 0.093750 0.500000
vt 0.125000 1.000000
vt 0.062500 0.500000
vt 0.093750 1.000000
vt 0.031250 0.500000
vt 0.062500 1.000000
vt 0.000000 0.500000
vt 0.031250 1.000000
vt 0.000000 1.000000
vt 0.000000 1.000000
vn 0.0980 0.0000 -0.9952
vn 0.2903 0.0000 -0.9569
vn 0.4714 0.0000 -0.8819
vn 0.6344 0.0000 -0.7730
vn 0.7730 0.0000 -0.6344
vn 0.8819 0.0000 -0.4714
vn 0.9569 0.0000 -0.2903
vn 0.9952 0.0000 -0.0980
vn 0.9952 0.0000 0.0980
vn 0.9569 0.0000 0.2903
vn 0.8819 0.0000 0.4714
vn 0.7730 0.0000 0.6344
vn 0.6344 0.0000 0.7730
vn 0.4714 0.0000 0.8819
vn 0.2903 0.0000 0.9569
vn 0.0980 0.0000 0.9952
vn -0.0980 0.0000 0.9952
vn -0.2903 0.0000 0.9569
vn -0.4714 0.0000 0.8819
vn -0.6344 0.0000 0.7730
vn -0.7730 0.0000 0.6344
vn -0.8819 0.0000 0.4714
vn -0.9569 0.0000 0.2903
vn -0.9952 0.0000 0.0980
vn -0.9952 0.0000 -0.0980
vn -0.9569 0.0000 -0.2903
vn -0.8819 0.0000 -0.4714
vn -0.7730 0.0000 -0.6344
vn -0.6344 0.0000 -0.7730
vn -0.4714 0.0000 -0.8819
vn -0.2903 0.0000 -0.9569
vn -0.0980 0.0000 -0.9952
vn 0.0000 -1.0000 0.0000
vn 0.0000 1.0000 0.0000
usemtl Material.001
s off
f 2/1/1 3/2/1 1/3/1
f 4/4/2 5/5/2 3/2/2
f 6/6/3 7/7/3 5/5/3
f 8/8/4 9/9/4 7/7/4
f 10/10/5 11/11/5 9/9/5
f 12/12/6 13/13/6 11/11/6
f 14/14/7 15/15/7 13/13/7
f 16/16/8 17/17/8 15/15/8
f 18/18/9 19/19/9 17/17/9
f 20/20/10 21/21/10 19/19/10
f 22/22/11 23/23/11 21/21/11
f 24/24/12 25/25/12 23/23/12
f 26/26/13 27/27/13 25/25/13
f 28/28/14 29/29/14 27/27/14
f 30/30/15 31/31/15 29/29/15
f 32/32/16 33/33/16 31/31/16
f 34/34/17 35/35/17 33/33/17
f 36/36/18 37/37/18 35/35/18
f 38/38/19 39/39/19 37/37/19
f 40/40/20 41/41/20 39/39/20
f 42/42/21 43/43/21 41/41/21
f 44/44/22 45/45/22 43/43/22
f 46/46/23 47/47/23 45/45/23
f 48/48/24 49/49/24 47/47/24
f 50/50/25 51/51/25 49/49/25
f 52/52/26 53/53/26 51/51/26
f 54/54/27 55/55/27 53/53/27
f 56/56/28 57/57/28 55/55/28
f 58/58/29 59/59/29 57/57/29
f 60/60/30 61/61/30 59/59/30
f 69/62/18 67/63/18 66/64/18
f 62/65/31 63/66/31 61/61/31
f 64/67/32 1/68/32 63/66/32
f 66/64/17 68/69/17 65/70/17
f 71/71/19 70/72/19 69/62/19
f 73/73/20 72/74/20 71/71/20
f 75/75/21 74/76/21 73/73/21
f 77/77/22 76/78/22 75/75/22
f 79/79/23 78/80/23 77/77/23
f 81/81/24 80/82/24 79/79/24
f 83/83/25 82/84/25 81/81/25
f 85/85/26 84/86/26 83/83/26
f 87/87/27 86/88/27 85/85/27
f 89/89/28 88/90/28 87/87/28
f 91/91/29 90/92/29 89/89/29
f 93/93/30 92/94/30 91/91/30
f 95/95/31 94/96/31 93/93/31
f 97/97/32 96/98/32 95/95/32
f 99/99/1 98/100/1 97/97/1
f 101/101/2 100/102/2 99/99/2
f 103/103/3 102/104/3 101/101/3
f 105/105/4 104/106/4 103/103/4
f 107/107/5 106/108/5 105/105/5
f 109/109/6 108/110/6 107/107/6
f 111/111/7 110/112/7 109/109/7
f 113/113/8 112/114/8 111/111/8
f 115/115/9 114/116/9 113/113/9
f 117/117/10 116/118/10 115/115/10
f 119/119/11 118/120/11 117/117/11
f 121/121/12 120/122/12 119/119/12
f 123/123/13 122/124/13 121/121/13
f 125/125/14 124/126/14 123/123/14
f 127/127/15 126/128/15 125/125/15
f 65/129/16 128/130/16 127/127/16
f 57/57/33 119/119/33 55/55/33
f 102/104/34 40/40/34 38/38/34
f 69/62/33 3/2/33 5/5/33
f 120/122/34 58/58/34 56/56/34
f 87/87/33 21/21/33 23/23/33
f 67/63/34 6/6/34 4/4/34
f 105/105/33 39/39/33 41/41/33
f 86/88/34 24/24/34 22/22/34
f 123/123/33 57/57/33 59/59/33
f 104/106/34 42/42/34 40/40/34
f 71/71/33 5/5/33 7/7/33
f 122/124/34 60/60/34 58/58/34
f 89/89/33 23/23/33 25/25/33
f 70/72/34 8/8/34 6/6/34
f 107/107/33 41/41/33 43/43/33
f 24/24/34 90/92/34 26/26/34
f 125/125/33 59/59/33 61/61/33
f 106/108/34 44/44/34 42/42/34
f 73/73/33 7/7/33 9/9/33
f 124/126/34 62/65/34 60/60/34
f 27/27/33 89/89/33 25/25/33
f 8/8/34 74/76/34 10/10/34
f 109/109/33 43/43/33 45/45/33
f 26/26/34 92/94/34 28/28/34
f 127/127/33 61/61/33 63/66/33
f 44/44/34 110/112/34 46/46/34
f 75/75/33 9/9/33 11/11/33
f 126/128/34 64/67/34 62/65/34
f 93/93/33 27/27/33 29/29/33
f 10/10/34 76/78/34 12/12/34
f 111/111/33 45/45/33 47/47/33
f 92/94/34 30/30/34 28/28/34
f 1/68/33 127/127/33 63/66/33
f 110/112/34 48/48/34 46/46/34
f 77/77/33 11/11/33 13/13/33
f 128/130/34 2/131/34 64/67/34
f 95/95/33 29/29/33 31/31/33
f 12/12/34 78/80/34 14/14/34
f 113/113/33 47/47/33 49/49/33
f 94/96/34 32/32/34 30/30/34
f 48/48/34 114/116/34 50/50/34
f 79/79/33 13/13/33 15/15/33
f 97/97/33 31/31/33 33/33/33
f 78/80/34 16/16/34 14/14/34
f 115/115/33 49/49/33 51/51/33
f 96/98/34 34/34/34 32/32/34
f 114/116/34 52/52/34 50/50/34
f 81/81/33 15/15/33 17/17/33
f 35/35/33 97/97/33 33/33/33
f 80/82/34 18/18/34 16/16/34
f 117/117/33 51/51/33 53/53/33
f 98/100/34 36/36/34 34/34/34
f 116/118/34 54/54/34 52/52/34
f 83/83/33 17/17/33 19/19/33
f 37/37/33 99/99/33 35/35/33
f 18/18/34 84/86/34 20/20/34
f 3/2/33 65/70/33 1/3/33
f 119/119/33 53/53/33 55/55/33
f 100/102/34 38/38/34 36/36/34
f 68/69/34 4/4/34 2/1/34
f 118/120/34 56/56/34 54/54/34
f 85/85/33 19/19/33 21/21/33
f 103/103/33 37/37/33 39/39/33
f 84/86/34 22/22/34 20/20/34
f 2/1/1 4/4/1 3/2/1
f 4/4/2 6/6/2 5/5/2
f 6/6/3 8/8/3 7/7/3
f 8/8/4 10/10/4 9/9/4
f 10/10/5 12/12/5 11/11/5
f 12/12/6 14/14/6 13/13/6
f 14/14/7 16/16/7 15/15/7
f 16/16/8 18/18/8 17/17/8
f 18/18/9 20/20/9 19/19/9
f 20/20/10 22/22/10 21/21/10
f 22/22/11 24/24/11 23/23/11
f 24/24/12 26/26/12 25/25/12
f 26/26/13 28/28/13 27/27/13
f 28/28/14 30/30/14 29/29/14
f 30/30/15 32/32/15 31/31/15
f 32/32/16 34/34/16 33/33/16
f 34/34/17 36/36/17 35/35/17
f 36/36/18 38/38/18 37/37/18
f 38/38/19 40/40/19 39/39/19
f 40/40/20 42/42/20 41/41/20
f 42/42/21 44/44/21 43/43/21
f 44/44/22 46/46/22 45/45/22
f 46/46/23 48/48/23 47/47/23
f 48/48/24 50/50/24 49/49/24
f 50/50/25 52/52/25 51/51/25
f 52/52/26 54/54/26 53/53/26
f 54/54/27 56/56/27 55/55/27
f 56/56/28 58/58/28 57/57/28
f 58/58/29 60/60/29 59/59/29
f 60/60/30 62/65/30 61/61/30
f 69/62/18 70/72/18 67/63/18
f 62/65/31 64/67/31 63/66/31
f 64/67/32 2/131/32 1/68/32
f 66/64/17 67/63/17 68/69/17
f 71/71/19 72/74/19 70/72/19
f 73/73/20 74/76/20 72/74/20
f 75/75/21 76/78/21 74/76/21
f 77/77/22 78/80/22 76/78/22
f 79/79/23 80/82/23 78/80/23
f 81/81/24 82/84/24 80/82/24
f 83/83/25 84/86/25 82/84/25
f 85/85/26 86/88/26 84/86/26
f 87/87/27 88/90/27 86/88/27
f 89/89/28 90/92/28 88/90/28
f 91/91/29 92/94/29 90/92/29
f 93/93/30 94/96/30 92/94/30
f 95/95/31 96/98/31 94/96/31
f 97/97/32 98/100/32 96/98/32
f 99/99/1 100/102/1 98/100/1
f 101/101/2 102/104/2 100/102/2
f 103/103/3 104/106/3 102/104/3
f 105/105/4 106/108/4 104/106/4
f 107/107/5 108/110/5 106/108/5
f 109/109/6 110/112/6 108/110/6
f 111/111/7 112/114/7 110/112/7
f 113/113/8 114/116/8 112/114/8
f 115/115/9 116/118/9 114/116/9
f 117/117/10 118/120/10 116/118/10
f 119/119/11 120/122/11 118/120/11
f 121/121/12 122/124/12 120/122/12
f 123/123/13 124/126/13 122/124/13
f 125/125/14 126/128/14 124/126/14
f 127/127/15 128/130/15 126/128/15
f 65/129/16 68/132/16 128/130/16
f 57/57/33 121/121/33 119/119/33
f 102/104/34 104/106/34 40/40/34
f 69/62/33 66/64/33 3/2/33
f 120/122/34 122/124/34 58/58/34
f 87/87/33 85/85/33 21/21/33
f 67/63/34 70/72/34 6/6/34
f 105/105/33 103/103/33 39/39/33
f 86/88/34 88/90/34 24/24/34
f 123/123/33 121/121/33 57/57/33
f 104/106/34 106/108/34 42/42/34
f 71/71/33 69/62/33 5/5/33
f 122/124/34 124/126/34 60/60/34
f 89/89/33 87/87/33 23/23/33
f 70/72/34 72/74/34 8/8/34
f 107/107/33 105/105/33 41/41/33
f 24/24/34 88/90/34 90/92/34
f 125/125/33 123/123/33 59/59/33
f 106/108/34 108/110/34 44/44/34
f 73/73/33 71/71/33 7/7/33
f 124/126/34 126/128/34 62/65/34
f 27/27/33 91/91/33 89/89/33
f 8/8/34 72/74/34 74/76/34
f 109/109/33 107/107/33 43/43/33
f 26/26/34 90/92/34 92/94/34
f 127/127/33 125/125/33 61/61/33
f 44/44/34 108/110/34 110/112/34
f 75/75/33 73/73/33 9/9/33
f 126/128/34 128/130/34 64/67/34
f 93/93/33 91/91/33 27/27/33
f 10/10/34 74/76/34 76/78/34
f 111/111/33 109/109/33 45/45/33
f 92/94/34 94/96/34 30/30/34
f 1/68/33 65/129/33 127/127/33
f 110/112/34 112/114/34 48/48/34
f 77/77/33 75/75/33 11/11/33
f 128/130/34 68/132/34 2/131/34
f 95/95/33 93/93/33 29/29/33
f 12/12/34 76/78/34 78/80/34
f 113/113/33 111/111/33 47/47/33
f 94/96/34 96/98/34 32/32/34
f 48/48/34 112/114/34 114/116/34
f 79/79/33 77/77/33 13/13/33
f 97/97/33 95/95/33 31/31/33
f 78/80/34 80/82/34 16/16/34
f 115/115/33 113/113/33 49/49/33
f 96/98/34 98/100/34 34/34/34
f 114/116/34 116/118/34 52/52/34
f 81/81/33 79/79/33 15/15/33
f 35/35/33 99/99/33 97/97/33
f 80/82/34 82/84/34 18/18/34
f 117/117/33 115/115/33 51/51/33
f 98/100/34 100/102/34 36/36/34
f 116/118/34 118/120/34 54/54/34
f 83/83/33 81/81/33 17/17/33
f 37/37/33 101/101/33 99/99/33
f 18/18/34 82/84/34 84/86/34
f 3/2/33 66/64/33 65/70/33
f 119/119/33 117/117/33 53/53/33
f 100/102/34 102/104/34 38/38/34
f 68/69/34 67/63/34 4/4/34
f 118/120/34 120/122/34 56/56/34
f 85/85/33 83/83/33 19/19/33
f 103/103/33 101/101/33 37/37/33
f 84/86/34 86/88/34 22/22/34
