# Blender v2.92.0 OBJ File: 'Weapons.blend'
# www.blender.org
mtllib Pistol.mtl
o Pistol_Cube
v -0.040365 0.050349 -0.048369
v -0.040365 -0.100000 -0.079960
v 0.040365 0.050349 -0.048369
v 0.040365 -0.100000 -0.079960
v -0.040365 0.050349 0.703084
v -0.040365 -0.100000 0.671492
v 0.040365 0.050349 0.703084
v 0.040365 -0.100000 0.671492
v -0.040365 -0.100000 0.082444
v 0.040365 0.050349 0.114035
v 0.040365 -0.100000 0.082444
v -0.040365 0.050349 0.114035
v 0.040365 -0.413291 -0.012484
v 0.040365 -0.413291 -0.175213
v -0.040365 -0.413291 -0.175213
v -0.040365 -0.413291 -0.012484
vt 0.875000 0.500000
vt 0.701077 0.750000
vt 0.701077 0.500000
vt 0.625000 0.826077
vt 0.375000 1.000000
vt 0.375000 0.826077
vt 0.625000 0.000000
vt 0.375000 0.250000
vt 0.375000 0.000000
vt 0.375000 0.500000
vt 0.375000 0.423923
vt 0.375000 0.423923
vt 0.625000 0.500000
vt 0.375000 0.750000
vt 0.625000 0.423923
vt 0.298923 0.500000
vt 0.125000 0.750000
vt 0.125000 0.500000
vt 0.625000 0.750000
vt 0.375000 0.500000
vt 0.298923 0.750000
vt 0.298923 0.500000
vt 0.375000 0.826077
vt 0.375000 0.750000
vt 0.298923 0.750000
vt 0.875000 0.750000
vt 0.625000 1.000000
vt 0.625000 0.250000
vn 0.0000 1.0000 -0.0000
vn 1.0000 0.0000 -0.0000
vn 0.0000 -0.2056 0.9786
vn -1.0000 0.0000 0.0000
vn 0.0000 0.2056 -0.9786
vn 0.0000 -1.0000 -0.0000
vn 0.0000 -0.2900 0.9570
vn 0.0000 0.2909 -0.9568
usemtl Material
s off
f 5/1/1 10/2/1 12/3/1
f 10/4/2 8/5/2 11/6/2
f 7/7/3 6/8/3 8/9/3
f 2/10/4 16/11/4 9/12/4
f 1/13/5 4/14/5 2/10/5
f 9/12/4 1/13/4 2/10/4
f 6/8/4 12/15/4 9/12/4
f 9/16/6 8/17/6 6/18/6
f 3/19/2 11/6/2 4/14/2
f 12/3/1 3/19/1 1/13/1
f 15/20/6 13/21/6 16/22/6
f 4/14/2 13/23/2 14/24/2
f 9/16/7 13/21/7 11/25/7
f 4/14/8 15/20/8 2/10/8
f 5/1/1 7/26/1 10/2/1
f 10/4/2 7/27/2 8/5/2
f 7/7/3 5/28/3 6/8/3
f 2/10/4 15/20/4 16/11/4
f 1/13/5 3/19/5 4/14/5
f 9/12/4 12/15/4 1/13/4
f 6/8/4 5/28/4 12/15/4
f 9/16/6 11/25/6 8/17/6
f 3/19/2 10/4/2 11/6/2
f 12/3/1 10/2/1 3/19/1
f 15/20/6 14/24/6 13/21/6
f 4/14/2 11/6/2 13/23/2
f 9/16/7 16/22/7 13/21/7
f 4/14/8 14/24/8 15/20/8
