# Blender v2.92.0 OBJ File: 'Pistol.blend'
# www.blender.org
mtllib Pistol.mtl
o Pistol_Cube
v -0.040365 -0.051455 -0.105678
v -0.040365 -0.201804 -0.137269
v 0.040365 -0.051455 -0.105678
v 0.040365 -0.201804 -0.137269
v -0.040365 -0.051455 0.645774
v -0.040365 -0.201804 0.614183
v 0.040365 -0.051455 0.645774
v 0.040365 -0.201804 0.614183
v -0.040365 -0.201804 0.025135
v 0.040365 -0.051455 0.056726
v 0.040365 -0.201804 0.025135
v -0.040365 -0.051455 0.056726
v 0.040365 -0.515096 -0.069793
v 0.040365 -0.515096 -0.232522
v -0.040365 -0.515096 -0.232522
v -0.040365 -0.515096 -0.069793
vt 0.925851 0.690204
vt 0.851701 0.149168
vt 0.925851 0.149168
vt 0.851701 0.265673
vt 0.713606 0.777693
vt 0.713606 0.236657
vt 0.148299 0.947686
vt 0.074149 0.806709
vt 0.148299 0.806709
vt 0.287756 0.719220
vt 0.000000 0.657244
vt 0.287756 0.570053
vt 1.000000 0.982480
vt 0.925851 0.841507
vt 1.000000 0.841507
vt 0.425851 0.690204
vt 0.287756 0.029016
vt 0.425851 0.541036
vt 1.000000 0.541036
vt 0.925851 0.000000
vt 1.000000 0.000000
vt 0.851701 0.116505
vt 0.713606 0.087489
vt 0.851701 0.000000
vt 0.925851 0.000000
vt 0.074149 0.956175
vt 0.000000 0.806709
vt 0.074149 0.806709
vt 0.425851 0.149465
vt 0.425851 0.000000
vt 0.851701 0.990594
vt 0.925851 0.690204
vt 0.925851 0.990594
vt 1.000000 0.541036
vt 0.851701 0.690204
vt 0.851701 0.806709
vt 0.074149 0.947686
vt 0.000000 0.806709
vt 0.925851 0.982480
vt 0.425851 0.000000
vt 0.925851 0.541036
vt 0.000000 0.956175
vt 0.851701 0.690204
vt 0.925851 0.541036
vn 0.0000 1.0000 0.0000
vn 1.0000 0.0000 -0.0000
vn 0.0000 -0.2056 0.9786
vn -1.0000 0.0000 0.0000
vn 0.0000 0.2056 -0.9786
vn 0.0000 -1.0000 0.0000
vn 0.0000 -0.2900 0.9570
vn 0.0000 0.2909 -0.9568
usemtl Material
s off
f 5/1/1 10/2/1 12/3/1
f 10/4/2 8/5/2 11/6/2
f 7/7/3 6/8/3 8/9/3
f 2/10/4 16/11/4 9/12/4
f 1/13/5 4/14/5 2/15/5
f 9/12/4 1/16/4 2/10/4
f 6/17/4 12/18/4 9/12/4
f 9/19/6 8/20/6 6/21/6
f 3/22/2 11/6/2 4/23/2
f 12/3/1 3/24/1 1/25/1
f 15/26/6 13/27/6 16/28/6
f 4/23/2 13/29/2 14/30/2
f 9/31/7 13/32/7 11/33/7
f 4/14/8 15/34/8 2/15/8
f 5/1/1 7/35/1 10/2/1
f 10/4/2 7/36/2 8/5/2
f 7/7/3 5/37/3 6/8/3
f 2/10/4 15/38/4 16/11/4
f 1/13/5 3/39/5 4/14/5
f 9/12/4 12/18/4 1/16/4
f 6/17/4 5/40/4 12/18/4
f 9/19/6 11/41/6 8/20/6
f 3/22/2 10/4/2 11/6/2
f 12/3/1 10/2/1 3/24/1
f 15/26/6 14/42/6 13/27/6
f 4/23/2 11/6/2 13/29/2
f 9/31/7 16/43/7 13/32/7
f 4/14/8 14/44/8 15/34/8
o Circle
v 0.000000 0.017667 -0.009208
v -0.011539 0.013917 -0.009208
v -0.018670 0.004102 -0.009208
v -0.018670 -0.008030 -0.009208
v -0.011539 -0.017846 -0.009208
v 0.000000 -0.021595 -0.009208
v 0.011539 -0.017846 -0.009208
v 0.018670 -0.008030 -0.009208
v 0.018670 0.004102 -0.009208
v 0.011539 0.013917 -0.009208
v 0.000000 0.017667 0.006218
v -0.011539 0.013917 0.006218
v -0.018670 0.004102 0.006218
v -0.018670 -0.008030 0.006218
v -0.011539 -0.017846 0.006218
v 0.000000 -0.021595 0.006218
v 0.011539 -0.017846 0.006218
v 0.018670 -0.008030 0.006218
v 0.018670 0.004102 0.006218
v 0.011539 0.013917 0.006218
v 0.000000 0.022858 -0.009208
v -0.014590 0.018118 -0.009208
v -0.023608 0.005706 -0.009208
v -0.023608 -0.035304 -0.009208
v -0.014590 -0.047715 -0.009208
v 0.000000 -0.052456 -0.009208
v 0.014590 -0.047715 -0.009208
v 0.023608 -0.035304 -0.009208
v 0.023608 0.005706 -0.009208
v 0.014590 0.018118 -0.009208
v 0.000000 0.022858 0.006218
v -0.014590 0.018118 0.006218
v -0.023608 0.005706 0.006218
v -0.023608 -0.035304 0.006218
v -0.014590 -0.047715 0.006218
v 0.000000 -0.052456 0.006218
v 0.014590 -0.047715 0.006218
v 0.023608 -0.035304 0.006218
v 0.023608 0.005706 0.006218
v 0.014590 0.018118 0.006218
vt 0.000000 0.000000
vt 0.000000 0.000000
vt 0.000000 0.000000
vt 0.000000 0.000000
vt 0.000000 0.000000
vt 0.000000 0.000000
vt 0.000000 0.000000
vt 0.000000 0.000000
vt 0.000000 0.000000
vt 0.000000 0.000000
vt 0.000000 0.000000
vt 0.000000 0.000000
vt 0.000000 0.000000
vt 0.000000 0.000000
vt 0.000000 0.000000
vt 0.000000 0.000000
vt 0.000000 0.000000
vt 0.000000 0.000000
vt 0.000000 0.000000
vt 0.000000 0.000000
vt 0.000000 0.000000
vt 0.000000 0.000000
vt 0.000000 0.000000
vt 0.000000 0.000000
vt 0.000000 0.000000
vt 0.000000 0.000000
vt 0.000000 0.000000
vt 0.000000 0.000000
vt 0.000000 0.000000
vt 0.000000 0.000000
vt 0.000000 0.000000
vt 0.000000 0.000000
vt 0.000000 0.000000
vt 0.000000 0.000000
vt 0.000000 0.000000
vt 0.000000 0.000000
vt 0.000000 0.000000
vt 0.000000 0.000000
vt 0.000000 0.000000
vt 0.000000 0.000000
vn 0.8090 0.5878 0.0000
vn 0.3090 -0.9511 0.0000
vn -1.0000 0.0000 0.0000
vn 0.3090 0.9511 0.0000
vn 0.8090 -0.5878 0.0000
vn -0.8090 -0.5878 0.0000
vn -0.3090 0.9511 0.0000
vn 1.0000 0.0000 0.0000
vn -0.3090 -0.9511 0.0000
vn -0.8090 0.5878 0.0000
vn 0.0000 0.0000 1.0000
vn 0.0000 0.0000 -1.0000
usemtl Material.001
s off
f 26/45/9 35/46/9 25/47/9
f 33/48/10 22/49/10 23/50/10
f 30/51/11 19/52/11 20/53/11
f 27/54/12 26/45/12 17/55/12
f 24/56/13 33/48/13 23/50/13
f 31/57/14 20/53/14 21/58/14
f 18/59/15 27/54/15 17/55/15
f 35/46/16 24/56/16 25/47/16
f 22/49/17 31/57/17 21/58/17
f 29/60/18 18/59/18 19/52/18
f 46/61/14 55/62/14 56/63/14
f 42/64/15 53/65/15 43/66/15
f 39/67/16 50/68/16 40/69/16
f 46/61/17 47/70/17 37/71/17
f 44/72/18 53/65/18 54/73/18
f 40/69/9 51/74/9 41/75/9
f 38/76/10 47/70/10 48/77/10
f 44/72/11 55/62/11 45/78/11
f 42/64/12 51/74/12 52/79/12
f 38/76/13 49/80/13 39/67/13
f 20/53/19 39/67/19 40/69/19
f 34/81/20 55/62/20 54/73/20
f 28/82/20 47/70/20 27/54/20
f 21/58/19 40/69/19 41/75/19
f 35/46/20 56/63/20 55/62/20
f 29/60/20 48/77/20 28/82/20
f 22/49/19 41/75/19 42/64/19
f 36/83/20 47/70/20 56/63/20
f 30/51/20 49/80/20 29/60/20
f 22/49/19 43/66/19 23/50/19
f 31/57/20 50/68/20 30/51/20
f 23/50/19 44/72/19 24/56/19
f 32/84/20 51/74/20 31/57/20
f 24/56/19 45/78/19 25/47/19
f 18/59/19 37/71/19 38/76/19
f 32/84/20 53/65/20 52/79/20
f 25/47/19 46/61/19 26/45/19
f 19/52/19 38/76/19 39/67/19
f 33/48/20 54/73/20 53/65/20
f 26/45/19 37/71/19 17/55/19
f 26/45/9 36/83/9 35/46/9
f 33/48/10 32/84/10 22/49/10
f 30/51/11 29/60/11 19/52/11
f 27/54/12 36/83/12 26/45/12
f 24/56/13 34/81/13 33/48/13
f 31/57/14 30/51/14 20/53/14
f 18/59/15 28/82/15 27/54/15
f 35/46/16 34/81/16 24/56/16
f 22/49/17 32/84/17 31/57/17
f 29/60/18 28/82/18 18/59/18
f 46/61/14 45/78/14 55/62/14
f 42/64/15 52/79/15 53/65/15
f 39/67/16 49/80/16 50/68/16
f 46/61/17 56/63/17 47/70/17
f 44/72/18 43/66/18 53/65/18
f 40/69/9 50/68/9 51/74/9
f 38/76/10 37/71/10 47/70/10
f 44/72/11 54/73/11 55/62/11
f 42/64/12 41/75/12 51/74/12
f 38/76/13 48/77/13 49/80/13
f 20/53/19 19/52/19 39/67/19
f 34/81/20 35/46/20 55/62/20
f 28/82/20 48/77/20 47/70/20
f 21/58/19 20/53/19 40/69/19
f 35/46/20 36/83/20 56/63/20
f 29/60/20 49/80/20 48/77/20
f 22/49/19 21/58/19 41/75/19
f 36/83/20 27/54/20 47/70/20
f 30/51/20 50/68/20 49/80/20
f 22/49/19 42/64/19 43/66/19
f 31/57/20 51/74/20 50/68/20
f 23/50/19 43/66/19 44/72/19
f 32/84/20 52/79/20 51/74/20
f 24/56/19 44/72/19 45/78/19
f 18/59/19 17/55/19 37/71/19
f 32/84/20 33/48/20 53/65/20
f 25/47/19 45/78/19 46/61/19
f 19/52/19 18/59/19 38/76/19
f 33/48/20 34/81/20 54/73/20
f 26/45/19 46/61/19 37/71/19
o Cube_Cube.001
v -0.032093 -0.063167 0.057856
v -0.032093 -0.036884 0.057856
v -0.032093 -0.063167 -0.068943
v -0.032093 -0.043259 -0.068943
v 0.032093 -0.063167 0.057856
v 0.032093 -0.036884 0.057856
v 0.032093 -0.063167 -0.068943
v 0.032093 -0.043259 -0.068943
v -0.032093 -0.063167 -0.039201
v -0.032093 -0.030115 -0.039201
v 0.032093 -0.063167 -0.039201
v 0.032093 -0.030115 -0.039201
v -0.032093 -0.063167 0.029898
v 0.032093 -0.030115 0.029898
v -0.032093 -0.030115 0.029898
v 0.032093 -0.063167 0.029898
vt 0.375000 0.191359
vt 0.625000 0.250000
vt 0.375000 0.250000
vt 0.375000 0.500000
vt 0.375000 0.694878
vt 0.625000 0.750000
vt 0.375000 0.750000
vt 0.375000 1.000000
vt 0.125000 0.750000
vt 0.125000 0.694878
vt 0.875000 0.694878
vt 0.625000 0.694878
vt 0.875000 0.500000
vt 0.625000 0.558641
vt 0.625000 0.500000
vt 0.125000 0.558641
vt 0.125000 0.500000
vt 0.375000 0.558641
vt 0.625000 0.055122
vt 0.375000 0.055122
vt 0.625000 0.000000
vt 0.375000 0.000000
vt 0.875000 0.558641
vt 0.625000 0.191359
vt 0.625000 1.000000
vt 0.875000 0.750000
vn -1.0000 0.0000 0.0000
vn 0.0000 0.0000 -1.0000
vn 1.0000 0.0000 0.0000
vn 0.0000 0.0000 1.0000
vn 0.0000 -1.0000 0.0000
vn 0.0000 0.9719 0.2353
vn 0.0000 0.9147 -0.4042
vn 0.0000 1.0000 0.0000
usemtl Material.001
s off
f 65/85/21 60/86/21 59/87/21
f 60/86/22 63/88/22 59/87/22
f 72/89/23 62/90/23 61/91/23
f 62/90/24 57/92/24 61/91/24
f 72/89/25 57/93/25 69/94/25
f 71/95/26 62/90/26 70/96/26
f 60/97/27 68/98/27 64/99/27
f 63/88/25 65/100/25 59/101/25
f 64/99/23 67/102/23 63/88/23
f 71/103/21 65/85/21 69/104/21
f 58/105/21 69/104/21 57/106/21
f 66/107/28 70/96/28 68/98/28
f 67/102/25 69/94/25 65/100/25
f 68/98/23 72/89/23 67/102/23
f 65/85/21 66/108/21 60/86/21
f 60/86/22 64/99/22 63/88/22
f 72/89/23 70/96/23 62/90/23
f 62/90/24 58/109/24 57/92/24
f 72/89/25 61/91/25 57/93/25
f 71/95/26 58/110/26 62/90/26
f 60/97/27 66/107/27 68/98/27
f 63/88/25 67/102/25 65/100/25
f 64/99/23 68/98/23 67/102/23
f 71/103/21 66/108/21 65/85/21
f 58/105/21 71/103/21 69/104/21
f 66/107/28 71/95/28 70/96/28
f 67/102/25 72/89/25 69/94/25
f 68/98/23 70/96/23 72/89/23
o Cube.001_Cube.002
v -0.032093 -0.074209 0.623631
v -0.032093 -0.047926 0.623631
v -0.032093 -0.074209 0.496832
v -0.032093 -0.054301 0.496832
v 0.032093 -0.074209 0.623631
v 0.032093 -0.047926 0.623631
v 0.032093 -0.074209 0.496832
v 0.032093 -0.054301 0.496832
v -0.032093 -0.074209 0.526574
v -0.032093 -0.041157 0.526574
v 0.032093 -0.074209 0.526574
v 0.032093 -0.041157 0.526574
v -0.032093 -0.074209 0.595673
v 0.032093 -0.041157 0.595673
v -0.032093 -0.041157 0.595673
v 0.032093 -0.074209 0.595673
vt 0.375000 0.191359
vt 0.625000 0.250000
vt 0.375000 0.250000
vt 0.375000 0.500000
vt 0.375000 0.694878
vt 0.625000 0.750000
vt 0.375000 0.750000
vt 0.375000 1.000000
vt 0.125000 0.750000
vt 0.125000 0.694878
vt 0.875000 0.694878
vt 0.625000 0.694878
vt 0.875000 0.500000
vt 0.625000 0.558641
vt 0.625000 0.500000
vt 0.125000 0.558641
vt 0.125000 0.500000
vt 0.375000 0.558641
vt 0.625000 0.055122
vt 0.375000 0.055122
vt 0.625000 0.000000
vt 0.375000 0.000000
vt 0.875000 0.558641
vt 0.625000 0.191359
vt 0.625000 1.000000
vt 0.875000 0.750000
vn -1.0000 0.0000 0.0000
vn 0.0000 0.0000 -1.0000
vn 1.0000 0.0000 0.0000
vn 0.0000 0.0000 1.0000
vn 0.0000 -1.0000 0.0000
vn 0.0000 0.9719 0.2353
vn 0.0000 0.9147 -0.4042
vn 0.0000 1.0000 0.0000
usemtl Material.001
s off
f 81/111/29 76/112/29 75/113/29
f 76/112/30 79/114/30 75/113/30
f 88/115/31 78/116/31 77/117/31
f 78/116/32 73/118/32 77/117/32
f 88/115/33 73/119/33 85/120/33
f 87/121/34 78/116/34 86/122/34
f 76/123/35 84/124/35 80/125/35
f 79/114/33 81/126/33 75/127/33
f 80/125/31 83/128/31 79/114/31
f 87/129/29 81/111/29 85/130/29
f 74/131/29 85/130/29 73/132/29
f 82/133/36 86/122/36 84/124/36
f 83/128/33 85/120/33 81/126/33
f 84/124/31 88/115/31 83/128/31
f 81/111/29 82/134/29 76/112/29
f 76/112/30 80/125/30 79/114/30
f 88/115/31 86/122/31 78/116/31
f 78/116/32 74/135/32 73/118/32
f 88/115/33 77/117/33 73/119/33
f 87/121/34 74/136/34 78/116/34
f 76/123/35 82/133/35 84/124/35
f 79/114/33 83/128/33 81/126/33
f 80/125/31 84/124/31 83/128/31
f 87/129/29 82/134/29 81/111/29
f 74/131/29 87/129/29 85/130/29
f 82/133/36 87/121/36 86/122/36
f 83/128/33 88/115/33 85/120/33
f 84/124/31 86/122/31 88/115/31
o Cube.002_Cube.003
v -0.004065 -0.054793 0.588699
v -0.004065 -0.000556 0.588699
v -0.004065 -0.054793 0.542266
v -0.004065 -0.000556 0.542266
v 0.004065 -0.054793 0.588699
v 0.004065 -0.000556 0.588699
v 0.004065 -0.054793 0.542266
v 0.004065 -0.000556 0.542266
vt 0.625000 0.000000
vt 0.375000 0.250000
vt 0.375000 0.000000
vt 0.625000 0.250000
vt 0.375000 0.500000
vt 0.625000 0.500000
vt 0.375000 0.750000
vt 0.625000 0.750000
vt 0.375000 1.000000
vt 0.125000 0.750000
vt 0.125000 0.500000
vt 0.875000 0.500000
vt 0.625000 1.000000
vt 0.875000 0.750000
vn -1.0000 0.0000 0.0000
vn 0.0000 0.0000 -1.0000
vn 1.0000 0.0000 0.0000
vn 0.0000 0.0000 1.0000
vn 0.0000 -1.0000 0.0000
vn 0.0000 1.0000 0.0000
usemtl Material.001
s off
f 90/137/37 91/138/37 89/139/37
f 92/140/38 95/141/38 91/138/38
f 96/142/39 93/143/39 95/141/39
f 94/144/40 89/145/40 93/143/40
f 95/141/41 89/146/41 91/147/41
f 92/148/42 94/144/42 96/142/42
f 90/137/37 92/140/37 91/138/37
f 92/140/38 96/142/38 95/141/38
f 96/142/39 94/144/39 93/143/39
f 94/144/40 90/149/40 89/145/40
f 95/141/41 93/143/41 89/146/41
f 92/148/42 90/150/42 94/144/42
