# Blender v2.92.0 OBJ File: 'Pistol.blend'
# www.blender.org
mtllib Pistol.mtl
o Pistol_Cube
v -0.040365 -0.051455 -0.105678
v -0.040365 -0.201804 -0.137269
v 0.040365 -0.051455 -0.105678
v 0.040365 -0.201804 -0.137269
v -0.040365 -0.051455 0.645774
v -0.040365 -0.201804 0.614183
v 0.040365 -0.051455 0.645774
v 0.040365 -0.201804 0.614183
v -0.040365 -0.201804 0.025135
v 0.040365 -0.051455 0.056726
v 0.040365 -0.201804 0.025135
v -0.040365 -0.051455 0.056726
v 0.040365 -0.515096 -0.069793
v 0.040365 -0.515096 -0.232522
v -0.040365 -0.515096 -0.232522
v -0.040365 -0.515096 -0.069793
v 0.000000 -0.201804 0.614183
v -0.000000 -0.051455 -0.105678
v 0.000000 -0.051455 0.645774
v -0.000000 -0.201804 -0.137269
v -0.000000 -0.201804 0.025135
v -0.000000 -0.051455 0.056726
v -0.000000 -0.515096 -0.232522
v -0.000000 -0.515096 -0.069793
v -0.040365 -0.126630 -0.121474
v 0.040365 -0.126630 0.629979
v 0.040365 -0.126630 -0.121474
v -0.040365 -0.126630 0.629979
v -0.040365 -0.126630 0.040931
v 0.040365 -0.126630 0.040931
v -0.000000 -0.126630 -0.121474
v 0.000000 -0.126630 0.629979
v -0.040365 -0.201804 0.206532
v 0.040365 -0.051455 0.238123
v 0.040365 -0.201804 0.206532
v -0.040365 -0.051455 0.238123
v 0.000000 -0.201804 0.206532
v 0.000000 -0.051455 0.238123
v -0.040365 -0.126630 0.222328
v 0.040365 -0.126630 0.222328
v -0.040365 -0.201804 0.233038
v 0.040365 -0.051455 0.264629
v 0.000000 -0.201804 0.233038
v 0.040365 -0.126630 0.248834
v 0.040365 -0.201804 0.233038
v -0.040365 -0.051455 0.264629
v 0.000000 -0.051455 0.264629
v -0.040365 -0.126630 0.248834
v 0.040365 -0.327145 0.184087
v 0.040365 -0.327145 0.157581
v -0.040365 -0.327145 0.157581
v 0.000000 -0.327145 0.157581
v -0.040365 -0.327145 0.184087
v 0.000000 -0.315511 0.164363
v -0.040365 -0.308858 0.164363
v -0.040365 -0.308858 0.190869
v 0.040365 -0.308858 0.190869
v 0.040365 -0.308858 0.164363
v -0.040365 -0.306388 -0.169067
v -0.040365 -0.306388 -0.006554
v 0.040365 -0.306388 -0.006554
v 0.040365 -0.306388 -0.169067
v -0.000000 -0.306388 -0.169067
v -0.000000 -0.306388 -0.006554
v -0.040365 -0.323824 -0.174368
v 0.040365 -0.323824 -0.011837
v -0.000000 -0.323824 -0.174368
v -0.000000 -0.323824 -0.011837
v -0.040365 -0.323824 -0.011837
v 0.040365 -0.323824 -0.174368
v 0.040365 -0.201804 0.133753
v -0.040365 -0.051455 0.165344
v -0.000000 -0.051455 0.165344
v -0.040365 -0.126630 0.149548
v -0.040365 -0.201804 0.133753
v 0.040365 -0.051455 0.165344
v -0.000000 -0.201804 0.133753
v 0.040365 -0.126630 0.149548
v 0.040365 -0.201804 0.113572
v -0.040365 -0.051455 0.145163
v -0.000000 -0.051455 0.145163
v -0.040365 -0.126630 0.129367
v -0.040365 -0.201804 0.113572
v 0.040365 -0.051455 0.145163
v -0.000000 -0.201804 0.113572
v 0.040365 -0.126630 0.129367
v -0.040365 -0.277290 0.088568
v -0.040365 -0.277290 0.108749
v -0.000000 -0.277290 0.088568
v -0.000000 -0.277290 0.108749
v 0.040365 -0.277290 0.108749
v 0.040365 -0.277290 0.088568
vt 0.888776 0.690199
vt 0.851701 0.340122
vt 0.888776 0.340122
vt 0.851701 0.456630
vt 0.782654 0.792201
vt 0.782654 0.442122
vt 0.259523 0.947412
vt 0.222448 0.877061
vt 0.259523 0.877060
vt 0.175682 0.753295
vt 0.000000 0.657244
vt 0.175682 0.604011
vt 0.962925 0.441302
vt 0.925850 0.371032
vt 0.962925 0.371032
vt 0.356803 0.555544
vt 0.425850 0.690204
vt 0.356803 0.704712
vt 0.356803 0.474316
vt 0.425850 0.541036
vt 0.481972 0.887938
vt 0.444897 0.806709
vt 0.481972 0.806709
vt 0.851701 0.116505
vt 0.782654 0.251165
vt 0.782654 0.101997
vt 0.888776 0.149166
vt 0.851701 0.000000
vt 0.888776 0.000000
vt 0.185374 0.956175
vt 0.148299 0.806709
vt 0.185374 0.806709
vt 0.601532 0.053414
vt 0.425850 0.149465
vt 0.425851 0.000000
vt 0.851701 0.873757
vt 0.888776 0.690199
vt 0.888776 0.873757
vt 0.925850 0.183622
vt 0.962925 0.000000
vt 0.962925 0.183622
vt 1.000000 0.000000
vt 1.000000 0.183622
vt 0.925850 0.690199
vt 0.925850 0.873757
vt 0.222448 0.956175
vt 0.222448 0.806709
vt 0.925850 0.149166
vt 0.925850 0.000000
vt 0.519046 0.887938
vt 0.519046 0.806709
vt 1.000000 0.441302
vt 1.000000 0.371032
vt 0.296598 0.877061
vt 0.925850 0.690199
vt 0.925850 0.340122
vt 0.296598 0.806709
vt 0.259523 0.806709
vt 0.962925 0.300761
vt 1.000000 0.300761
vt 0.713606 0.236657
vt 0.713606 0.087489
vt 0.287756 0.488824
vt 0.287756 0.570053
vt 0.287756 0.719220
vt 0.925850 0.300761
vt 0.222448 0.806709
vt 0.713606 0.777693
vt 0.713606 0.427614
vt 0.782654 0.350929
vt 0.713606 0.403268
vt 0.713606 0.336421
vt 0.287756 0.379095
vt 0.356803 0.388933
vt 0.287756 0.403441
vt 0.925850 0.315777
vt 0.888776 0.248930
vt 0.925850 0.248930
vt 0.189428 0.442173
vt 0.172632 0.424057
vt 0.189428 0.417828
vt 0.333673 0.917910
vt 0.296598 0.929951
vt 0.296598 0.912067
vt 0.356803 0.364587
vt 0.425850 0.374425
vt 0.851701 0.365437
vt 0.782654 0.417777
vt 0.851701 0.315777
vt 0.851701 0.248930
vt 0.356803 0.014508
vt 0.425850 0.350079
vt 0.962925 0.791381
vt 0.925850 0.441302
vt 0.962925 0.441302
vt 1.000000 0.791381
vt 1.000000 0.441302
vt 0.287756 0.029016
vt 0.888776 0.315777
vt 0.851701 0.432285
vt 0.444897 0.911942
vt 0.370747 0.929810
vt 0.370747 0.911942
vt 0.370747 0.929951
vt 0.333673 0.929951
vt 0.333673 0.806709
vt 0.615279 0.364536
vt 0.598482 0.382652
vt 0.598482 0.358307
vt 0.615279 0.388882
vt 0.407822 0.806709
vt 0.888776 0.990856
vt 0.925850 0.890490
vt 0.925850 0.990856
vt 1.000000 0.200361
vt 0.962925 0.200361
vt 0.851701 0.990856
vt 0.888776 0.890490
vt 0.617547 0.207550
vt 0.617547 0.058283
vt 0.191696 0.599159
vt 0.925850 0.200361
vt 0.851701 0.890490
vt 0.601532 0.202698
vt 0.191696 0.748426
vt 0.925851 0.797367
vt 0.942735 0.948384
vt 0.926652 0.953004
vt 0.111224 0.806709
vt 0.148299 0.962329
vt 0.111224 0.962329
vt 0.942735 0.947018
vt 0.959620 0.796002
vt 0.959620 0.953004
vt 0.037075 0.963726
vt 0.000000 0.806733
vt 0.037075 0.806709
vt 0.851701 0.230394
vt 0.888776 0.230394
vt 0.851701 0.346901
vt 0.782654 0.332393
vt 0.925850 0.230394
vt 0.713606 0.317885
vt 0.356803 0.455780
vt 0.287756 0.470288
vt 0.731900 0.806709
vt 0.665053 0.843784
vt 0.665053 0.806709
vt 0.731900 0.880859
vt 0.665053 0.880859
vt 0.425850 0.441272
vt 0.851701 0.265673
vt 0.851701 0.149166
vt 0.592065 0.806709
vt 0.665053 0.843784
vt 0.592065 0.843784
vt 0.218423 0.493254
vt 0.425850 0.459808
vt 0.774782 0.806709
vt 0.756246 0.843784
vt 0.756246 0.806709
vt 0.774782 0.880859
vt 0.756246 0.880859
vt 0.519046 0.843784
vt 0.592065 0.880859
vt 0.519046 0.880859
vt 0.644273 0.313455
vt 0.644273 0.294919
vt 0.592065 0.880859
vt 0.665053 0.880859
vt 0.592065 0.806709
vt 0.592065 0.843784
vt 0.731900 0.806709
vt 0.756246 0.843784
vt 0.731900 0.880859
vt 0.851701 0.690199
vt 0.851701 0.806709
vt 0.222448 0.947412
vt 0.000000 0.806709
vt 0.925850 0.441302
vt 0.444897 0.887938
vt 0.148299 0.956175
vt 0.851701 0.690199
vt 0.925851 0.000000
vt 0.296598 0.947412
vt 0.172632 0.448402
vt 0.425850 0.000000
vt 0.925850 0.791381
vt 0.444897 0.929810
vt 0.370747 0.912067
vt 0.296598 0.806709
vt 0.370747 0.806709
vt 0.370747 0.806709
vt 0.444897 0.806709
vt 0.942735 0.791381
vt 0.074150 0.962329
vt 0.074149 0.806709
vt 0.148299 0.806709
vt 0.943537 0.791381
vt 0.074149 0.806733
vt 0.074149 0.963726
vt 0.000000 0.963726
vt 0.731900 0.843784
vt 0.665053 0.806709
vt 0.218423 0.511790
vt 0.774782 0.843784
vt 0.519046 0.806709
vt 0.756246 0.806709
vt 0.756246 0.880859
vn 0.0000 1.0000 0.0000
vn 1.0000 0.0000 -0.0000
vn -0.0000 -0.2056 0.9786
vn -1.0000 0.0000 0.0000
vn 0.0000 0.2056 -0.9786
vn 0.0000 -1.0000 0.0000
vn 0.0000 -0.2900 0.9570
vn 0.0000 0.2909 -0.9568
vn 0.0572 0.3471 -0.9361
vn 0.0000 -0.3477 0.9376
vn 0.0000 0.5036 -0.8639
vn 0.0000 -0.3665 0.9304
vn 0.0000 0.9998 0.0196
vn 0.1624 0.9853 0.0526
vn 0.0000 -0.3144 0.9493
vn 0.0000 0.3144 -0.9493
vn -0.0572 0.3471 -0.9361
vn 0.0000 0.3665 -0.9304
vn -0.1624 0.9853 0.0526
vn 0.0000 0.9999 0.0144
usemtl Material
s off
f 19/1/1 42/2/1 47/3/1
f 42/4/2 26/5/2 44/6/2
f 19/7/3 28/8/3 32/9/3
f 65/10/4 16/11/4 69/12/4
f 18/13/5 27/14/5 31/15/5
f 29/16/4 1/17/4 25/18/4
f 82/19/4 12/20/4 29/16/4
f 21/21/6 79/22/6 85/23/6
f 3/24/2 30/25/2 27/26/2
f 22/27/1 3/28/1 18/29/1
f 23/30/6 13/31/6 24/32/6
f 70/33/2 13/34/2 14/35/2
f 69/36/7 24/37/7 68/38/7
f 70/39/8 23/40/8 67/41/8
f 67/41/8 15/42/8 65/43/8
f 68/38/7 13/44/7 66/45/7
f 15/46/6 24/32/6 16/47/6
f 12/48/1 18/29/1 1/49/1
f 9/50/6 85/23/6 83/51/6
f 1/52/5 31/15/5 25/53/5
f 26/54/3 19/7/3 32/9/3
f 5/55/1 47/3/1 46/56/1
f 8/57/3 32/9/3 17/58/3
f 25/53/5 20/59/5 2/60/5
f 27/26/2 11/61/2 4/62/2
f 83/63/4 29/16/4 9/64/4
f 9/64/4 25/18/4 2/65/4
f 31/15/5 4/66/5 20/59/5
f 32/9/3 6/67/3 17/58/3
f 44/6/2 8/68/2 45/69/2
f 78/70/2 35/71/2 71/72/2
f 41/73/4 39/74/4 33/75/4
f 36/76/1 73/77/1 72/78/1
f 55/79/4 53/80/4 56/81/4
f 54/82/9 51/83/9 55/84/9
f 48/85/4 36/86/4 39/74/4
f 76/87/2 40/88/2 78/70/2
f 73/77/1 34/89/1 76/90/1
f 28/91/4 46/92/4 48/85/4
f 43/93/6 8/94/6 17/95/6
f 41/96/6 17/95/6 6/97/6
f 6/98/4 48/85/4 41/73/4
f 40/88/2 45/69/2 35/71/2
f 46/56/1 38/99/1 36/76/1
f 34/100/2 44/6/2 40/88/2
f 47/3/1 34/89/1 38/99/1
f 56/101/10 49/102/10 57/103/10
f 54/82/11 50/104/11 52/105/11
f 54/82/9 55/84/9 37/106/9
f 58/107/2 49/108/2 50/109/2
f 35/71/2 57/110/2 58/107/2
f 43/111/12 56/101/12 57/103/12
f 33/75/4 56/81/4 41/73/4
f 21/112/7 61/113/7 11/114/7
f 20/59/8 59/115/8 2/60/8
f 4/66/8 63/116/8 20/59/8
f 9/117/7 64/118/7 21/112/7
f 4/62/2 61/119/2 62/120/2
f 2/65/4 60/121/4 9/64/4
f 64/118/7 66/45/7 61/113/7
f 63/116/8 65/43/8 59/115/8
f 62/122/8 67/41/8 63/116/8
f 60/123/7 68/38/7 64/118/7
f 62/120/2 66/124/2 70/33/2
f 59/125/4 69/12/4 60/121/4
f 50/126/4 61/127/4 66/128/4
f 52/129/13 66/130/13 68/131/13
f 51/132/2 60/133/2 55/134/2
f 64/135/14 55/136/14 54/137/14
f 73/77/1 84/138/1 81/139/1
f 84/140/2 78/70/2 86/141/2
f 72/78/1 81/139/1 80/142/1
f 86/141/2 71/72/2 79/143/2
f 33/75/4 74/144/4 75/145/4
f 75/146/6 37/147/6 33/148/6
f 37/147/6 71/149/6 35/150/6
f 39/74/4 72/151/4 74/144/4
f 30/25/2 79/143/2 11/61/2
f 80/142/1 22/27/1 12/48/1
f 10/152/2 86/141/2 30/25/2
f 22/27/1 84/138/1 10/153/1
f 75/145/4 82/19/4 83/63/4
f 75/154/15 90/155/15 77/156/15
f 83/63/4 88/157/4 75/145/4
f 74/144/4 80/158/4 82/19/4
f 87/159/6 90/160/6 88/161/6
f 90/160/6 92/162/6 91/163/6
f 85/164/16 87/165/16 83/166/16
f 79/143/2 91/167/2 92/168/2
f 71/169/15 90/155/15 91/170/15
f 85/164/16 92/171/16 89/172/16
f 53/173/6 52/174/6 49/175/6
f 19/1/1 7/176/1 42/2/1
f 42/4/2 7/177/2 26/5/2
f 19/7/3 5/178/3 28/8/3
f 65/10/4 15/179/4 16/11/4
f 18/13/5 3/180/5 27/14/5
f 29/16/4 12/20/4 1/17/4
f 82/19/4 80/158/4 12/20/4
f 21/21/6 11/181/6 79/22/6
f 3/24/2 10/152/2 30/25/2
f 22/27/1 10/153/1 3/28/1
f 23/30/6 14/182/6 13/31/6
f 70/33/2 66/124/2 13/34/2
f 69/36/7 16/183/7 24/37/7
f 70/39/8 14/184/8 23/40/8
f 67/41/8 23/40/8 15/42/8
f 68/38/7 24/37/7 13/44/7
f 15/46/6 23/30/6 24/32/6
f 12/48/1 22/27/1 18/29/1
f 9/50/6 21/21/6 85/23/6
f 1/52/5 18/13/5 31/15/5
f 26/54/3 7/185/3 19/7/3
f 5/55/1 19/1/1 47/3/1
f 8/57/3 26/54/3 32/9/3
f 25/53/5 31/15/5 20/59/5
f 27/26/2 30/25/2 11/61/2
f 83/63/4 82/19/4 29/16/4
f 9/64/4 29/16/4 25/18/4
f 31/15/5 27/14/5 4/66/5
f 32/9/3 28/8/3 6/67/3
f 44/6/2 26/5/2 8/68/2
f 78/70/2 40/88/2 35/71/2
f 41/73/4 48/85/4 39/74/4
f 36/76/1 38/99/1 73/77/1
f 55/79/4 51/186/4 53/80/4
f 54/82/11 52/105/11 51/83/11
f 48/85/4 46/92/4 36/86/4
f 76/87/2 34/100/2 40/88/2
f 73/77/1 38/99/1 34/89/1
f 28/91/4 5/187/4 46/92/4
f 43/93/6 45/188/6 8/94/6
f 41/96/6 43/93/6 17/95/6
f 6/98/4 28/91/4 48/85/4
f 40/88/2 44/6/2 45/69/2
f 46/56/1 47/3/1 38/99/1
f 34/100/2 42/4/2 44/6/2
f 47/3/1 42/2/1 34/89/1
f 56/101/10 53/189/10 49/102/10
f 54/82/17 58/190/17 50/104/17
f 55/84/18 33/191/18 37/106/18
f 37/106/18 35/192/18 58/190/18
f 58/190/17 54/82/17 37/106/17
f 58/107/2 57/110/2 49/108/2
f 35/71/2 45/69/2 57/110/2
f 57/103/12 45/193/12 43/111/12
f 43/111/12 41/194/12 56/101/12
f 33/75/4 55/79/4 56/81/4
f 21/112/7 64/118/7 61/113/7
f 20/59/8 63/116/8 59/115/8
f 4/66/8 62/122/8 63/116/8
f 9/117/7 60/123/7 64/118/7
f 4/62/2 11/61/2 61/119/2
f 2/65/4 59/125/4 60/121/4
f 64/118/7 68/38/7 66/45/7
f 63/116/8 67/41/8 65/43/8
f 62/122/8 70/39/8 67/41/8
f 60/123/7 69/36/7 68/38/7
f 62/120/2 61/119/2 66/124/2
f 59/125/4 65/10/4 69/12/4
f 50/126/4 58/195/4 61/127/4
f 68/131/13 69/196/13 51/197/13
f 52/129/13 50/198/13 66/130/13
f 68/131/13 51/197/13 52/129/13
f 51/132/2 69/199/2 60/133/2
f 54/137/19 58/200/19 64/135/19
f 58/200/20 61/201/20 64/135/20
f 64/135/20 60/202/20 55/136/20
f 73/77/1 76/90/1 84/138/1
f 84/140/2 76/87/2 78/70/2
f 72/78/1 73/77/1 81/139/1
f 86/141/2 78/70/2 71/72/2
f 33/75/4 39/74/4 74/144/4
f 75/146/6 77/203/6 37/147/6
f 37/147/6 77/203/6 71/149/6
f 39/74/4 36/86/4 72/151/4
f 30/25/2 86/141/2 79/143/2
f 80/142/1 81/139/1 22/27/1
f 10/152/2 84/140/2 86/141/2
f 22/27/1 81/139/1 84/138/1
f 75/145/4 74/144/4 82/19/4
f 75/154/15 88/204/15 90/155/15
f 83/63/4 87/205/4 88/157/4
f 74/144/4 72/151/4 80/158/4
f 87/159/6 89/206/6 90/160/6
f 90/160/6 89/206/6 92/162/6
f 85/164/16 89/172/16 87/165/16
f 79/143/2 71/72/2 91/167/2
f 71/169/15 77/156/15 90/155/15
f 85/164/16 79/207/16 92/171/16
f 51/208/6 52/174/6 53/173/6
f 52/174/6 50/209/6 49/175/6
o Circle
v 0.000000 0.017667 -0.009208
v -0.011539 0.013917 -0.009208
v -0.018670 0.004102 -0.009208
v -0.018670 -0.008030 -0.009208
v -0.011539 -0.017846 -0.009208
v 0.000000 -0.021595 -0.009208
v 0.011539 -0.017846 -0.009208
v 0.018670 -0.008030 -0.009208
v 0.018670 0.004102 -0.009208
v 0.011539 0.013917 -0.009208
v 0.000000 0.017667 0.006218
v -0.011539 0.013917 0.006218
v -0.018670 0.004102 0.006218
v -0.018670 -0.008030 0.006218
v -0.011539 -0.017846 0.006218
v 0.000000 -0.021595 0.006218
v 0.011539 -0.017846 0.006218
v 0.018670 -0.008030 0.006218
v 0.018670 0.004102 0.006218
v 0.011539 0.013917 0.006218
v 0.000000 0.022858 -0.009208
v -0.014590 0.018118 -0.009208
v -0.023608 0.005706 -0.009208
v -0.023608 -0.035304 -0.009208
v -0.014590 -0.047715 -0.009208
v 0.000000 -0.052456 -0.009208
v 0.014590 -0.047715 -0.009208
v 0.023608 -0.035304 -0.009208
v 0.023608 0.005706 -0.009208
v 0.014590 0.018118 -0.009208
v 0.000000 0.022858 0.006218
v -0.014590 0.018118 0.006218
v -0.023608 0.005706 0.006218
v -0.023608 -0.035304 0.006218
v -0.014590 -0.047715 0.006218
v 0.000000 -0.052456 0.006218
v 0.014590 -0.047715 0.006218
v 0.023608 -0.035304 0.006218
v 0.023608 0.005706 0.006218
v 0.014590 0.018118 0.006218
vt 0.000000 0.000000
vt 0.000000 0.000000
vt 0.000000 0.000000
vt 0.000000 0.000000
vt 0.000000 0.000000
vt 0.000000 0.000000
vt 0.000000 0.000000
vt 0.000000 0.000000
vt 0.000000 0.000000
vt 0.000000 0.000000
vt 0.000000 0.000000
vt 0.000000 0.000000
vt 0.000000 0.000000
vt 0.000000 0.000000
vt 0.000000 0.000000
vt 0.000000 0.000000
vt 0.000000 0.000000
vt 0.000000 0.000000
vt 0.000000 0.000000
vt 0.000000 0.000000
vt 0.000000 0.000000
vt 0.000000 0.000000
vt 0.000000 0.000000
vt 0.000000 0.000000
vt 0.000000 0.000000
vt 0.000000 0.000000
vt 0.000000 0.000000
vt 0.000000 0.000000
vt 0.000000 0.000000
vt 0.000000 0.000000
vt 0.000000 0.000000
vt 0.000000 0.000000
vt 0.000000 0.000000
vt 0.000000 0.000000
vt 0.000000 0.000000
vt 0.000000 0.000000
vt 0.000000 0.000000
vt 0.000000 0.000000
vt 0.000000 0.000000
vt 0.000000 0.000000
vn 0.8090 0.5878 0.0000
vn 0.3090 -0.9511 0.0000
vn -1.0000 0.0000 0.0000
vn 0.3090 0.9511 0.0000
vn 0.8090 -0.5878 0.0000
vn -0.8090 -0.5878 0.0000
vn -0.3090 0.9511 0.0000
vn 1.0000 0.0000 0.0000
vn -0.3090 -0.9511 0.0000
vn -0.8090 0.5878 0.0000
vn 0.0000 0.0000 1.0000
vn 0.0000 0.0000 -1.0000
usemtl Material.001
s off
f 102/210/21 111/211/21 101/212/21
f 109/213/22 98/214/22 99/215/22
f 106/216/23 95/217/23 96/218/23
f 103/219/24 102/210/24 93/220/24
f 100/221/25 109/213/25 99/215/25
f 107/222/26 96/218/26 97/223/26
f 94/224/27 103/219/27 93/220/27
f 111/211/28 100/221/28 101/212/28
f 98/214/29 107/222/29 97/223/29
f 105/225/30 94/224/30 95/217/30
f 122/226/26 131/227/26 132/228/26
f 118/229/27 129/230/27 119/231/27
f 115/232/28 126/233/28 116/234/28
f 122/226/29 123/235/29 113/236/29
f 120/237/30 129/230/30 130/238/30
f 116/234/21 127/239/21 117/240/21
f 114/241/22 123/235/22 124/242/22
f 120/237/23 131/227/23 121/243/23
f 118/229/24 127/239/24 128/244/24
f 114/241/25 125/245/25 115/232/25
f 96/218/31 115/232/31 116/234/31
f 110/246/32 131/227/32 130/238/32
f 104/247/32 123/235/32 103/219/32
f 97/223/31 116/234/31 117/240/31
f 111/211/32 132/228/32 131/227/32
f 105/225/32 124/242/32 104/247/32
f 98/214/31 117/240/31 118/229/31
f 112/248/32 123/235/32 132/228/32
f 106/216/32 125/245/32 105/225/32
f 98/214/31 119/231/31 99/215/31
f 107/222/32 126/233/32 106/216/32
f 99/215/31 120/237/31 100/221/31
f 108/249/32 127/239/32 107/222/32
f 100/221/31 121/243/31 101/212/31
f 94/224/31 113/236/31 114/241/31
f 108/249/32 129/230/32 128/244/32
f 101/212/31 122/226/31 102/210/31
f 95/217/31 114/241/31 115/232/31
f 109/213/32 130/238/32 129/230/32
f 102/210/31 113/236/31 93/220/31
f 102/210/21 112/248/21 111/211/21
f 109/213/22 108/249/22 98/214/22
f 106/216/23 105/225/23 95/217/23
f 103/219/24 112/248/24 102/210/24
f 100/221/25 110/246/25 109/213/25
f 107/222/26 106/216/26 96/218/26
f 94/224/27 104/247/27 103/219/27
f 111/211/28 110/246/28 100/221/28
f 98/214/29 108/249/29 107/222/29
f 105/225/30 104/247/30 94/224/30
f 122/226/26 121/243/26 131/227/26
f 118/229/27 128/244/27 129/230/27
f 115/232/28 125/245/28 126/233/28
f 122/226/29 132/228/29 123/235/29
f 120/237/30 119/231/30 129/230/30
f 116/234/21 126/233/21 127/239/21
f 114/241/22 113/236/22 123/235/22
f 120/237/23 130/238/23 131/227/23
f 118/229/24 117/240/24 127/239/24
f 114/241/25 124/242/25 125/245/25
f 96/218/31 95/217/31 115/232/31
f 110/246/32 111/211/32 131/227/32
f 104/247/32 124/242/32 123/235/32
f 97/223/31 96/218/31 116/234/31
f 111/211/32 112/248/32 132/228/32
f 105/225/32 125/245/32 124/242/32
f 98/214/31 97/223/31 117/240/31
f 112/248/32 103/219/32 123/235/32
f 106/216/32 126/233/32 125/245/32
f 98/214/31 118/229/31 119/231/31
f 107/222/32 127/239/32 126/233/32
f 99/215/31 119/231/31 120/237/31
f 108/249/32 128/244/32 127/239/32
f 100/221/31 120/237/31 121/243/31
f 94/224/31 93/220/31 113/236/31
f 108/249/32 109/213/32 129/230/32
f 101/212/31 121/243/31 122/226/31
f 95/217/31 94/224/31 114/241/31
f 109/213/32 110/246/32 130/238/32
f 102/210/31 122/226/31 113/236/31
o Cube_Cube.001
v -0.032093 -0.063167 0.057856
v -0.032093 -0.036884 0.057856
v -0.032093 -0.063167 -0.068943
v -0.032093 -0.043259 -0.068943
v 0.032093 -0.063167 0.057856
v 0.032093 -0.036884 0.057856
v 0.032093 -0.063167 -0.068943
v 0.032093 -0.043259 -0.068943
v -0.032093 -0.063167 -0.039201
v -0.032093 -0.030115 -0.039201
v 0.032093 -0.063167 -0.039201
v 0.032093 -0.030115 -0.039201
v -0.032093 -0.063167 0.029898
v 0.032093 -0.030115 0.029898
v -0.032093 -0.030115 0.029898
v 0.032093 -0.063167 0.029898
vt 0.375000 0.191359
vt 0.625000 0.250000
vt 0.375000 0.250000
vt 0.375000 0.500000
vt 0.375000 0.694878
vt 0.625000 0.750000
vt 0.375000 0.750000
vt 0.375000 1.000000
vt 0.125000 0.750000
vt 0.125000 0.694878
vt 0.875000 0.694878
vt 0.625000 0.694878
vt 0.875000 0.500000
vt 0.625000 0.558641
vt 0.625000 0.500000
vt 0.125000 0.558641
vt 0.125000 0.500000
vt 0.375000 0.558641
vt 0.625000 0.055122
vt 0.375000 0.055122
vt 0.625000 0.000000
vt 0.375000 0.000000
vt 0.875000 0.558641
vt 0.625000 0.191359
vt 0.625000 1.000000
vt 0.875000 0.750000
vn -1.0000 0.0000 0.0000
vn 0.0000 0.0000 -1.0000
vn 1.0000 0.0000 0.0000
vn 0.0000 0.0000 1.0000
vn 0.0000 -1.0000 0.0000
vn 0.0000 0.9719 0.2353
vn 0.0000 0.9147 -0.4042
vn 0.0000 1.0000 0.0000
usemtl Material.001
s off
f 141/250/33 136/251/33 135/252/33
f 136/251/34 139/253/34 135/252/34
f 148/254/35 138/255/35 137/256/35
f 138/255/36 133/257/36 137/256/36
f 148/254/37 133/258/37 145/259/37
f 147/260/38 138/255/38 146/261/38
f 136/262/39 144/263/39 140/264/39
f 139/253/37 141/265/37 135/266/37
f 140/264/35 143/267/35 139/253/35
f 147/268/33 141/250/33 145/269/33
f 134/270/33 145/269/33 133/271/33
f 142/272/40 146/261/40 144/263/40
f 143/267/37 145/259/37 141/265/37
f 144/263/35 148/254/35 143/267/35
f 141/250/33 142/273/33 136/251/33
f 136/251/34 140/264/34 139/253/34
f 148/254/35 146/261/35 138/255/35
f 138/255/36 134/274/36 133/257/36
f 148/254/37 137/256/37 133/258/37
f 147/260/38 134/275/38 138/255/38
f 136/262/39 142/272/39 144/263/39
f 139/253/37 143/267/37 141/265/37
f 140/264/35 144/263/35 143/267/35
f 147/268/33 142/273/33 141/250/33
f 134/270/33 147/268/33 145/269/33
f 142/272/40 147/260/40 146/261/40
f 143/267/37 148/254/37 145/259/37
f 144/263/35 146/261/35 148/254/35
o Cube.001_Cube.002
v -0.032093 -0.074209 0.623631
v -0.032093 -0.047926 0.623631
v -0.032093 -0.074209 0.496832
v -0.032093 -0.054301 0.496832
v 0.032093 -0.074209 0.623631
v 0.032093 -0.047926 0.623631
v 0.032093 -0.074209 0.496832
v 0.032093 -0.054301 0.496832
v -0.032093 -0.074209 0.526574
v -0.032093 -0.041157 0.526574
v 0.032093 -0.074209 0.526574
v 0.032093 -0.041157 0.526574
v -0.032093 -0.074209 0.595673
v 0.032093 -0.041157 0.595673
v -0.032093 -0.041157 0.595673
v 0.032093 -0.074209 0.595673
vt 0.375000 0.191359
vt 0.625000 0.250000
vt 0.375000 0.250000
vt 0.375000 0.500000
vt 0.375000 0.694878
vt 0.625000 0.750000
vt 0.375000 0.750000
vt 0.375000 1.000000
vt 0.125000 0.750000
vt 0.125000 0.694878
vt 0.875000 0.694878
vt 0.625000 0.694878
vt 0.875000 0.500000
vt 0.625000 0.558641
vt 0.625000 0.500000
vt 0.125000 0.558641
vt 0.125000 0.500000
vt 0.375000 0.558641
vt 0.625000 0.055122
vt 0.375000 0.055122
vt 0.625000 0.000000
vt 0.375000 0.000000
vt 0.875000 0.558641
vt 0.625000 0.191359
vt 0.625000 1.000000
vt 0.875000 0.750000
vn -1.0000 0.0000 0.0000
vn 0.0000 0.0000 -1.0000
vn 1.0000 0.0000 0.0000
vn 0.0000 0.0000 1.0000
vn 0.0000 -1.0000 0.0000
vn 0.0000 0.9719 0.2353
vn 0.0000 0.9147 -0.4042
vn 0.0000 1.0000 0.0000
usemtl Material.001
s off
f 157/276/41 152/277/41 151/278/41
f 152/277/42 155/279/42 151/278/42
f 164/280/43 154/281/43 153/282/43
f 154/281/44 149/283/44 153/282/44
f 164/280/45 149/284/45 161/285/45
f 163/286/46 154/281/46 162/287/46
f 152/288/47 160/289/47 156/290/47
f 155/279/45 157/291/45 151/292/45
f 156/290/43 159/293/43 155/279/43
f 163/294/41 157/276/41 161/295/41
f 150/296/41 161/295/41 149/297/41
f 158/298/48 162/287/48 160/289/48
f 159/293/45 161/285/45 157/291/45
f 160/289/43 164/280/43 159/293/43
f 157/276/41 158/299/41 152/277/41
f 152/277/42 156/290/42 155/279/42
f 164/280/43 162/287/43 154/281/43
f 154/281/44 150/300/44 149/283/44
f 164/280/45 153/282/45 149/284/45
f 163/286/46 150/301/46 154/281/46
f 152/288/47 158/298/47 160/289/47
f 155/279/45 159/293/45 157/291/45
f 156/290/43 160/289/43 159/293/43
f 163/294/41 158/299/41 157/276/41
f 150/296/41 163/294/41 161/295/41
f 158/298/48 163/286/48 162/287/48
f 159/293/45 164/280/45 161/285/45
f 160/289/43 162/287/43 164/280/43
o Cube.002_Cube.003
v -0.004065 -0.054793 0.588699
v -0.004065 -0.000556 0.588699
v -0.004065 -0.054793 0.542266
v -0.004065 -0.000556 0.542266
v 0.004065 -0.054793 0.588699
v 0.004065 -0.000556 0.588699
v 0.004065 -0.054793 0.542266
v 0.004065 -0.000556 0.542266
vt 0.625000 0.000000
vt 0.375000 0.250000
vt 0.375000 0.000000
vt 0.625000 0.250000
vt 0.375000 0.500000
vt 0.625000 0.500000
vt 0.375000 0.750000
vt 0.625000 0.750000
vt 0.375000 1.000000
vt 0.125000 0.750000
vt 0.125000 0.500000
vt 0.875000 0.500000
vt 0.625000 1.000000
vt 0.875000 0.750000
vn -1.0000 0.0000 0.0000
vn 0.0000 0.0000 -1.0000
vn 1.0000 0.0000 0.0000
vn 0.0000 0.0000 1.0000
vn 0.0000 -1.0000 0.0000
vn 0.0000 1.0000 0.0000
usemtl Material.001
s off
f 166/302/49 167/303/49 165/304/49
f 168/305/50 171/306/50 167/303/50
f 172/307/51 169/308/51 171/306/51
f 170/309/52 165/310/52 169/308/52
f 171/306/53 165/311/53 167/312/53
f 168/313/54 170/309/54 172/307/54
f 166/302/49 168/305/49 167/303/49
f 168/305/50 172/307/50 171/306/50
f 172/307/51 170/309/51 169/308/51
f 170/309/52 166/314/52 165/310/52
f 171/306/53 169/308/53 165/311/53
f 168/313/54 166/315/54 170/309/54
