# Blender v2.92.0 OBJ File: 'Rifle.blend'
# www.blender.org
mtllib Rifle.mtl
o Pistol_Cube
v -0.048492 -0.116697 -0.048369
v -0.048492 -0.238654 -0.042344
v 0.048492 -0.116697 -0.048369
v 0.048492 -0.238654 -0.042344
v -0.048492 -0.116697 0.628938
v -0.048492 -0.267046 0.597347
v 0.048492 -0.116697 0.628938
v 0.048492 -0.267046 0.597347
v -0.048492 -0.267046 0.082444
v 0.048492 -0.116697 0.114035
v 0.048492 -0.267046 0.082444
v -0.048492 -0.116697 0.114035
v 0.048492 -0.580338 -0.012484
v 0.048492 -0.580338 -0.175213
v -0.048492 -0.580338 -0.175213
v -0.048492 -0.580338 -0.012484
v -0.048492 -0.267046 0.397248
v 0.048492 -0.116697 0.428839
v 0.048492 -0.267046 0.397248
v -0.048492 -0.116697 0.428839
v -0.030932 -0.419018 0.582730
v 0.030932 -0.419018 0.582730
v -0.030932 -0.419018 0.411865
v 0.030932 -0.419018 0.411865
v -0.048492 -0.396285 0.397248
v -0.048492 -0.396285 0.597347
v 0.048492 -0.396285 0.397248
v 0.048492 -0.396285 0.597347
v -0.048492 -0.419018 0.023693
v 0.048492 -0.419018 0.023693
v -0.048492 -0.396285 0.023693
v 0.048492 -0.396285 0.023693
v 0.048492 -0.267046 0.249140
v -0.048492 -0.116697 0.280731
v -0.048492 -0.267046 0.249140
v 0.048492 -0.116697 0.280731
v 0.048492 -0.267046 0.214851
v -0.048492 -0.116697 0.246442
v -0.048492 -0.267046 0.214851
v 0.048492 -0.116697 0.246442
v -0.048492 -0.368057 0.185101
v -0.048492 -0.368057 0.219390
v 0.048492 -0.368057 0.219390
v 0.048492 -0.368057 0.185101
v -0.048492 -0.419018 0.597347
v 0.048492 -0.419018 0.597347
v -0.048492 -0.419018 0.397248
v 0.048492 -0.419018 0.397248
v -0.030932 -0.781758 0.582730
v 0.030932 -0.781758 0.582730
v -0.030932 -0.781758 0.411865
v 0.030932 -0.781758 0.411865
v -0.016856 -0.190075 1.501840
v 0.016856 -0.190075 1.501840
v 0.016856 -0.159108 1.517973
v -0.016856 -0.159108 1.517973
v -0.048492 -0.116697 -0.442790
v -0.048492 -0.371028 -0.456966
v 0.048492 -0.116697 -0.442790
v 0.048492 -0.371028 -0.456966
v -0.048492 -0.237263 1.494111
v 0.048492 -0.237263 1.494111
v 0.048492 -0.144272 1.525702
v -0.048492 -0.144272 1.525702
v -0.016856 -0.190075 1.858905
v 0.016856 -0.190075 1.858905
v 0.016856 -0.159108 1.875038
v -0.016856 -0.159108 1.875038
v -0.048492 -0.267046 0.560965
v 0.048492 -0.116697 0.592556
v 0.048492 -0.267046 0.560965
v -0.048492 -0.116697 0.592556
v -0.048492 -0.419018 0.560965
v 0.048492 -0.419018 0.560965
v 0.048492 -0.396285 0.560965
v -0.048492 -0.396285 0.560965
v -0.030932 -0.419018 0.550226
v 0.030932 -0.419018 0.550226
v -0.030932 -0.781758 0.550226
v 0.030932 -0.781758 0.550226
v 0.048492 -0.248767 0.002105
v -0.048492 -0.116697 0.009478
v -0.048492 -0.248767 0.002105
v 0.048492 -0.116697 0.009478
v 0.048492 -0.580338 -0.117250
v -0.048492 -0.580338 -0.117250
v 0.048492 -0.057033 0.592556
v 0.048492 -0.057033 0.628938
v -0.048492 -0.057033 -0.048369
v 0.048492 -0.057033 -0.048369
v -0.048492 -0.057033 0.628938
v -0.048492 -0.057033 0.009478
v -0.048492 -0.057033 0.592556
v 0.048492 -0.057033 0.009478
v 0.048492 -0.024645 0.592556
v -0.048492 -0.024645 0.009478
v -0.048492 -0.024645 0.592556
v 0.048492 -0.024645 0.009478
v -0.048492 -0.142520 1.468711
v 0.048492 -0.142520 1.468711
v -0.048492 -0.239156 1.437120
v 0.048492 -0.239156 1.437120
v 0.048492 -0.141579 1.438111
v 0.048492 -0.240172 1.406520
v -0.048492 -0.141579 1.438111
v -0.048492 -0.240172 1.406520
v -0.036479 -0.142520 1.468711
v -0.036479 -0.141579 1.438111
v 0.036479 -0.142520 1.468711
v 0.036479 -0.141579 1.438111
v 0.049864 0.007884 1.468711
v 0.049864 0.008825 1.438111
v -0.049864 0.008825 1.438111
v -0.049864 0.007884 1.468711
v -0.044664 0.007884 1.468711
v -0.044664 0.008825 1.438111
v -0.018239 -0.142520 1.468711
v -0.018239 -0.141579 1.438111
v 0.044665 0.007884 1.468711
v 0.044665 0.008825 1.438111
v 0.018239 -0.142520 1.468711
v 0.018239 -0.141579 1.438111
v -0.002600 -0.000853 1.468711
v -0.002600 0.000088 1.438111
v -0.009120 -0.142520 1.468711
v -0.009120 -0.141579 1.438111
v 0.002600 -0.000853 1.468711
v 0.002600 0.000088 1.438111
v 0.009120 -0.142520 1.468711
v 0.009120 -0.141579 1.438111
v -0.036479 -0.059546 1.468711
v -0.036479 -0.058605 1.438111
v 0.036479 -0.058605 1.438111
v 0.036479 -0.059546 1.468711
v -0.018239 -0.059546 1.468711
v -0.018239 -0.058605 1.438111
v 0.018239 -0.058605 1.438111
v 0.018239 -0.059546 1.468711
v -0.009120 -0.058605 1.438111
v -0.009120 -0.059546 1.468711
v 0.009120 -0.059546 1.468711
v 0.009120 -0.058605 1.438111
v -0.048492 -0.004229 0.592556
v 0.048492 -0.004229 0.592556
v -0.048492 -0.004229 0.009478
v 0.048492 -0.004229 0.009478
v 0.048492 0.016435 0.592556
v 0.036369 0.016435 0.592556
v -0.036369 -0.018202 0.592556
v -0.036369 -0.018202 0.009478
v 0.036369 -0.018202 0.592556
v 0.036369 -0.018202 0.009478
v 0.036369 0.016435 0.009478
v 0.048492 0.016435 0.009478
v -0.048492 0.016435 0.592556
v -0.048492 0.016435 0.009478
v -0.036369 0.016435 0.592556
v -0.036369 0.016435 0.009478
vt 0.809471 0.761236
vt 0.768771 0.800506
vt 0.768771 0.761236
vt 0.399198 0.455619
vt 0.473639 0.470093
vt 0.469567 0.487977
vt 0.702743 0.022048
vt 0.698916 0.022048
vt 0.686220 0.000000
vt 0.108390 0.218632
vt 0.267962 0.143566
vt 0.118337 0.239350
vt 0.767620 0.547613
vt 0.726920 0.696135
vt 0.726920 0.547613
vt 0.054242 0.257757
vt 0.151136 0.341883
vt 0.065946 0.309154
vt 0.136315 0.276796
vt 0.767620 0.693938
vt 0.808320 0.627199
vt 0.808320 0.693938
vt 0.333931 0.742243
vt 0.416003 0.723204
vt 0.398025 0.760650
vt 0.645520 0.656963
vt 0.686220 0.696335
vt 0.645520 0.696335
vt 0.686220 0.636078
vt 0.726920 0.665295
vt 0.686220 0.665295
vt 0.559378 0.804935
vt 0.547651 0.856434
vt 0.726920 0.547613
vt 0.767620 0.385229
vt 0.767620 0.547613
vt 0.726920 0.385229
vt 0.767620 0.210340
vt 0.767620 0.385229
vt 0.235080 0.417078
vt 0.264580 0.495012
vt 0.253406 0.497557
vt 0.189878 0.512023
vt 0.101183 0.463902
vt 0.171552 0.431544
vt 0.364294 0.608903
vt 0.451241 0.568456
vt 0.434663 0.641261
vt 0.645520 0.538421
vt 0.686220 0.594192
vt 0.645520 0.594192
vt 0.559378 0.635188
vt 0.575764 0.452317
vt 0.575764 0.635188
vt 0.525943 0.585466
vt 0.472955 0.766550
vt 0.514769 0.582922
vt 0.537167 0.484559
vt 0.544269 0.504988
vt 0.533095 0.502443
vt 0.686220 0.729487
vt 0.726920 0.718102
vt 0.726920 0.729487
vt 0.686220 0.794216
vt 0.726920 0.794216
vt 0.809471 0.696135
vt 0.768771 0.761236
vt 0.768771 0.696135
vt 0.808320 0.627199
vt 0.819771 0.667899
vt 0.808320 0.667899
vt 0.204441 0.230906
vt 0.246254 0.414534
vt 0.726920 0.535218
vt 0.686220 0.346928
vt 0.726920 0.346928
vt 0.559378 0.775854
vt 0.600078 0.635189
vt 0.600078 0.775854
vt 0.645520 0.607104
vt 0.686220 0.607104
vt 0.360456 0.625759
vt 0.430824 0.658116
vt 0.767620 0.364396
vt 0.808320 0.439050
vt 0.767620 0.439050
vt 0.084605 0.391097
vt 0.154974 0.358739
vt 0.345635 0.690846
vt 0.686220 0.656963
vt 0.201296 0.332808
vt 0.080767 0.374241
vt 0.798844 0.614206
vt 0.816127 0.573506
vt 0.816127 0.614206
vt 0.559378 0.827356
vt 0.600078 0.775854
vt 0.600078 0.827356
vt 0.480984 0.667192
vt 0.477146 0.684047
vt 0.726920 0.824203
vt 0.767620 0.771897
vt 0.767620 0.824203
vt 0.719551 0.628711
vt 0.686220 0.636078
vt 0.693589 0.628711
vt 0.686220 0.617740
vt 0.693589 0.612327
vt 0.719551 0.542586
vt 0.726920 0.617740
vt 0.719551 0.612327
vt 0.693589 0.542586
vt 0.819543 0.196362
vt 0.793581 0.266103
vt 0.793581 0.196362
vt 0.767620 0.364396
vt 0.793581 0.182720
vt 0.793581 0.364396
vt 0.767620 0.182720
vt 0.793581 0.000000
vt 0.793581 0.182720
vt 0.686220 0.000000
vt 0.616464 0.182871
vt 0.616464 0.000000
vt 0.812991 0.573506
vt 0.798844 0.439050
vt 0.812991 0.439050
vt 0.230274 0.972181
vt 0.279689 0.974062
vt 0.237515 1.000000
vt 0.509963 0.027819
vt 0.559378 0.025938
vt 0.553929 0.054165
vt 0.600078 0.028746
vt 0.559378 0.000000
vt 0.600078 0.000000
vt 0.640778 0.763596
vt 0.600078 0.635188
vt 0.640778 0.635188
vt 0.388079 0.781368
vt 0.283307 0.964564
vt 0.327456 0.770679
vt 0.003618 0.035436
vt 0.127049 0.000000
vt 0.726920 0.210340
vt 0.767620 0.000000
vt 0.767620 0.210340
vt 0.806858 0.290182
vt 0.834282 0.266103
vt 0.821005 0.290182
vt 0.834282 0.314498
vt 0.821005 0.306622
vt 0.793581 0.314498
vt 0.793581 0.266103
vt 0.806858 0.306622
vt 0.614225 0.443432
vt 0.600078 0.426991
vt 0.614225 0.426991
vt 0.783232 0.447183
vt 0.767620 0.619065
vt 0.767620 0.439050
vt 0.798844 0.619065
vt 0.783232 0.447183
vt 0.807729 0.000000
vt 0.793582 0.179978
vt 0.793581 0.000000
vt 0.600078 0.182871
vt 0.600078 0.000000
vt 0.793581 0.179978
vt 0.819543 0.179978
vt 0.726920 0.636078
vt 0.686220 0.535218
vt 0.257478 0.515441
vt 0.193950 0.529907
vt 0.645520 0.452317
vt 0.645520 0.635188
vt 0.119509 0.544380
vt 0.268652 0.512896
vt 0.380872 0.536098
vt 0.645520 0.476771
vt 0.686220 0.538421
vt 0.541162 0.884927
vt 0.726920 0.718102
vt 0.686220 0.718102
vt 0.832628 0.355198
vt 0.793581 0.314498
vt 0.832628 0.314498
vt 0.279689 0.195065
vt 0.360876 0.446893
vt 0.344955 0.443268
vt 0.364948 0.429009
vt 0.295609 0.733517
vt 0.289134 0.761953
vt 0.279689 0.729892
vt 0.123581 0.562265
vt 0.081187 0.553107
vt 0.640778 0.763596
vt 0.600078 0.802866
vt 0.600078 0.763596
vt 0.685069 0.771664
vt 0.644369 0.810710
vt 0.644369 0.771664
vt 0.009445 0.238047
vt 0.047767 0.229321
vt 0.403270 0.437735
vt 0.600078 0.207428
vt 0.640778 0.182871
vt 0.640778 0.207428
vt 0.768771 0.818029
vt 0.809471 0.800506
vt 0.809471 0.818029
vt 0.085259 0.570991
vt 0.065267 0.556732
vt 0.685069 0.810710
vt 0.644369 0.826931
vt 0.640778 0.802866
vt 0.600078 0.819181
vt 0.015920 0.266483
vt 0.000000 0.270108
vt 0.686220 0.182871
vt 0.645520 0.476772
vt 0.645520 0.182871
vt 0.685069 0.826931
vt 0.679981 0.826931
vt 0.559378 0.044180
vt 0.600078 0.044180
vt 0.506075 0.042755
vt 0.551003 0.069320
vt 0.226387 0.957245
vt 0.274240 0.945835
vt 0.714224 0.033886
vt 0.726920 0.346928
vt 0.710397 0.033886
vt 0.271314 0.930680
vt 0.559378 0.452317
vt 0.600078 0.452317
vt 0.672948 0.730107
vt 0.680603 0.771664
vt 0.672948 0.771664
vt 0.726920 0.033886
vt 0.721878 0.022048
vt 0.726920 0.022048
vt 0.686220 0.022048
vt 0.691261 0.033886
vt 0.686220 0.033886
vt 0.618052 0.450667
vt 0.620234 0.438829
vt 0.620234 0.450667
vt 0.823156 0.042305
vt 0.807729 0.075781
vt 0.807729 0.041830
vt 0.823156 0.110207
vt 0.807729 0.076730
vt 0.823156 0.076256
vt 0.755500 0.771897
vt 0.763154 0.730102
vt 0.763154 0.771897
vt 0.746754 0.700537
vt 0.751673 0.730102
vt 0.744018 0.730102
vt 0.620234 0.438829
vt 0.622416 0.450667
vt 0.620234 0.450667
vt 0.661467 0.771664
vt 0.669121 0.730107
vt 0.669121 0.771664
vt 0.732537 0.730102
vt 0.729102 0.696135
vt 0.740191 0.730102
vt 0.701646 0.794690
vt 0.686220 0.823826
vt 0.686220 0.794216
vt 0.614225 0.450667
vt 0.618052 0.438829
vt 0.618052 0.450667
vt 0.649986 0.730107
vt 0.646551 0.696335
vt 0.657640 0.730107
vt 0.618052 0.438829
vt 0.620234 0.426991
vt 0.620234 0.438829
vt 0.701647 0.794690
vt 0.717073 0.823826
vt 0.701647 0.824301
vt 0.614225 0.438829
vt 0.618052 0.426991
vt 0.618052 0.438829
vt 0.808320 0.433030
vt 0.823747 0.399423
vt 0.823747 0.433503
vt 0.661467 0.730107
vt 0.666385 0.700711
vt 0.657640 0.771664
vt 0.649986 0.771664
vt 0.766589 0.696135
vt 0.768771 0.696135
vt 0.732537 0.771897
vt 0.740191 0.771897
vt 0.751673 0.771897
vt 0.755500 0.730102
vt 0.744018 0.771897
vt 0.823156 0.152037
vt 0.807729 0.110681
vt 0.823156 0.000475
vt 0.807729 0.000000
vt 0.808320 0.364869
vt 0.823747 0.398476
vt 0.808320 0.398950
vt 0.680603 0.730107
vt 0.684038 0.696335
vt 0.686220 0.696335
vt 0.279689 0.729892
vt 0.344955 0.443268
vt 0.344955 0.443268
vt 0.640778 0.819181
vt 0.635690 0.819181
vt 0.000000 0.270108
vt 0.605165 0.207428
vt 0.600078 0.426991
vt 0.600078 0.207428
vt 0.605165 0.426991
vt 0.605165 0.207428
vt 0.640778 0.207428
vt 0.635690 0.426991
vt 0.635690 0.207428
vt 0.635690 0.207428
vt 0.640778 0.819181
vt 0.635690 0.819181
vt 0.640778 0.819181
vt 0.600078 0.819181
vt 0.605165 0.819181
vt 0.605165 0.819181
vt 0.635690 0.426991
vt 0.065267 0.556732
vt 0.000000 0.270108
vt 0.644369 0.826931
vt 0.649456 0.826931
vt 0.649456 0.826931
vt 0.685069 0.826931
vt 0.679981 0.826931
vt 0.685069 0.826931
vt 0.726920 0.000000
vt 0.714224 0.022048
vt 0.710397 0.022048
vt 0.691261 0.022048
vt 0.261474 0.115073
vt 0.767620 0.696135
vt 0.767620 0.627199
vt 0.726920 0.636078
vt 0.726920 0.385229
vt 0.726920 0.210340
vt 0.559378 0.452317
vt 0.484129 0.769094
vt 0.548341 0.487103
vt 0.686220 0.718102
vt 0.809471 0.761236
vt 0.819771 0.627199
vt 0.193266 0.233450
vt 0.559378 0.635189
vt 0.808320 0.364396
vt 0.197457 0.315953
vt 0.798844 0.573506
vt 0.559378 0.775854
vt 0.726920 0.771897
vt 0.819543 0.266103
vt 0.767620 0.182720
vt 0.767620 0.000000
vt 0.686220 0.182871
vt 0.798844 0.573506
vt 0.517204 0.000000
vt 0.559378 0.028746
vt 0.600078 0.763596
vt 0.406737 1.000000
vt 0.726920 0.000000
vt 0.600078 0.443432
vt 0.783232 0.627199
vt 0.783232 0.627199
vt 0.807729 0.179978
vt 0.686220 0.476771
vt 0.793581 0.355198
vt 0.600078 0.182871
vt 0.686220 0.476772
vt 0.721878 0.033886
vt 0.686220 0.346928
vt 0.698916 0.033886
vt 0.702743 0.033886
vt 0.618052 0.438829
vt 0.823156 0.076256
vt 0.748936 0.700537
vt 0.622416 0.438829
vt 0.726920 0.696135
vt 0.701646 0.824300
vt 0.614225 0.438829
vt 0.644369 0.696335
vt 0.618052 0.426991
vt 0.717073 0.794216
vt 0.614225 0.426991
vt 0.808320 0.398950
vt 0.664203 0.700711
vt 0.807729 0.152511
vt 0.823747 0.364396
vt 0.279689 0.729892
vt 0.605165 0.426991
vt 0.640778 0.426991
vt 0.600078 0.819181
vt 0.065267 0.556732
vt 0.644369 0.826931
vn 0.0000 0.0000 -1.0000
vn 1.0000 0.0000 0.0000
vn 0.0000 0.9995 0.0307
vn -1.0000 0.0000 0.0000
vn 0.0000 1.0000 0.0000
vn 0.0000 -1.0000 -0.0000
vn 0.0000 -0.2900 0.9570
vn 0.0000 0.3624 -0.9320
vn 0.0000 0.0000 1.0000
vn 0.0000 0.2825 -0.9593
vn 0.0000 -0.2825 0.9593
vn 0.0000 -0.9994 0.0332
vn 0.0000 0.0557 -0.9985
vn 0.0000 -0.9526 0.3041
vn 0.0000 -0.1616 0.9868
vn -0.0000 -0.4620 0.8869
vn 0.2411 -0.3122 0.9189
vn 0.0000 0.7469 0.6649
vn 0.0000 0.8726 -0.4885
vn 0.9808 -0.1947 -0.0060
vn -0.9808 -0.1947 -0.0060
vn 0.9939 0.1104 0.0034
vn -0.9939 0.1104 0.0034
vn 0.9310 0.3648 0.0112
vn -0.9310 0.3648 0.0112
vn 0.0000 -0.1616 0.9869
vn -0.2411 -0.3122 0.9189
usemtl Material
s off
f 1/1/1 90/2/1 3/3/1
f 70/4/2 8/5/2 71/6/2
f 125/7/3 117/8/3 64/9/3
f 2/10/4 86/11/4 83/12/4
f 3/13/5 57/14/5 1/15/5
f 82/16/4 2/10/4 83/12/4
f 39/17/4 12/18/4 9/19/4
f 39/20/6 11/21/6 37/22/6
f 84/23/2 11/24/2 81/25/2
f 12/26/5 84/27/5 82/28/5
f 15/29/6 85/30/6 86/31/6
f 81/25/2 13/32/2 85/33/2
f 9/34/7 13/35/7 11/36/7
f 4/37/8 15/38/8 2/39/8
f 25/40/4 73/41/4 76/42/4
f 69/43/4 20/44/4 17/45/4
f 36/46/2 19/47/2 33/48/2
f 20/49/5 36/50/5 34/51/5
f 22/52/2 80/53/2 78/54/2
f 48/55/2 32/56/2 27/57/2
f 28/58/2 74/59/2 75/60/2
f 26/61/9 46/62/9 28/63/9
f 6/64/9 28/63/9 8/65/9
f 8/5/2 75/60/2 71/6/2
f 19/66/1 25/67/1 17/68/1
f 17/45/4 76/42/4 69/43/4
f 32/69/1 29/70/1 31/71/1
f 25/40/4 29/72/4 47/73/4
f 48/74/6 29/75/6 30/76/6
f 27/77/5 31/78/5 25/79/5
f 38/80/5 36/50/5 40/81/5
f 40/82/2 33/48/2 37/83/2
f 35/84/6 19/85/6 17/86/6
f 17/45/4 34/87/4 35/88/4
f 10/89/2 37/83/2 11/24/2
f 38/80/5 10/90/5 12/26/5
f 39/17/4 42/91/4 35/88/4
f 35/88/4 38/92/4 39/17/4
f 41/93/6 43/94/6 42/95/6
f 37/96/10 41/97/10 39/98/10
f 37/83/2 43/99/2 44/100/2
f 35/101/11 43/102/11 33/103/11
f 22/104/6 45/105/6 21/106/6
f 21/106/6 73/107/6 77/108/6
f 24/109/6 74/110/6 78/111/6
f 23/112/6 48/74/6 24/109/6
f 79/113/6 52/114/6 80/115/6
f 21/116/9 50/117/9 22/118/9
f 24/119/1 51/120/1 23/121/1
f 23/122/4 79/123/4 77/124/4
f 55/125/5 68/126/5 67/127/5
f 99/128/4 61/129/4 64/130/4
f 100/131/2 62/132/2 102/133/2
f 101/134/12 62/135/12 61/136/12
f 57/137/13 60/138/13 58/139/13
f 4/140/2 59/141/2 3/142/2
f 2/10/4 57/143/4 58/144/4
f 2/145/14 60/146/14 4/147/14
f 53/148/15 62/149/15 54/150/15
f 54/150/16 63/151/16 55/152/16
f 53/148/17 64/153/17 61/154/17
f 56/155/16 63/151/16 64/153/16
f 67/156/16 65/157/16 66/158/16
f 55/159/2 66/160/2 54/161/2
f 56/162/4 65/163/4 68/126/4
f 54/164/6 65/165/6 53/166/6
f 77/124/4 49/167/4 21/168/4
f 79/113/6 50/169/6 49/170/6
f 22/104/6 74/110/6 46/171/6
f 23/112/6 73/107/6 47/172/6
f 69/43/4 26/173/4 6/174/4
f 71/6/2 27/57/2 19/47/2
f 75/60/2 48/55/2 27/57/2
f 78/54/2 52/175/2 24/176/2
f 6/174/4 72/177/4 69/43/4
f 76/42/4 45/178/4 26/173/4
f 18/179/2 71/6/2 19/47/2
f 72/180/5 18/181/5 20/49/5
f 4/140/2 85/33/2 14/182/2
f 86/31/6 13/183/6 16/184/6
f 7/185/9 91/186/9 5/187/9
f 4/140/2 84/23/2 81/25/2
f 9/19/4 82/16/4 83/12/4
f 83/12/4 16/188/4 9/19/4
f 87/189/2 95/190/2 88/191/2
f 94/192/2 90/193/2 98/194/2
f 3/142/2 94/192/2 84/23/2
f 5/195/4 93/196/4 72/177/4
f 72/197/1 87/198/1 70/199/1
f 84/200/9 92/201/9 82/202/9
f 82/16/4 89/203/4 1/204/4
f 70/4/2 88/191/2 7/205/2
f 97/206/18 88/207/18 95/208/18
f 98/209/19 89/210/19 96/211/19
f 93/196/4 91/212/4 97/213/4
f 94/214/9 96/215/9 92/201/9
f 93/216/1 95/217/1 87/198/1
f 92/218/4 96/219/4 89/203/4
f 94/220/6 93/221/6 92/222/6
f 87/189/2 98/194/2 95/190/2
f 98/223/1 96/215/1 152/224/1
f 92/218/4 97/213/4 96/219/4
f 104/225/12 101/134/12 106/226/12
f 103/227/2 102/133/2 104/228/2
f 105/229/4 101/230/4 99/128/4
f 122/231/3 7/232/3 130/233/3
f 5/195/4 106/234/4 105/229/4
f 7/205/2 104/228/2 8/5/2
f 8/235/12 106/226/12 6/236/12
f 135/237/9 107/238/9 117/239/9
f 103/240/3 109/241/3 100/242/3
f 99/243/3 108/244/3 105/245/3
f 113/246/3 115/247/3 116/248/3
f 133/249/20 111/250/20 134/251/20
f 132/252/21 114/253/21 113/254/21
f 122/255/1 133/256/1 110/257/1
f 124/258/1 142/259/1 139/260/1
f 123/261/3 128/262/3 124/263/3
f 129/264/9 140/265/9 125/266/9
f 132/267/1 116/268/1 136/269/1
f 142/270/22 127/271/22 141/272/22
f 142/273/3 138/274/3 137/275/3
f 134/276/9 119/277/9 138/278/9
f 120/279/3 111/280/3 112/281/3
f 123/282/23 139/283/23 140/284/23
f 136/285/3 140/286/3 139/287/3
f 115/288/24 136/289/24 116/290/24
f 141/291/9 123/292/9 140/265/9
f 134/276/9 121/293/9 109/294/9
f 133/256/1 120/295/1 112/296/1
f 108/297/1 136/269/1 118/298/1
f 130/299/1 137/300/1 122/255/1
f 126/301/1 142/259/1 130/299/1
f 125/266/9 135/237/9 117/239/9
f 121/293/9 141/291/9 129/264/9
f 118/298/1 139/260/1 126/301/1
f 108/302/4 131/303/4 132/252/4
f 110/304/2 134/251/2 109/305/2
f 119/306/25 137/307/25 138/308/25
f 131/309/9 115/310/9 114/311/9
f 146/312/2 147/313/2 144/314/2
f 97/315/9 95/217/9 149/316/9
f 98/194/2 144/314/2 95/190/2
f 97/213/4 145/317/4 96/219/4
f 157/318/5 156/319/5 155/320/5
f 150/321/2 157/318/2 149/322/2
f 147/323/5 153/324/5 148/325/5
f 151/326/5 150/321/5 149/322/5
f 143/327/9 157/328/9 155/329/9
f 144/330/9 148/331/9 151/332/9
f 151/326/4 153/324/4 152/333/4
f 143/334/4 156/335/4 145/317/4
f 145/336/1 158/337/1 150/338/1
f 146/339/1 153/340/1 154/341/1
f 1/1/1 89/210/1 90/2/1
f 70/4/2 7/205/2 8/5/2
f 63/342/3 100/242/3 109/241/3
f 121/343/3 129/344/3 63/342/3
f 129/344/3 125/7/3 63/342/3
f 63/342/3 109/241/3 121/343/3
f 99/243/3 64/9/3 107/345/3
f 64/9/3 63/342/3 125/7/3
f 107/345/3 64/9/3 117/8/3
f 2/10/4 15/346/4 86/11/4
f 3/13/5 59/347/5 57/14/5
f 82/16/4 1/204/4 2/10/4
f 39/17/4 38/92/4 12/18/4
f 39/20/6 9/348/6 11/21/6
f 84/23/2 10/89/2 11/24/2
f 12/26/5 10/90/5 84/27/5
f 15/29/6 14/349/6 85/30/6
f 81/25/2 11/24/2 13/32/2
f 9/34/7 16/350/7 13/35/7
f 4/37/8 14/351/8 15/38/8
f 25/40/4 47/73/4 73/41/4
f 69/43/4 72/177/4 20/44/4
f 36/46/2 18/179/2 19/47/2
f 20/49/5 18/181/5 36/50/5
f 22/52/2 50/352/2 80/53/2
f 48/55/2 30/353/2 32/56/2
f 28/58/2 46/354/2 74/59/2
f 26/61/9 45/355/9 46/62/9
f 6/64/9 26/61/9 28/63/9
f 8/5/2 28/58/2 75/60/2
f 19/66/1 27/356/1 25/67/1
f 17/45/4 25/40/4 76/42/4
f 32/69/1 30/357/1 29/70/1
f 25/40/4 31/358/4 29/72/4
f 48/74/6 47/172/6 29/75/6
f 27/77/5 32/359/5 31/78/5
f 38/80/5 34/51/5 36/50/5
f 40/82/2 36/46/2 33/48/2
f 35/84/6 33/360/6 19/85/6
f 17/45/4 20/44/4 34/87/4
f 10/89/2 40/82/2 37/83/2
f 38/80/5 40/81/5 10/90/5
f 39/17/4 41/361/4 42/91/4
f 35/88/4 34/87/4 38/92/4
f 41/93/6 44/362/6 43/94/6
f 37/96/10 44/363/10 41/97/10
f 37/83/2 33/48/2 43/99/2
f 35/101/11 42/364/11 43/102/11
f 22/104/6 46/171/6 45/105/6
f 21/106/6 45/105/6 73/107/6
f 24/109/6 48/74/6 74/110/6
f 23/112/6 47/172/6 48/74/6
f 79/113/6 51/365/6 52/114/6
f 21/116/9 49/366/9 50/117/9
f 24/119/1 52/367/1 51/120/1
f 23/122/4 51/368/4 79/123/4
f 55/125/5 56/369/5 68/126/5
f 99/128/4 101/230/4 61/129/4
f 100/131/2 63/370/2 62/132/2
f 101/134/12 102/371/12 62/135/12
f 57/137/13 59/372/13 60/138/13
f 4/140/2 60/373/2 59/141/2
f 2/10/4 1/204/4 57/143/4
f 2/145/14 58/374/14 60/146/14
f 53/148/26 61/154/26 62/149/26
f 54/150/27 62/149/27 63/151/27
f 53/148/16 56/155/16 64/153/16
f 56/155/16 55/152/16 63/151/16
f 67/156/16 68/375/16 65/157/16
f 55/159/2 67/376/2 66/160/2
f 56/162/4 53/377/4 65/163/4
f 54/164/6 66/378/6 65/165/6
f 77/124/4 79/123/4 49/167/4
f 79/113/6 80/115/6 50/169/6
f 22/104/6 78/111/6 74/110/6
f 23/112/6 77/108/6 73/107/6
f 69/43/4 76/42/4 26/173/4
f 71/6/2 75/60/2 27/57/2
f 75/60/2 74/59/2 48/55/2
f 78/54/2 80/53/2 52/175/2
f 6/174/4 5/195/4 72/177/4
f 76/42/4 73/41/4 45/178/4
f 18/179/2 70/4/2 71/6/2
f 72/180/5 70/379/5 18/181/5
f 4/140/2 81/25/2 85/33/2
f 86/31/6 85/30/6 13/183/6
f 7/185/9 88/380/9 91/186/9
f 4/140/2 3/142/2 84/23/2
f 9/19/4 12/18/4 82/16/4
f 83/12/4 86/11/4 16/188/4
f 3/142/2 90/193/2 94/192/2
f 5/195/4 91/212/4 93/196/4
f 72/197/1 93/216/1 87/198/1
f 84/200/9 94/214/9 92/201/9
f 82/16/4 92/218/4 89/203/4
f 70/4/2 87/189/2 88/191/2
f 97/206/18 91/381/18 88/207/18
f 98/209/19 90/2/19 89/210/19
f 94/214/9 98/223/9 96/215/9
f 93/216/1 97/315/1 95/217/1
f 94/220/6 87/382/6 93/221/6
f 87/189/2 94/192/2 98/194/2
f 96/215/1 145/336/1 150/338/1
f 152/224/1 146/339/1 98/223/1
f 96/215/1 150/338/1 152/224/1
f 92/218/4 93/196/4 97/213/4
f 104/225/12 102/371/12 101/134/12
f 103/227/2 100/131/2 102/133/2
f 105/229/4 106/234/4 101/230/4
f 103/240/3 7/232/3 110/383/3
f 7/232/3 5/384/3 130/233/3
f 110/383/3 7/232/3 122/231/3
f 5/384/3 105/245/3 108/244/3
f 118/385/3 126/386/3 5/384/3
f 126/386/3 130/233/3 5/384/3
f 5/384/3 108/244/3 118/385/3
f 5/195/4 6/174/4 106/234/4
f 7/205/2 103/227/2 104/228/2
f 8/235/12 104/225/12 106/226/12
f 135/237/9 131/309/9 107/238/9
f 103/240/3 110/383/3 109/241/3
f 99/243/3 107/345/3 108/244/3
f 113/246/3 114/387/3 115/247/3
f 133/249/20 112/388/20 111/250/20
f 132/252/21 131/303/21 114/253/21
f 122/255/1 137/300/1 133/256/1
f 124/258/1 128/389/1 142/259/1
f 123/261/3 127/390/3 128/262/3
f 129/264/9 141/291/9 140/265/9
f 132/267/1 113/391/1 116/268/1
f 142/270/22 128/392/22 127/271/22
f 142/273/3 141/393/3 138/274/3
f 134/276/9 111/394/9 119/277/9
f 120/279/3 119/395/3 111/280/3
f 123/282/23 124/396/23 139/283/23
f 136/285/3 135/397/3 140/286/3
f 115/288/24 135/398/24 136/289/24
f 141/291/9 127/399/9 123/292/9
f 134/276/9 138/278/9 121/293/9
f 133/256/1 137/300/1 120/295/1
f 108/297/1 132/267/1 136/269/1
f 130/299/1 142/259/1 137/300/1
f 126/301/1 139/260/1 142/259/1
f 125/266/9 140/265/9 135/237/9
f 121/293/9 138/278/9 141/291/9
f 118/298/1 136/269/1 139/260/1
f 108/302/4 107/400/4 131/303/4
f 110/304/2 133/249/2 134/251/2
f 119/306/25 120/401/25 137/307/25
f 131/309/9 135/237/9 115/310/9
f 146/312/2 154/402/2 147/313/2
f 95/217/9 144/330/9 151/332/9
f 149/316/9 143/327/9 97/315/9
f 95/217/9 151/332/9 149/316/9
f 98/194/2 146/312/2 144/314/2
f 97/213/4 143/334/4 145/317/4
f 157/318/5 158/403/5 156/319/5
f 150/321/2 158/403/2 157/318/2
f 147/323/5 154/404/5 153/324/5
f 151/326/5 152/333/5 150/321/5
f 143/327/9 149/316/9 157/328/9
f 144/330/9 147/405/9 148/331/9
f 151/326/4 148/325/4 153/324/4
f 143/334/4 155/406/4 156/335/4
f 145/336/1 156/407/1 158/337/1
f 146/339/1 152/224/1 153/340/1
