# Blender v2.92.0 OBJ File: 'Rifle.blend'
# www.blender.org
mtllib Rifle.mtl
o Pistol_Cube
v -0.048492 -0.116697 -0.048369
v -0.048492 -0.238654 -0.042344
v 0.048492 -0.116697 -0.048369
v 0.048492 -0.238654 -0.042344
v -0.048492 -0.116697 0.628938
v -0.048492 -0.267046 0.597347
v 0.048492 -0.116697 0.628938
v 0.048492 -0.267046 0.597347
v -0.048492 -0.267046 0.082444
v 0.048492 -0.116697 0.114035
v 0.048492 -0.267046 0.082444
v -0.048492 -0.116697 0.114035
v 0.048492 -0.580338 -0.012484
v 0.048492 -0.580338 -0.175213
v -0.048492 -0.580338 -0.175213
v -0.048492 -0.580338 -0.012484
v -0.048492 -0.267046 0.397248
v 0.048492 -0.116697 0.428839
v 0.048492 -0.267046 0.397248
v -0.048492 -0.116697 0.428839
v -0.030932 -0.419018 0.582730
v 0.030932 -0.419018 0.582730
v -0.030932 -0.419018 0.411865
v 0.030932 -0.419018 0.411865
v -0.048492 -0.396285 0.397248
v -0.048492 -0.396285 0.597347
v 0.048492 -0.396285 0.397248
v 0.048492 -0.396285 0.597347
v -0.048492 -0.419018 0.023693
v 0.048492 -0.419018 0.023693
v -0.048492 -0.396285 0.023693
v 0.048492 -0.396285 0.023693
v 0.048492 -0.267046 0.249140
v -0.048492 -0.116697 0.280731
v -0.048492 -0.267046 0.249140
v 0.048492 -0.116697 0.280731
v 0.048492 -0.267046 0.214851
v -0.048492 -0.116697 0.246442
v -0.048492 -0.267046 0.214851
v 0.048492 -0.116697 0.246442
v -0.048492 -0.368057 0.185101
v -0.048492 -0.368057 0.219390
v 0.048492 -0.368057 0.219390
v 0.048492 -0.368057 0.185101
v -0.048492 -0.419018 0.597347
v 0.048492 -0.419018 0.597347
v -0.048492 -0.419018 0.397248
v 0.048492 -0.419018 0.397248
v -0.030932 -0.781758 0.582730
v 0.030932 -0.781758 0.582730
v -0.030932 -0.781758 0.411865
v 0.030932 -0.781758 0.411865
v -0.016856 -0.190075 1.501840
v 0.016856 -0.190075 1.501840
v 0.016856 -0.159108 1.517973
v -0.016856 -0.159108 1.517973
v -0.048492 -0.116697 -0.442790
v -0.048492 -0.371028 -0.456966
v 0.048492 -0.116697 -0.442790
v 0.048492 -0.371028 -0.456966
v -0.048492 -0.237263 1.494111
v 0.048492 -0.237263 1.494111
v 0.048492 -0.144272 1.525702
v -0.048492 -0.144272 1.525702
v -0.016856 -0.190075 1.858905
v 0.016856 -0.190075 1.858905
v 0.016856 -0.159108 1.875038
v -0.016856 -0.159108 1.875038
v -0.048492 -0.267046 0.560965
v 0.048492 -0.116697 0.592556
v 0.048492 -0.267046 0.560965
v -0.048492 -0.116697 0.592556
v -0.048492 -0.419018 0.560965
v 0.048492 -0.419018 0.560965
v 0.048492 -0.396285 0.560965
v -0.048492 -0.396285 0.560965
v -0.030932 -0.419018 0.550226
v 0.030932 -0.419018 0.550226
v -0.030932 -0.781758 0.550226
v 0.030932 -0.781758 0.550226
v 0.048492 -0.248767 0.002105
v -0.048492 -0.116697 0.009478
v -0.048492 -0.248767 0.002105
v 0.048492 -0.116697 0.009478
v 0.048492 -0.580338 -0.117250
v -0.048492 -0.580338 -0.117250
v 0.048492 -0.057033 0.592556
v 0.048492 -0.057033 0.628938
v -0.048492 -0.057033 -0.048369
v 0.048492 -0.057033 -0.048369
v -0.048492 -0.057033 0.628938
v -0.048492 -0.057033 0.009478
v -0.048492 -0.057033 0.592556
v 0.048492 -0.057033 0.009478
v 0.048492 -0.024645 0.592556
v -0.048492 -0.024645 0.009478
v -0.048492 -0.024645 0.592556
v 0.048492 -0.024645 0.009478
v -0.048492 -0.142520 1.468711
v 0.048492 -0.142520 1.468711
v -0.048492 -0.239156 1.437120
v 0.048492 -0.239156 1.437120
v 0.048492 -0.141579 1.438111
v 0.048492 -0.240172 1.406520
v -0.048492 -0.141579 1.438111
v -0.048492 -0.240172 1.406520
v -0.036479 -0.142520 1.468711
v -0.036479 -0.141579 1.438111
v 0.036479 -0.142520 1.468711
v 0.036479 -0.141579 1.438111
v 0.049864 0.007884 1.468711
v 0.049864 0.008825 1.438111
v -0.049864 0.008825 1.438111
v -0.049864 0.007884 1.468711
v -0.044664 0.007884 1.468711
v -0.044664 0.008825 1.438111
v -0.018239 -0.142520 1.468711
v -0.018239 -0.141579 1.438111
v 0.044665 0.007884 1.468711
v 0.044665 0.008825 1.438111
v 0.018239 -0.142520 1.468711
v 0.018239 -0.141579 1.438111
v -0.002600 -0.000853 1.468711
v -0.002600 0.000088 1.438111
v -0.009120 -0.142520 1.468711
v -0.009120 -0.141579 1.438111
v 0.002600 -0.000853 1.468711
v 0.002600 0.000088 1.438111
v 0.009120 -0.142520 1.468711
v 0.009120 -0.141579 1.438111
v -0.036479 -0.059546 1.468711
v -0.036479 -0.058605 1.438111
v 0.036479 -0.058605 1.438111
v 0.036479 -0.059546 1.468711
v -0.018239 -0.059546 1.468711
v -0.018239 -0.058605 1.438111
v 0.018239 -0.058605 1.438111
v 0.018239 -0.059546 1.468711
v -0.009120 -0.058605 1.438111
v -0.009120 -0.059546 1.468711
v 0.009120 -0.059546 1.468711
v 0.009120 -0.058605 1.438111
v -0.048492 -0.004229 0.592556
v 0.048492 -0.004229 0.592556
v -0.048492 -0.004229 0.009478
v 0.048492 -0.004229 0.009478
v 0.048492 0.016435 0.592556
v 0.036369 0.016435 0.592556
v -0.036369 -0.018202 0.592556
v -0.036369 -0.018202 0.009478
v 0.036369 -0.018202 0.592556
v 0.036369 -0.018202 0.009478
v 0.036369 0.016435 0.009478
v 0.048492 0.016435 0.009478
v -0.048492 0.016435 0.592556
v -0.048492 0.016435 0.009478
v -0.036369 0.016435 0.592556
v -0.036369 0.016435 0.009478
vt 0.862921 0.361799
vt 0.814026 0.391860
vt 0.814026 0.361799
vt 0.130708 0.455620
vt 0.205149 0.470093
vt 0.201077 0.487977
vt 0.650519 0.022048
vt 0.645921 0.022048
vt 0.630669 0.000000
vt 0.410476 0.218632
vt 0.570047 0.143566
vt 0.420423 0.239350
vt 0.728460 0.293900
vt 0.679565 0.442423
vt 0.679565 0.293900
vt 0.356329 0.257757
vt 0.453222 0.341883
vt 0.368032 0.309154
vt 0.438401 0.276796
vt 0.862921 0.295060
vt 0.814026 0.361799
vt 0.814026 0.295060
vt 0.065442 0.742243
vt 0.147514 0.723204
vt 0.129536 0.760650
vt 0.802954 0.491689
vt 0.754059 0.452317
vt 0.802954 0.452317
vt 0.679564 0.428952
vt 0.630669 0.399735
vt 0.679564 0.399735
vt 0.290887 0.804934
vt 0.279160 0.856434
vt 0.728460 0.451093
vt 0.777355 0.289150
vt 0.777355 0.451093
vt 0.581774 0.809700
vt 0.630669 0.635188
vt 0.630669 0.809700
vt 0.537166 0.417078
vt 0.566666 0.495013
vt 0.555491 0.497557
vt 0.491964 0.512023
vt 0.403269 0.463902
vt 0.473638 0.431544
vt 0.095804 0.608903
vt 0.182751 0.568456
vt 0.166173 0.641261
vt 0.802954 0.610231
vt 0.754059 0.554460
vt 0.802954 0.554460
vt 0.581774 0.635188
vt 0.598161 0.452317
vt 0.598161 0.635188
vt 0.257453 0.585466
vt 0.204465 0.766550
vt 0.246279 0.582922
vt 0.268677 0.484559
vt 0.275778 0.504987
vt 0.264604 0.502443
vt 0.754059 0.683284
vt 0.802954 0.671881
vt 0.802954 0.683284
vt 0.754059 0.748113
vt 0.802954 0.748113
vt 0.581774 0.874816
vt 0.630669 0.809700
vt 0.630669 0.874816
vt 0.814026 0.210340
vt 0.825480 0.259235
vt 0.814026 0.259235
vt 0.506526 0.230906
vt 0.548340 0.414534
vt 0.728460 0.100860
vt 0.777355 0.289150
vt 0.728460 0.289150
vt 0.679565 0.635188
vt 0.630669 0.775853
vt 0.630669 0.635188
vt 0.802954 0.541548
vt 0.754059 0.541548
vt 0.091966 0.625759
vt 0.162334 0.658116
vt 0.679564 0.850507
vt 0.630669 0.775853
vt 0.679564 0.775853
vt 0.386691 0.391097
vt 0.457060 0.358739
vt 0.077145 0.690846
vt 0.754059 0.491689
vt 0.503381 0.332808
vt 0.382853 0.374241
vt 0.834143 0.871416
vt 0.851426 0.822521
vt 0.851426 0.871416
vt 0.729842 0.890448
vt 0.778738 0.839027
vt 0.778738 0.890448
vt 0.212494 0.667192
vt 0.208656 0.684047
vt 0.785248 0.869209
vt 0.834143 0.817039
vt 0.834143 0.869209
vt 0.737313 0.007368
vt 0.777355 0.000000
vt 0.768502 0.007368
vt 0.777355 0.018338
vt 0.768502 0.023751
vt 0.737313 0.093492
vt 0.728460 0.018338
vt 0.737313 0.023751
vt 0.768502 0.093492
vt 0.874901 0.196362
vt 0.843711 0.266103
vt 0.843711 0.196362
vt 0.802954 0.817039
vt 0.834143 0.635081
vt 0.834143 0.817039
vt 0.802954 0.635081
vt 0.834143 0.452317
vt 0.834143 0.635081
vt 0.754059 0.452317
vt 0.684303 0.635188
vt 0.684303 0.452317
vt 0.877703 0.134456
vt 0.860707 0.000000
vt 0.877703 0.000000
vt 0.532360 0.972181
vt 0.581774 0.974062
vt 0.539601 1.000000
vt 0.241473 0.027819
vt 0.290887 0.025938
vt 0.285438 0.054165
vt 0.630669 0.028746
vt 0.581774 0.000000
vt 0.630669 0.000000
vt 0.728460 0.763582
vt 0.679565 0.635188
vt 0.728460 0.635188
vt 0.119589 0.781368
vt 0.014817 0.964565
vt 0.058966 0.770679
vt 0.305704 0.035435
vt 0.429135 0.000000
vt 0.826250 0.000000
vt 0.777355 0.210340
vt 0.777355 0.000000
vt 0.703744 0.855311
vt 0.727805 0.888256
vt 0.703744 0.872307
vt 0.679564 0.888256
vt 0.687396 0.872307
vt 0.679565 0.839361
vt 0.727805 0.839361
vt 0.687396 0.855311
vt 0.630669 0.452317
vt 0.647017 0.435322
vt 0.647017 0.452317
vt 0.867216 0.460451
vt 0.851604 0.632333
vt 0.851604 0.452317
vt 0.851604 0.648600
vt 0.867216 0.820481
vt 0.851605 0.828615
vt 0.843711 0.179978
vt 0.860707 0.000000
vt 0.860707 0.179978
vt 0.667917 0.635188
vt 0.667917 0.452317
vt 0.843711 0.179978
vt 0.874901 0.179978
vt 0.728460 0.000000
vt 0.777355 0.100860
vt 0.559564 0.515441
vt 0.496036 0.529907
vt 0.667916 0.452317
vt 0.667916 0.635188
vt 0.421595 0.544380
vt 0.570738 0.512897
vt 0.112382 0.536098
vt 0.802954 0.671880
vt 0.754059 0.610231
vt 0.272672 0.884927
vt 0.630669 0.346928
vt 0.679564 0.346928
vt 0.862921 0.295060
vt 0.892850 0.343955
vt 0.862921 0.343955
vt 0.581774 0.195066
vt 0.101380 0.448941
vt 0.085460 0.445316
vt 0.105452 0.431057
vt 0.036114 0.735565
vt 0.029638 0.764001
vt 0.020193 0.731940
vt 0.425667 0.562265
vt 0.392267 0.551059
vt 0.851604 0.828615
vt 0.881666 0.877510
vt 0.851604 0.877510
vt 0.676844 0.899402
vt 0.646916 0.850507
vt 0.676844 0.850507
vt 0.320526 0.235999
vt 0.349854 0.229321
vt 0.134780 0.437735
vt 0.728460 0.635188
vt 0.753017 0.684083
vt 0.728460 0.684083
vt 0.814026 0.409205
vt 0.862921 0.391860
vt 0.862921 0.409205
vt 0.396339 0.568943
vt 0.376347 0.554684
vt 0.646916 0.899402
vt 0.630669 0.850507
vt 0.881666 0.828615
vt 0.897984 0.877510
vt 0.327001 0.264435
vt 0.311080 0.268060
vt 0.679565 0.293900
vt 0.728460 0.000000
vt 0.728460 0.293900
vt 0.820138 0.412452
vt 0.581774 0.044180
vt 0.630669 0.044180
vt 0.237585 0.042755
vt 0.282513 0.069320
vt 0.528472 0.957245
vt 0.576325 0.945836
vt 0.664312 0.033886
vt 0.679564 0.346928
vt 0.659715 0.033886
vt 0.573400 0.930680
vt 0.581774 0.452317
vt 0.630669 0.452317
vt 0.745786 0.805203
vt 0.736591 0.763582
vt 0.745786 0.763582
vt 0.679564 0.033886
vt 0.673508 0.022048
vt 0.679564 0.022048
vt 0.630669 0.022048
vt 0.636726 0.033886
vt 0.630669 0.033886
vt 0.661455 0.447159
vt 0.664077 0.435322
vt 0.664077 0.447159
vt 0.743886 0.726388
vt 0.728461 0.759851
vt 0.728460 0.725913
vt 0.849570 0.780216
vt 0.834144 0.746752
vt 0.849571 0.746278
vt 0.695508 0.763582
vt 0.686313 0.805387
vt 0.686313 0.763582
vt 0.706014 0.834959
vt 0.700106 0.805387
vt 0.709301 0.805387
vt 0.658834 0.435322
vt 0.661456 0.447159
vt 0.658834 0.447159
vt 0.759579 0.763582
vt 0.750384 0.805203
vt 0.750384 0.763582
vt 0.723094 0.805387
vt 0.727221 0.839361
vt 0.713899 0.805387
vt 0.882643 0.672355
vt 0.867216 0.701497
vt 0.867216 0.671881
vt 0.651615 0.447159
vt 0.656213 0.435322
vt 0.656213 0.447159
vt 0.773372 0.805203
vt 0.777499 0.839028
vt 0.764177 0.805203
vt 0.656213 0.447159
vt 0.658834 0.435322
vt 0.658834 0.447159
vt 0.862921 0.396850
vt 0.878348 0.425993
vt 0.862921 0.426467
vt 0.647017 0.447159
vt 0.651615 0.435322
vt 0.651615 0.447159
vt 0.862921 0.395904
vt 0.878348 0.362272
vt 0.878348 0.396377
vt 0.759579 0.805203
vt 0.753671 0.834645
vt 0.764177 0.763582
vt 0.773372 0.763582
vt 0.682186 0.839361
vt 0.679565 0.839361
vt 0.723094 0.763582
vt 0.713899 0.763582
vt 0.700106 0.763582
vt 0.695508 0.805387
vt 0.709301 0.763582
vt 0.849571 0.822046
vt 0.834143 0.780691
vt 0.743887 0.684558
vt 0.728461 0.684083
vt 0.860707 0.134929
vt 0.876134 0.168561
vt 0.860707 0.169033
vt 0.736591 0.805203
vt 0.732464 0.839028
vt 0.729842 0.839028
vt 0.010157 0.729655
vt 0.065266 0.440718
vt 0.075424 0.443031
vt 0.780120 0.812477
vt 0.780120 0.763582
vt 0.783353 0.806365
vt 0.301044 0.270345
vt 0.873328 0.452317
vt 0.867216 0.671881
vt 0.867216 0.452317
vt 0.834143 0.452317
vt 0.851605 0.746278
vt 0.834143 0.746278
vt 0.879440 0.452317
vt 0.873328 0.671881
vt 0.873328 0.452317
vt 0.814026 0.210340
vt 0.777355 0.429903
vt 0.777355 0.210340
vt 0.790362 0.812477
vt 0.800727 0.806365
vt 0.800727 0.812477
vt 0.790362 0.763582
vt 0.800727 0.769693
vt 0.783353 0.769693
vt 0.826250 0.000000
vt 0.843711 0.293960
vt 0.826250 0.293960
vt 0.366311 0.556969
vt 0.290887 0.272658
vt 0.862921 0.419492
vt 0.856809 0.429903
vt 0.856809 0.412452
vt 0.814026 0.419492
vt 0.820138 0.429903
vt 0.814026 0.429903
vt 0.679565 0.000000
vt 0.664312 0.022048
vt 0.659715 0.022048
vt 0.636726 0.022048
vt 0.563559 0.115073
vt 0.728460 0.442423
vt 0.862921 0.361799
vt 0.630669 0.428952
vt 0.728460 0.289150
vt 0.581774 0.635188
vt 0.581774 0.452317
vt 0.215639 0.769094
vt 0.279851 0.487103
vt 0.754059 0.671881
vt 0.581774 0.809700
vt 0.825480 0.210340
vt 0.495352 0.233450
vt 0.679564 0.775853
vt 0.630669 0.850507
vt 0.499543 0.315953
vt 0.834143 0.822521
vt 0.729843 0.839027
vt 0.785248 0.817039
vt 0.874901 0.266103
vt 0.802954 0.635081
vt 0.802954 0.452317
vt 0.754059 0.635188
vt 0.860707 0.134456
vt 0.248713 0.000000
vt 0.581774 0.028746
vt 0.679565 0.763582
vt 0.138248 1.000000
vt 0.826250 0.210340
vt 0.630669 0.435322
vt 0.867216 0.640466
vt 0.867216 0.640466
vt 0.843711 0.000000
vt 0.754059 0.671880
vt 0.892850 0.295060
vt 0.753017 0.635188
vt 0.630669 0.899402
vt 0.897984 0.828615
vt 0.679565 0.000000
vt 0.673508 0.033886
vt 0.630669 0.346928
vt 0.645921 0.033886
vt 0.650519 0.033886
vt 0.661455 0.435322
vt 0.743887 0.760326
vt 0.703393 0.834959
vt 0.661456 0.435322
vt 0.729843 0.839361
vt 0.882643 0.701971
vt 0.651615 0.435322
vt 0.780120 0.839028
vt 0.656213 0.435322
vt 0.878348 0.396376
vt 0.647017 0.435322
vt 0.862921 0.361799
vt 0.756292 0.834645
vt 0.834144 0.822521
vt 0.876134 0.134456
vt 0.000000 0.727342
vt 0.873328 0.671881
vt 0.851605 0.452317
vt 0.879440 0.671881
vt 0.814026 0.429903
vt 0.800727 0.763582
vt 0.843711 0.000000
vt 0.356153 0.559282
vt 0.862921 0.429903
vn 0.0000 0.0000 -1.0000
vn 1.0000 0.0000 0.0000
vn 0.0000 0.9995 0.0307
vn -1.0000 0.0000 0.0000
vn 0.0000 1.0000 0.0000
vn 0.0000 -1.0000 -0.0000
vn 0.0000 -0.2900 0.9570
vn 0.0000 0.3624 -0.9320
vn 0.0000 0.0000 1.0000
vn 0.0000 0.2825 -0.9593
vn 0.0000 -0.2825 0.9593
vn 0.0000 -0.9994 0.0332
vn 0.0000 0.0557 -0.9985
vn 0.0000 -0.9526 0.3041
vn 0.0000 -0.1616 0.9868
vn -0.0000 -0.4620 0.8869
vn 0.2411 -0.3122 0.9189
vn 0.0000 0.7469 0.6649
vn 0.0000 0.8726 -0.4885
vn 0.9808 -0.1947 -0.0060
vn -0.9808 -0.1947 -0.0060
vn 0.9939 0.1104 0.0034
vn -0.9939 0.1104 0.0034
vn 0.9310 0.3648 0.0112
vn -0.9310 0.3648 0.0112
vn 0.0000 -0.1616 0.9869
vn -0.2411 -0.3122 0.9189
usemtl Material
s off
f 1/1/1 90/2/1 3/3/1
f 70/4/2 8/5/2 71/6/2
f 125/7/3 117/8/3 64/9/3
f 2/10/4 86/11/4 83/12/4
f 3/13/5 57/14/5 1/15/5
f 82/16/4 2/10/4 83/12/4
f 39/17/4 12/18/4 9/19/4
f 39/20/6 11/21/6 37/22/6
f 84/23/2 11/24/2 81/25/2
f 12/26/5 84/27/5 82/28/5
f 15/29/6 85/30/6 86/31/6
f 81/25/2 13/32/2 85/33/2
f 9/34/7 13/35/7 11/36/7
f 4/37/8 15/38/8 2/39/8
f 25/40/4 73/41/4 76/42/4
f 69/43/4 20/44/4 17/45/4
f 36/46/2 19/47/2 33/48/2
f 20/49/5 36/50/5 34/51/5
f 22/52/2 80/53/2 78/54/2
f 48/55/2 32/56/2 27/57/2
f 28/58/2 74/59/2 75/60/2
f 26/61/9 46/62/9 28/63/9
f 6/64/9 28/63/9 8/65/9
f 8/5/2 75/60/2 71/6/2
f 19/66/1 25/67/1 17/68/1
f 17/45/4 76/42/4 69/43/4
f 32/69/1 29/70/1 31/71/1
f 25/40/4 29/72/4 47/73/4
f 48/74/6 29/75/6 30/76/6
f 27/77/5 31/78/5 25/79/5
f 38/80/5 36/50/5 40/81/5
f 40/82/2 33/48/2 37/83/2
f 35/84/6 19/85/6 17/86/6
f 17/45/4 34/87/4 35/88/4
f 10/89/2 37/83/2 11/24/2
f 38/80/5 10/90/5 12/26/5
f 39/17/4 42/91/4 35/88/4
f 35/88/4 38/92/4 39/17/4
f 41/93/6 43/94/6 42/95/6
f 37/96/10 41/97/10 39/98/10
f 37/83/2 43/99/2 44/100/2
f 35/101/11 43/102/11 33/103/11
f 22/104/6 45/105/6 21/106/6
f 21/106/6 73/107/6 77/108/6
f 24/109/6 74/110/6 78/111/6
f 23/112/6 48/74/6 24/109/6
f 79/113/6 52/114/6 80/115/6
f 21/116/9 50/117/9 22/118/9
f 24/119/1 51/120/1 23/121/1
f 23/122/4 79/123/4 77/124/4
f 55/125/5 68/126/5 67/127/5
f 99/128/4 61/129/4 64/130/4
f 100/131/2 62/132/2 102/133/2
f 101/134/12 62/135/12 61/136/12
f 57/137/13 60/138/13 58/139/13
f 4/140/2 59/141/2 3/142/2
f 2/10/4 57/143/4 58/144/4
f 2/145/14 60/146/14 4/147/14
f 53/148/15 62/149/15 54/150/15
f 54/150/16 63/151/16 55/152/16
f 53/148/17 64/153/17 61/154/17
f 56/155/16 63/151/16 64/153/16
f 67/156/16 65/157/16 66/158/16
f 55/159/2 66/160/2 54/161/2
f 56/162/4 65/163/4 68/164/4
f 54/165/6 65/166/6 53/167/6
f 77/124/4 49/168/4 21/169/4
f 79/113/6 50/170/6 49/171/6
f 22/104/6 74/110/6 46/172/6
f 23/112/6 73/107/6 47/173/6
f 69/43/4 26/174/4 6/175/4
f 71/6/2 27/57/2 19/47/2
f 75/60/2 48/55/2 27/57/2
f 78/54/2 52/176/2 24/177/2
f 6/175/4 72/178/4 69/43/4
f 76/42/4 45/179/4 26/174/4
f 18/180/2 71/6/2 19/47/2
f 72/181/5 18/182/5 20/49/5
f 4/140/2 85/33/2 14/183/2
f 86/31/6 13/184/6 16/185/6
f 7/186/9 91/187/9 5/188/9
f 4/140/2 84/23/2 81/25/2
f 9/19/4 82/16/4 83/12/4
f 83/12/4 16/189/4 9/19/4
f 87/190/2 95/191/2 88/192/2
f 94/193/2 90/194/2 98/195/2
f 3/142/2 94/193/2 84/23/2
f 5/196/4 93/197/4 72/178/4
f 72/198/1 87/199/1 70/200/1
f 84/201/9 92/202/9 82/203/9
f 82/16/4 89/204/4 1/205/4
f 70/4/2 88/192/2 7/206/2
f 97/207/18 88/208/18 95/209/18
f 98/210/19 89/211/19 96/212/19
f 93/197/4 91/213/4 97/214/4
f 94/215/9 96/216/9 92/202/9
f 93/217/1 95/218/1 87/199/1
f 92/219/4 96/220/4 89/204/4
f 94/221/6 93/222/6 92/223/6
f 87/190/2 98/195/2 95/191/2
f 98/210/1 96/212/1 152/224/1
f 92/219/4 97/214/4 96/220/4
f 104/225/12 101/134/12 106/226/12
f 103/227/2 102/133/2 104/228/2
f 105/229/4 101/230/4 99/128/4
f 122/231/3 7/232/3 130/233/3
f 5/196/4 106/234/4 105/229/4
f 7/206/2 104/228/2 8/5/2
f 8/235/12 106/226/12 6/236/12
f 135/237/9 107/238/9 117/239/9
f 103/240/3 109/241/3 100/242/3
f 99/243/3 108/244/3 105/245/3
f 113/246/3 115/247/3 116/248/3
f 133/249/20 111/250/20 134/251/20
f 132/252/21 114/253/21 113/254/21
f 122/255/1 133/256/1 110/257/1
f 124/258/1 142/259/1 139/260/1
f 123/261/3 128/262/3 124/263/3
f 129/264/9 140/265/9 125/266/9
f 132/267/1 116/268/1 136/269/1
f 142/270/22 127/271/22 141/272/22
f 142/273/3 138/274/3 137/275/3
f 134/276/9 119/277/9 138/278/9
f 120/279/3 111/280/3 112/281/3
f 123/282/23 139/283/23 140/284/23
f 136/285/3 140/286/3 139/287/3
f 115/288/24 136/289/24 116/290/24
f 141/291/9 123/292/9 140/265/9
f 134/276/9 121/293/9 109/294/9
f 133/256/1 120/295/1 112/296/1
f 108/297/1 136/269/1 118/298/1
f 130/299/1 137/300/1 122/255/1
f 126/301/1 142/259/1 130/299/1
f 125/266/9 135/237/9 117/239/9
f 121/293/9 141/291/9 129/264/9
f 118/298/1 139/260/1 126/301/1
f 108/302/4 131/303/4 132/252/4
f 110/304/2 134/251/2 109/305/2
f 119/306/25 137/307/25 138/308/25
f 131/309/9 115/310/9 114/311/9
f 146/312/2 147/313/2 144/314/2
f 97/315/9 95/316/9 149/317/9
f 98/195/2 144/314/2 95/191/2
f 97/214/4 145/318/4 96/220/4
f 157/319/5 156/320/5 155/321/5
f 150/322/2 157/323/2 149/324/2
f 147/325/5 153/326/5 148/327/5
f 151/328/5 150/329/5 149/330/5
f 143/331/9 157/332/9 155/333/9
f 144/334/9 148/335/9 151/336/9
f 151/337/4 153/338/4 152/339/4
f 143/340/4 156/341/4 145/318/4
f 145/342/1 158/343/1 150/344/1
f 146/345/1 153/346/1 154/347/1
f 1/1/1 89/211/1 90/2/1
f 70/4/2 7/206/2 8/5/2
f 63/348/3 100/242/3 109/241/3
f 121/349/3 129/350/3 63/348/3
f 129/350/3 125/7/3 63/348/3
f 63/348/3 109/241/3 121/349/3
f 99/243/3 64/9/3 107/351/3
f 64/9/3 63/348/3 125/7/3
f 107/351/3 64/9/3 117/8/3
f 2/10/4 15/352/4 86/11/4
f 3/13/5 59/353/5 57/14/5
f 82/16/4 1/205/4 2/10/4
f 39/17/4 38/92/4 12/18/4
f 39/20/6 9/354/6 11/21/6
f 84/23/2 10/89/2 11/24/2
f 12/26/5 10/90/5 84/27/5
f 15/29/6 14/355/6 85/30/6
f 81/25/2 11/24/2 13/32/2
f 9/34/7 16/356/7 13/35/7
f 4/37/8 14/357/8 15/38/8
f 25/40/4 47/73/4 73/41/4
f 69/43/4 72/178/4 20/44/4
f 36/46/2 18/180/2 19/47/2
f 20/49/5 18/182/5 36/50/5
f 22/52/2 50/358/2 80/53/2
f 48/55/2 30/359/2 32/56/2
f 28/58/2 46/360/2 74/59/2
f 26/61/9 45/361/9 46/62/9
f 6/64/9 26/61/9 28/63/9
f 8/5/2 28/58/2 75/60/2
f 19/66/1 27/362/1 25/67/1
f 17/45/4 25/40/4 76/42/4
f 32/69/1 30/363/1 29/70/1
f 25/40/4 31/364/4 29/72/4
f 48/74/6 47/173/6 29/75/6
f 27/77/5 32/365/5 31/78/5
f 38/80/5 34/51/5 36/50/5
f 40/82/2 36/46/2 33/48/2
f 35/84/6 33/366/6 19/85/6
f 17/45/4 20/44/4 34/87/4
f 10/89/2 40/82/2 37/83/2
f 38/80/5 40/81/5 10/90/5
f 39/17/4 41/367/4 42/91/4
f 35/88/4 34/87/4 38/92/4
f 41/93/6 44/368/6 43/94/6
f 37/96/10 44/369/10 41/97/10
f 37/83/2 33/48/2 43/99/2
f 35/101/11 42/370/11 43/102/11
f 22/104/6 46/172/6 45/105/6
f 21/106/6 45/105/6 73/107/6
f 24/109/6 48/74/6 74/110/6
f 23/112/6 47/173/6 48/74/6
f 79/113/6 51/371/6 52/114/6
f 21/116/9 49/372/9 50/117/9
f 24/119/1 52/373/1 51/120/1
f 23/122/4 51/374/4 79/123/4
f 55/125/5 56/375/5 68/126/5
f 99/128/4 101/230/4 61/129/4
f 100/131/2 63/376/2 62/132/2
f 101/134/12 102/377/12 62/135/12
f 57/137/13 59/378/13 60/138/13
f 4/140/2 60/379/2 59/141/2
f 2/10/4 1/205/4 57/143/4
f 2/145/14 58/380/14 60/146/14
f 53/148/26 61/154/26 62/149/26
f 54/150/27 62/149/27 63/151/27
f 53/148/16 56/155/16 64/153/16
f 56/155/16 55/152/16 63/151/16
f 67/156/16 68/381/16 65/157/16
f 55/159/2 67/382/2 66/160/2
f 56/162/4 53/383/4 65/163/4
f 54/165/6 66/384/6 65/166/6
f 77/124/4 79/123/4 49/168/4
f 79/113/6 80/115/6 50/170/6
f 22/104/6 78/111/6 74/110/6
f 23/112/6 77/108/6 73/107/6
f 69/43/4 76/42/4 26/174/4
f 71/6/2 75/60/2 27/57/2
f 75/60/2 74/59/2 48/55/2
f 78/54/2 80/53/2 52/176/2
f 6/175/4 5/196/4 72/178/4
f 76/42/4 73/41/4 45/179/4
f 18/180/2 70/4/2 71/6/2
f 72/181/5 70/385/5 18/182/5
f 4/140/2 81/25/2 85/33/2
f 86/31/6 85/30/6 13/184/6
f 7/186/9 88/386/9 91/187/9
f 4/140/2 3/142/2 84/23/2
f 9/19/4 12/18/4 82/16/4
f 83/12/4 86/11/4 16/189/4
f 3/142/2 90/194/2 94/193/2
f 5/196/4 91/213/4 93/197/4
f 72/198/1 93/217/1 87/199/1
f 84/201/9 94/215/9 92/202/9
f 82/16/4 92/219/4 89/204/4
f 70/4/2 87/190/2 88/192/2
f 97/207/18 91/387/18 88/208/18
f 98/210/19 90/2/19 89/211/19
f 94/215/9 98/388/9 96/216/9
f 93/217/1 97/389/1 95/218/1
f 94/221/6 87/390/6 93/222/6
f 87/190/2 94/193/2 98/195/2
f 96/212/1 145/342/1 150/344/1
f 152/224/1 146/345/1 98/210/1
f 96/212/1 150/344/1 152/224/1
f 92/219/4 93/197/4 97/214/4
f 104/225/12 102/377/12 101/134/12
f 103/227/2 100/131/2 102/133/2
f 105/229/4 106/234/4 101/230/4
f 103/240/3 7/232/3 110/391/3
f 7/232/3 5/392/3 130/233/3
f 110/391/3 7/232/3 122/231/3
f 5/392/3 105/245/3 108/244/3
f 118/393/3 126/394/3 5/392/3
f 126/394/3 130/233/3 5/392/3
f 5/392/3 108/244/3 118/393/3
f 5/196/4 6/175/4 106/234/4
f 7/206/2 103/227/2 104/228/2
f 8/235/12 104/225/12 106/226/12
f 135/237/9 131/309/9 107/238/9
f 103/240/3 110/391/3 109/241/3
f 99/243/3 107/351/3 108/244/3
f 113/246/3 114/395/3 115/247/3
f 133/249/20 112/396/20 111/250/20
f 132/252/21 131/303/21 114/253/21
f 122/255/1 137/300/1 133/256/1
f 124/258/1 128/397/1 142/259/1
f 123/261/3 127/398/3 128/262/3
f 129/264/9 141/291/9 140/265/9
f 132/267/1 113/399/1 116/268/1
f 142/270/22 128/400/22 127/271/22
f 142/273/3 141/401/3 138/274/3
f 134/276/9 111/402/9 119/277/9
f 120/279/3 119/403/3 111/280/3
f 123/282/23 124/404/23 139/283/23
f 136/285/3 135/405/3 140/286/3
f 115/288/24 135/406/24 136/289/24
f 141/291/9 127/407/9 123/292/9
f 134/276/9 138/278/9 121/293/9
f 133/256/1 137/300/1 120/295/1
f 108/297/1 132/267/1 136/269/1
f 130/299/1 142/259/1 137/300/1
f 126/301/1 139/260/1 142/259/1
f 125/266/9 140/265/9 135/237/9
f 121/293/9 138/278/9 141/291/9
f 118/298/1 136/269/1 139/260/1
f 108/302/4 107/408/4 131/303/4
f 110/304/2 133/249/2 134/251/2
f 119/306/25 120/409/25 137/307/25
f 131/309/9 135/237/9 115/310/9
f 146/312/2 154/410/2 147/313/2
f 95/316/9 144/334/9 151/336/9
f 149/317/9 143/331/9 97/315/9
f 95/316/9 151/336/9 149/317/9
f 98/195/2 146/312/2 144/314/2
f 97/214/4 143/340/4 145/318/4
f 157/319/5 158/411/5 156/320/5
f 150/322/2 158/412/2 157/323/2
f 147/325/5 154/413/5 153/326/5
f 151/328/5 152/414/5 150/329/5
f 143/331/9 149/317/9 157/332/9
f 144/334/9 147/415/9 148/335/9
f 151/337/4 148/416/4 153/338/4
f 143/340/4 155/417/4 156/341/4
f 145/342/1 156/418/1 158/343/1
f 146/345/1 152/224/1 153/346/1
