# Blender v2.92.0 OBJ File: 'ShootingRange.blend'
# www.blender.org
mtllib ShootingRange.mtl
o Floor_Cube
v 60.000000 1.000000 -30.000000
v 60.000000 -1.000000 -30.000000
v 60.000000 1.000000 30.000000
v 60.000000 -1.000000 30.000000
v -60.000000 1.000000 -30.000000
v -60.000000 -1.000000 -30.000000
v -60.000000 1.000000 30.000000
v -60.000000 -1.000000 30.000000
vt 2.761906 2.857143
vt 0.380953 -1.904762
vt 2.761906 -1.904762
vt 2.841270 2.857143
vt 2.920635 -1.904762
vt 2.920635 2.857143
vt 2.920635 2.857143
vt 3.000000 0.476191
vt 3.000000 2.857143
vt 0.380953 2.857143
vt -2.000000 -1.904762
vt 0.380953 -1.904762
vt 2.920635 0.476191
vt 3.000000 -1.904762
vt 3.000000 0.476191
vt 2.841270 -1.904762
vt 2.841270 2.857143
vt 0.380953 2.857143
vt 2.841270 -1.904762
vt 2.920635 0.476191
vt -2.000000 2.857143
vt 2.920635 -1.904762
vn 0.0000 1.0000 0.0000
vn 0.0000 0.0000 1.0000
vn -1.0000 0.0000 0.0000
vn 0.0000 -1.0000 0.0000
vn 1.0000 0.0000 0.0000
vn 0.0000 0.0000 -1.0000
usemtl Grass
s off
f 5/1/1 3/2/1 1/3/1
f 3/4/2 8/5/2 4/6/2
f 7/7/3 6/8/3 8/9/3
f 2/10/4 8/11/4 6/12/4
f 1/13/5 4/14/5 2/15/5
f 5/1/6 2/16/6 6/17/6
f 5/1/1 7/18/1 3/2/1
f 3/4/2 7/19/2 8/5/2
f 7/7/3 5/20/3 6/8/3
f 2/10/4 4/21/4 8/11/4
f 1/13/5 3/22/5 4/14/5
f 5/1/6 1/3/6 2/16/6
o Cube_Cube.001
v -6.139132 0.818053 6.139132
v -6.139132 3.037780 6.139132
v -6.139132 0.818053 -6.139132
v -6.139132 3.037780 -6.139132
v 6.139132 0.818053 6.139132
v 6.139132 3.037780 6.139132
v 6.139132 0.818053 -6.139132
v 6.139132 3.037780 -6.139132
vt 0.625000 0.000000
vt 0.375000 0.250000
vt 0.375000 0.000000
vt 0.625000 0.250000
vt 0.375000 0.500000
vt 0.625000 0.500000
vt 0.375000 0.750000
vt 0.625000 0.750000
vt 0.375000 1.000000
vt 0.125000 0.750000
vt 0.125000 0.500000
vt 0.875000 0.500000
vt 0.625000 1.000000
vt 0.875000 0.750000
vn -1.0000 0.0000 0.0000
vn 0.0000 0.0000 -1.0000
vn 1.0000 0.0000 0.0000
vn 0.0000 0.0000 1.0000
vn 0.0000 -1.0000 0.0000
vn 0.0000 1.0000 0.0000
usemtl Material
s off
f 10/23/7 11/24/7 9/25/7
f 12/26/8 15/27/8 11/24/8
f 16/28/9 13/29/9 15/27/9
f 14/30/10 9/31/10 13/29/10
f 15/27/11 9/32/11 11/33/11
f 12/34/12 14/30/12 16/28/12
f 10/23/7 12/26/7 11/24/7
f 12/26/8 16/28/8 15/27/8
f 16/28/9 14/30/9 13/29/9
f 14/30/10 10/35/10 9/31/10
f 15/27/11 13/29/11 9/32/11
f 12/34/12 10/36/12 14/30/12
o Cube.001_Cube.002
v -24.310648 5.106371 10.767370
v -24.310648 9.106371 10.767370
v -24.310648 5.106371 8.767370
v -24.310648 9.106371 8.767370
v -22.310648 5.106371 10.767370
v -22.310648 9.106371 10.767370
v -22.310648 5.106371 8.767370
v -22.310648 9.106371 8.767370
vt 0.625000 0.000000
vt 0.375000 0.250000
vt 0.375000 0.000000
vt 0.625000 0.250000
vt 0.375000 0.500000
vt 0.625000 0.500000
vt 0.375000 0.750000
vt 0.625000 0.750000
vt 0.375000 1.000000
vt 0.125000 0.750000
vt 0.125000 0.500000
vt 0.875000 0.500000
vt 0.625000 1.000000
vt 0.875000 0.750000
vn -1.0000 0.0000 0.0000
vn 0.0000 0.0000 -1.0000
vn 1.0000 0.0000 0.0000
vn 0.0000 0.0000 1.0000
vn 0.0000 -1.0000 0.0000
vn 0.0000 1.0000 0.0000
usemtl None
s off
f 18/37/13 19/38/13 17/39/13
f 20/40/14 23/41/14 19/38/14
f 24/42/15 21/43/15 23/41/15
f 22/44/16 17/45/16 21/43/16
f 23/41/17 17/46/17 19/47/17
f 20/48/18 22/44/18 24/42/18
f 18/37/13 20/40/13 19/38/13
f 20/40/14 24/42/14 23/41/14
f 24/42/15 22/44/15 21/43/15
f 22/44/16 18/49/16 17/45/16
f 23/41/17 21/43/17 17/46/17
f 20/48/18 18/50/18 22/44/18
o Cube.002_Cube.003
v 2.389215 0.818053 -9.351981
v 2.389215 3.037780 -9.351981
v 2.389215 0.818053 -21.630245
v 2.389215 3.037780 -21.630245
v 14.667479 0.818053 -9.351981
v 14.667479 3.037780 -9.351981
v 14.667479 0.818053 -21.630245
v 14.667479 3.037780 -21.630245
vt 0.625000 0.000000
vt 0.375000 0.250000
vt 0.375000 0.000000
vt 0.625000 0.250000
vt 0.375000 0.500000
vt 0.625000 0.500000
vt 0.375000 0.750000
vt 0.625000 0.750000
vt 0.375000 1.000000
vt 0.125000 0.750000
vt 0.125000 0.500000
vt 0.875000 0.500000
vt 0.625000 1.000000
vt 0.875000 0.750000
vn -1.0000 0.0000 0.0000
vn 0.0000 0.0000 -1.0000
vn 1.0000 0.0000 0.0000
vn 0.0000 0.0000 1.0000
vn 0.0000 -1.0000 0.0000
vn 0.0000 1.0000 0.0000
usemtl None
s off
f 26/51/19 27/52/19 25/53/19
f 28/54/20 31/55/20 27/52/20
f 32/56/21 29/57/21 31/55/21
f 30/58/22 25/59/22 29/57/22
f 31/55/23 25/60/23 27/61/23
f 28/62/24 30/58/24 32/56/24
f 26/51/19 28/54/19 27/52/19
f 28/54/20 32/56/20 31/55/20
f 32/56/21 30/58/21 29/57/21
f 30/58/22 26/63/22 25/59/22
f 31/55/23 29/57/23 25/60/23
f 28/62/24 26/64/24 30/58/24
o Cube.003_Cube.004
v 51.961285 44.301014 17.918783
v 52.174786 44.301014 17.918783
v 51.961285 44.301014 -17.695662
v 52.174786 44.301014 -17.695662
v 51.961285 0.926712 17.918783
v 52.174786 0.926712 17.918783
v 51.961285 0.926712 -17.695662
v 52.174786 0.926712 -17.695662
vt 5.469959 5.450422
vt 5.500000 0.495493
vt 5.500000 5.450422
vt 5.409875 1.643688
vt 5.439917 -4.459436
vt 5.439917 1.643688
vt 5.500000 -4.459436
vt 5.469959 0.495493
vt 5.469959 -4.459436
vt 5.469959 -4.459436
vt 5.439917 1.643688
vt 5.439918 -4.459436
vt -4.500000 -4.459436
vt 0.454929 1.643688
vt -4.500000 1.643688
vt 0.454929 -4.459436
vt 5.409859 -4.459436
vt 5.469959 0.495493
vt 5.500000 0.495493
vt 5.469958 1.643688
vt 0.454929 -4.459436
vt 0.454929 1.643688
vn 0.0000 1.0000 0.0000
vn 0.0000 0.0000 -1.0000
vn 0.0000 -1.0000 0.0000
vn 0.0000 0.0000 1.0000
vn -1.0000 0.0000 0.0000
vn 1.0000 0.0000 0.0000
usemtl Bricks
s off
f 34/65/25 35/66/25 33/67/25
f 36/68/26 39/69/26 35/70/26
f 40/71/27 37/72/27 39/73/27
f 38/74/28 33/75/28 37/76/28
f 39/77/29 33/78/29 35/79/29
f 36/68/30 38/80/30 40/81/30
f 34/65/25 36/82/25 35/66/25
f 36/68/26 40/81/26 39/69/26
f 40/71/27 38/83/27 37/72/27
f 38/74/28 34/84/28 33/75/28
f 39/77/29 37/85/29 33/78/29
f 36/68/30 34/86/30 38/80/30
o Cube.004_Cube.005
v 2.497735 12.063703 22.821627
v 2.497735 14.283429 22.821627
v 2.497735 12.063703 10.543364
v 2.497735 14.283429 10.543364
v 14.775998 12.063703 22.821627
v 14.775998 14.283429 22.821627
v 14.775998 12.063703 10.543364
v 14.775998 14.283429 10.543364
vt 0.625000 0.000000
vt 0.375000 0.250000
vt 0.375000 0.000000
vt 0.625000 0.250000
vt 0.375000 0.500000
vt 0.625000 0.500000
vt 0.375000 0.750000
vt 0.625000 0.750000
vt 0.375000 1.000000
vt 0.125000 0.750000
vt 0.125000 0.500000
vt 0.875000 0.500000
vt 0.625000 1.000000
vt 0.875000 0.750000
vn -1.0000 0.0000 0.0000
vn 0.0000 0.0000 -1.0000
vn 1.0000 0.0000 0.0000
vn 0.0000 0.0000 1.0000
vn 0.0000 -1.0000 0.0000
vn 0.0000 1.0000 0.0000
usemtl None
s off
f 42/87/31 43/88/31 41/89/31
f 44/90/32 47/91/32 43/88/32
f 48/92/33 45/93/33 47/91/33
f 46/94/34 41/95/34 45/93/34
f 47/91/35 41/96/35 43/97/35
f 44/98/36 46/94/36 48/92/36
f 42/87/31 44/90/31 43/88/31
f 44/90/32 48/92/32 47/91/32
f 48/92/33 46/94/33 45/93/33
f 46/94/34 42/99/34 41/95/34
f 47/91/35 45/93/35 41/96/35
f 44/98/36 42/100/36 46/94/36
o Cube.005_Cube.006
v 26.215855 44.301014 17.918783
v 26.429354 44.301014 17.918783
v 26.215855 0.926712 17.918783
v 26.429354 0.926712 17.918783
v 26.215855 44.301014 4.563367
v 26.429354 0.926712 4.563367
v 26.429354 44.301014 4.563367
v 26.215855 0.926712 4.563367
v 26.215855 9.894890 17.918783
v 26.429354 9.894892 17.918783
v 26.429354 9.894890 4.563367
v 26.215855 9.894892 4.563367
vt 5.500000 -4.410856
vt 5.460382 -1.960381
vt 5.460382 -4.410856
vt 5.420762 -2.746657
vt 5.381143 3.637983
vt 5.381144 -2.746659
vt 2.851427 -4.410856
vt 5.301903 -2.746657
vt 2.851427 -2.746657
vt 0.400970 3.637983
vt -2.049515 -2.746657
vt 0.400970 -2.746657
vt 5.381144 3.637983
vt 5.341526 -2.746659
vt 5.381144 -2.746657
vt 5.460382 5.391047
vt 5.500000 2.940571
vt 5.500000 5.391047
vt 5.381144 -4.410856
vt -2.049515 -4.410856
vt 0.400970 -4.410856
vt 5.301903 3.637982
vt 2.851427 3.637982
vt 5.420762 -4.410856
vt 5.381144 -4.410856
vt 5.500000 -1.960381
vt 5.420761 3.637983
vt 5.301903 -4.410856
vt -2.049515 3.637983
vt 5.341525 3.637983
vt 5.460382 2.940571
vt 5.341526 -4.410856
vn 0.0000 -1.0000 0.0000
vn 0.0000 0.0000 1.0000
vn -1.0000 0.0000 0.0000
vn 1.0000 0.0000 0.0000
vn 0.0000 0.0000 -1.0000
vn 0.0000 1.0000 0.0000
usemtl Bricks
s off
f 54/101/37 51/102/37 56/103/37
f 58/104/38 49/105/38 57/106/38
f 56/107/39 57/108/39 60/109/39
f 55/110/40 58/111/40 59/112/40
f 53/113/41 59/114/41 60/115/41
f 50/116/42 53/117/42 49/118/42
f 59/114/41 56/119/41 60/115/41
f 59/112/40 52/120/40 54/121/40
f 60/109/39 49/122/39 53/123/39
f 52/124/38 57/106/38 51/125/38
f 54/101/37 52/126/37 51/102/37
f 58/104/38 50/127/38 49/105/38
f 56/107/39 51/128/39 57/108/39
f 55/110/40 50/129/40 58/111/40
f 53/113/41 55/130/41 59/114/41
f 50/116/42 55/131/42 53/117/42
f 59/114/41 54/132/41 56/119/41
f 59/112/40 58/111/40 52/120/40
f 60/109/39 57/108/39 49/122/39
f 52/124/38 58/104/38 57/106/38
o Cube.006_Cube.007
v 51.989761 44.301014 -17.508841
v 51.989761 44.301014 -17.801600
v 26.311539 44.301014 -17.508839
v 26.311539 44.301014 -17.801598
v 51.989761 0.926712 -17.508841
v 51.989761 0.926712 -17.801600
v 26.311539 0.926712 -17.508839
v 26.311539 0.926712 -17.801598
vt 5.469959 5.450422
vt 5.500000 0.495493
vt 5.500000 5.450422
vt 5.409875 1.643688
vt 5.439917 -4.459436
vt 5.439917 1.643688
vt 5.500000 -4.459436
vt 5.469959 0.495493
vt 5.469959 -4.459436
vt 5.469959 -4.459436
vt 5.439917 1.643688
vt 5.439918 -4.459436
vt -4.500000 -4.459436
vt 0.454929 1.643688
vt -4.500000 1.643688
vt 0.454929 -4.459436
vt 5.409859 -4.459436
vt 5.469959 0.495493
vt 5.500000 0.495493
vt 5.469958 1.643688
vt 0.454929 -4.459436
vt 0.454929 1.643688
vn 0.0000 1.0000 0.0000
vn -1.0000 0.0000 0.0000
vn 0.0000 -1.0000 0.0000
vn 1.0000 0.0000 0.0000
vn 0.0000 0.0000 1.0000
vn 0.0000 0.0000 -1.0000
usemtl Bricks
s off
f 62/133/43 63/134/43 61/135/43
f 64/136/44 67/137/44 63/138/44
f 68/139/45 65/140/45 67/141/45
f 66/142/46 61/143/46 65/144/46
f 67/145/47 61/146/47 63/147/47
f 64/136/48 66/148/48 68/149/48
f 62/133/43 64/150/43 63/134/43
f 64/136/44 68/149/44 67/137/44
f 68/139/45 66/151/45 65/140/45
f 66/142/46 62/152/46 61/143/46
f 67/145/47 65/153/47 61/146/47
f 64/136/48 62/154/48 66/148/48
o Cube.007_Cube.008
v 51.989761 44.301014 17.794489
v 51.989761 44.301014 17.501730
v 26.311539 44.301014 17.794491
v 26.311539 44.301014 17.501732
v 51.989761 0.926712 17.794489
v 51.989761 0.926712 17.501730
v 26.311539 0.926712 17.794491
v 26.311539 0.926712 17.501732
vt 5.469959 5.450422
vt 5.500000 0.495493
vt 5.500000 5.450422
vt 5.409875 1.643688
vt 5.439917 -4.459436
vt 5.439917 1.643688
vt 5.500000 -4.459436
vt 5.469959 0.495493
vt 5.469959 -4.459436
vt 5.469959 -4.459436
vt 5.439917 1.643688
vt 5.439918 -4.459436
vt -4.500000 -4.459436
vt 0.454929 1.643688
vt -4.500000 1.643688
vt 0.454929 -4.459436
vt 5.409859 -4.459436
vt 5.469959 0.495493
vt 5.500000 0.495493
vt 5.469958 1.643688
vt 0.454929 -4.459436
vt 0.454929 1.643688
vn 0.0000 1.0000 0.0000
vn -1.0000 0.0000 0.0000
vn 0.0000 -1.0000 0.0000
vn 1.0000 0.0000 0.0000
vn 0.0000 0.0000 1.0000
vn 0.0000 0.0000 -1.0000
usemtl Bricks
s off
f 70/155/49 71/156/49 69/157/49
f 72/158/50 75/159/50 71/160/50
f 76/161/51 73/162/51 75/163/51
f 74/164/52 69/165/52 73/166/52
f 75/167/53 69/168/53 71/169/53
f 72/158/54 74/170/54 76/171/54
f 70/155/49 72/172/49 71/156/49
f 72/158/50 76/171/50 75/159/50
f 76/161/51 74/173/51 73/162/51
f 74/164/52 70/174/52 69/165/52
f 75/167/53 73/175/53 69/168/53
f 72/158/54 70/176/54 74/170/54
o Cube.008_Cube.009
v 26.368332 0.673309 17.781433
v 26.368332 1.056568 17.781433
v 26.368332 0.673309 -17.710232
v 26.368332 1.056568 -17.710232
v 52.104645 0.673309 17.781433
v 52.104645 1.056568 17.781433
v 52.104645 0.673309 -17.710232
v 52.104645 1.056568 -17.710232
vt 2.286742 8.219528
vt 2.307582 -7.219528
vt 2.307582 8.219528
vt 2.328422 3.975914
vt 2.349262 -7.219528
vt 2.349262 3.975914
vt 2.265901 8.219528
vt 2.286741 -7.219528
vt 2.286741 8.219528
vt 2.307582 3.975914
vt 2.328422 -7.219528
vt 2.328422 3.975914
vt 2.265901 3.975914
vt 0.336019 -7.219528
vt 2.265901 -7.219528
vt 0.336019 3.975914
vt -1.593863 -7.219528
vt 0.336019 -7.219528
vt 2.286742 -7.219528
vt 2.328422 -7.219528
vt 2.265901 -7.219528
vt 2.307582 -7.219528
vt 0.336019 3.975914
vt -1.593863 3.975914
vn -1.0000 0.0000 0.0000
vn 0.0000 0.0000 -1.0000
vn 1.0000 0.0000 0.0000
vn 0.0000 0.0000 1.0000
vn 0.0000 -1.0000 0.0000
vn 0.0000 1.0000 0.0000
usemtl Floor
s off
f 78/177/55 79/178/55 77/179/55
f 80/180/56 83/181/56 79/182/56
f 84/183/57 81/184/57 83/185/57
f 82/186/58 77/187/58 81/188/58
f 83/189/59 77/190/59 79/191/59
f 80/192/60 82/193/60 84/194/60
f 78/177/55 80/195/55 79/178/55
f 80/180/56 84/196/56 83/181/56
f 84/183/57 82/197/57 81/184/57
f 82/186/58 78/198/58 77/187/58
f 83/189/59 81/199/59 77/190/59
f 80/192/60 78/200/60 82/193/60
o Cube.009_Cube.010
v 26.215855 44.301014 -17.695662
v 26.429354 44.301014 -17.695662
v 26.215855 0.926712 -17.695662
v 26.429354 0.926712 -17.695662
v 26.429354 44.301014 -4.340244
v 26.215855 0.926712 -4.340244
v 26.215855 44.301014 -4.340244
v 26.429354 0.926712 -4.340244
v 26.215855 9.894892 -17.695662
v 26.429354 9.894890 -17.695662
v 26.215855 9.894892 -4.340244
v 26.429354 9.894890 -4.340244
vt 5.460382 2.940580
vt 5.500000 0.490095
vt 5.500000 2.940580
vt 5.301907 -2.746659
vt 5.341524 -4.410856
vt 5.341524 -2.746657
vt 5.420763 -4.410856
vt 5.460382 -2.746659
vt 5.420763 -2.746657
vt 5.420762 3.637983
vt 5.500000 -1.960371
vt 5.460381 0.490114
vt 5.460382 -1.960371
vt -4.500000 -4.410856
vt -2.049515 -2.746657
vt -4.500000 -2.746657
vt 2.851427 3.637982
vt 0.400951 -2.746657
vt 2.851427 -2.746657
vt 0.400951 -4.410856
vt 2.851427 -4.410856
vt -2.049515 3.637983
vt -4.500000 3.637983
vt 5.301906 3.637983
vt 5.341524 3.637983
vt 5.460382 0.490095
vt 5.301907 -4.410856
vt 5.460382 -4.410856
vt 5.460381 3.637983
vt 5.500000 0.490114
vt -2.049515 -4.410856
vt 0.400951 3.637982
vn 0.0000 1.0000 0.0000
vn 0.0000 0.0000 -1.0000
vn 0.0000 0.0000 1.0000
vn 0.0000 -1.0000 0.0000
vn -1.0000 0.0000 0.0000
vn 1.0000 0.0000 0.0000
usemtl Bricks
s off
f 89/201/61 85/202/61 91/203/61
f 94/204/62 87/205/62 93/206/62
f 90/207/63 96/208/63 95/209/63
f 96/208/63 91/210/63 95/209/63
f 88/211/64 90/212/64 87/213/64
f 87/214/65 95/215/65 93/216/65
f 86/217/66 96/218/66 94/219/66
f 94/219/66 92/220/66 88/221/66
f 93/216/65 91/222/65 85/223/65
f 86/224/62 93/206/62 85/225/62
f 89/201/61 86/226/61 85/202/61
f 94/204/62 88/227/62 87/205/62
f 90/207/63 92/228/63 96/208/63
f 96/208/63 89/229/63 91/210/63
f 88/211/64 92/230/64 90/212/64
f 87/214/65 90/231/65 95/215/65
f 86/217/66 89/232/66 96/218/66
f 94/219/66 96/218/66 92/220/66
f 93/216/65 95/215/65 91/222/65
f 86/224/62 94/204/62 93/206/62
