# Blender v2.92.0 OBJ File: 'ShootingRange.blend'
# www.blender.org
mtllib ShootingRange.mtl
o Floor_Cube
v 30.000000 1.000000 -30.000000
v 30.000000 -1.000000 -30.000000
v 30.000000 1.000000 30.000000
v 30.000000 -1.000000 30.000000
v -30.000000 1.000000 -30.000000
v -30.000000 -1.000000 -30.000000
v -30.000000 1.000000 30.000000
v -30.000000 -1.000000 30.000000
vt 2.450000 0.500000
vt -2.550000 5.500000
vt -2.550000 0.500000
vt 2.950000 0.500000
vt 3.116667 -4.500000
vt 3.116667 0.500000
vt 2.450000 0.500000
vt 2.616666 -4.500000
vt 2.616666 0.500000
vt 2.450000 -4.500000
vt -2.550000 0.500000
vt -2.550000 -4.500000
vt 2.616666 0.500000
vt 2.783333 -4.500000
vt 2.783333 0.500000
vt 2.783334 0.500000
vt 2.950000 -4.500000
vt 2.950000 0.500000
vt 2.450000 5.500000
vt 2.950000 -4.500000
vt 2.450000 -4.500000
vt 2.450000 0.500000
vt 2.616666 -4.500000
vt 2.783334 -4.500000
vn 0.0000 1.0000 0.0000
vn 0.0000 0.0000 1.0000
vn -1.0000 0.0000 0.0000
vn 0.0000 -1.0000 0.0000
vn 1.0000 0.0000 0.0000
vn 0.0000 0.0000 -1.0000
usemtl Material.001
s off
f 5/1/1 3/2/1 1/3/1
f 3/4/2 8/5/2 4/6/2
f 7/7/3 6/8/3 8/9/3
f 2/10/4 8/11/4 6/12/4
f 1/13/5 4/14/5 2/15/5
f 5/16/6 2/17/6 6/18/6
f 5/1/1 7/19/1 3/2/1
f 3/4/2 7/20/2 8/5/2
f 7/7/3 5/21/3 6/8/3
f 2/10/4 4/22/4 8/11/4
f 1/13/5 3/23/5 4/14/5
f 5/16/6 1/24/6 2/17/6
o Cube_Cube.001
v -6.139132 0.818053 6.139132
v -6.139132 3.037780 6.139132
v -6.139132 0.818053 -6.139132
v -6.139132 3.037780 -6.139132
v 6.139132 0.818053 6.139132
v 6.139132 3.037780 6.139132
v 6.139132 0.818053 -6.139132
v 6.139132 3.037780 -6.139132
vt 0.625000 0.000000
vt 0.375000 0.250000
vt 0.375000 0.000000
vt 0.625000 0.250000
vt 0.375000 0.500000
vt 0.625000 0.500000
vt 0.375000 0.750000
vt 0.625000 0.750000
vt 0.375000 1.000000
vt 0.125000 0.750000
vt 0.125000 0.500000
vt 0.875000 0.500000
vt 0.625000 1.000000
vt 0.875000 0.750000
vn -1.0000 0.0000 0.0000
vn 0.0000 0.0000 -1.0000
vn 1.0000 0.0000 0.0000
vn 0.0000 0.0000 1.0000
vn 0.0000 -1.0000 0.0000
vn 0.0000 1.0000 0.0000
usemtl Material
s off
f 10/25/7 11/26/7 9/27/7
f 12/28/8 15/29/8 11/26/8
f 16/30/9 13/31/9 15/29/9
f 14/32/10 9/33/10 13/31/10
f 15/29/11 9/34/11 11/35/11
f 12/36/12 14/32/12 16/30/12
f 10/25/7 12/28/7 11/26/7
f 12/28/8 16/30/8 15/29/8
f 16/30/9 14/32/9 13/31/9
f 14/32/10 10/37/10 9/33/10
f 15/29/11 13/31/11 9/34/11
f 12/36/12 10/38/12 14/32/12
o Cube.001_Cube.002
v -24.310648 5.106371 10.767370
v -24.310648 9.106371 10.767370
v -24.310648 5.106371 8.767370
v -24.310648 9.106371 8.767370
v -22.310648 5.106371 10.767370
v -22.310648 9.106371 10.767370
v -22.310648 5.106371 8.767370
v -22.310648 9.106371 8.767370
vt 0.625000 0.000000
vt 0.375000 0.250000
vt 0.375000 0.000000
vt 0.625000 0.250000
vt 0.375000 0.500000
vt 0.625000 0.500000
vt 0.375000 0.750000
vt 0.625000 0.750000
vt 0.375000 1.000000
vt 0.125000 0.750000
vt 0.125000 0.500000
vt 0.875000 0.500000
vt 0.625000 1.000000
vt 0.875000 0.750000
vn -1.0000 0.0000 0.0000
vn 0.0000 0.0000 -1.0000
vn 1.0000 0.0000 0.0000
vn 0.0000 0.0000 1.0000
vn 0.0000 -1.0000 0.0000
vn 0.0000 1.0000 0.0000
usemtl None
s off
f 18/39/13 19/40/13 17/41/13
f 20/42/14 23/43/14 19/40/14
f 24/44/15 21/45/15 23/43/15
f 22/46/16 17/47/16 21/45/16
f 23/43/17 17/48/17 19/49/17
f 20/50/18 22/46/18 24/44/18
f 18/39/13 20/42/13 19/40/13
f 20/42/14 24/44/14 23/43/14
f 24/44/15 22/46/15 21/45/15
f 22/46/16 18/51/16 17/47/16
f 23/43/17 21/45/17 17/48/17
f 20/50/18 18/52/18 22/46/18
o Cube.002_Cube.003
v 2.389215 0.818053 -9.351981
v 2.389215 3.037780 -9.351981
v 2.389215 0.818053 -21.630245
v 2.389215 3.037780 -21.630245
v 14.667479 0.818053 -9.351981
v 14.667479 3.037780 -9.351981
v 14.667479 0.818053 -21.630245
v 14.667479 3.037780 -21.630245
vt 0.625000 0.000000
vt 0.375000 0.250000
vt 0.375000 0.000000
vt 0.625000 0.250000
vt 0.375000 0.500000
vt 0.625000 0.500000
vt 0.375000 0.750000
vt 0.625000 0.750000
vt 0.375000 1.000000
vt 0.125000 0.750000
vt 0.125000 0.500000
vt 0.875000 0.500000
vt 0.625000 1.000000
vt 0.875000 0.750000
vn -1.0000 0.0000 0.0000
vn 0.0000 0.0000 -1.0000
vn 1.0000 0.0000 0.0000
vn 0.0000 0.0000 1.0000
vn 0.0000 -1.0000 0.0000
vn 0.0000 1.0000 0.0000
usemtl None
s off
f 26/53/19 27/54/19 25/55/19
f 28/56/20 31/57/20 27/54/20
f 32/58/21 29/59/21 31/57/21
f 30/60/22 25/61/22 29/59/22
f 31/57/23 25/62/23 27/63/23
f 28/64/24 30/60/24 32/58/24
f 26/53/19 28/56/19 27/54/19
f 28/56/20 32/58/20 31/57/20
f 32/58/21 30/60/21 29/59/21
f 30/60/22 26/65/22 25/61/22
f 31/57/23 29/59/23 25/62/23
f 28/64/24 26/66/24 30/60/24
o Cube.003_Cube.004
v 10.390886 0.818053 6.259593
v 10.390886 3.037780 6.259593
v 10.390886 0.818053 -6.018670
v 10.390886 3.037780 -6.018670
v 22.669149 0.818053 6.259593
v 22.669149 3.037780 6.259593
v 22.669149 0.818053 -6.018670
v 22.669149 3.037780 -6.018670
vt 0.625000 0.000000
vt 0.375000 0.250000
vt 0.375000 0.000000
vt 0.625000 0.250000
vt 0.375000 0.500000
vt 0.625000 0.500000
vt 0.375000 0.750000
vt 0.625000 0.750000
vt 0.375000 1.000000
vt 0.125000 0.750000
vt 0.125000 0.500000
vt 0.875000 0.500000
vt 0.625000 1.000000
vt 0.875000 0.750000
vn -1.0000 0.0000 0.0000
vn 0.0000 0.0000 -1.0000
vn 1.0000 0.0000 0.0000
vn 0.0000 0.0000 1.0000
vn 0.0000 -1.0000 0.0000
vn 0.0000 1.0000 0.0000
usemtl None
s off
f 34/67/25 35/68/25 33/69/25
f 36/70/26 39/71/26 35/68/26
f 40/72/27 37/73/27 39/71/27
f 38/74/28 33/75/28 37/73/28
f 39/71/29 33/76/29 35/77/29
f 36/78/30 38/74/30 40/72/30
f 34/67/25 36/70/25 35/68/25
f 36/70/26 40/72/26 39/71/26
f 40/72/27 38/74/27 37/73/27
f 38/74/28 34/79/28 33/75/28
f 39/71/29 37/73/29 33/76/29
f 36/78/30 34/80/30 38/74/30
o Cube.004_Cube.005
v 2.497735 0.818053 22.821627
v 2.497735 3.037780 22.821627
v 2.497735 0.818053 10.543364
v 2.497735 3.037780 10.543364
v 14.775998 0.818053 22.821627
v 14.775998 3.037780 22.821627
v 14.775998 0.818053 10.543364
v 14.775998 3.037780 10.543364
vt 0.625000 0.000000
vt 0.375000 0.250000
vt 0.375000 0.000000
vt 0.625000 0.250000
vt 0.375000 0.500000
vt 0.625000 0.500000
vt 0.375000 0.750000
vt 0.625000 0.750000
vt 0.375000 1.000000
vt 0.125000 0.750000
vt 0.125000 0.500000
vt 0.875000 0.500000
vt 0.625000 1.000000
vt 0.875000 0.750000
vn -1.0000 0.0000 0.0000
vn 0.0000 0.0000 -1.0000
vn 1.0000 0.0000 0.0000
vn 0.0000 0.0000 1.0000
vn 0.0000 -1.0000 0.0000
vn 0.0000 1.0000 0.0000
usemtl None
s off
f 42/81/31 43/82/31 41/83/31
f 44/84/32 47/85/32 43/82/32
f 48/86/33 45/87/33 47/85/33
f 46/88/34 41/89/34 45/87/34
f 47/85/35 41/90/35 43/91/35
f 44/92/36 46/88/36 48/86/36
f 42/81/31 44/84/31 43/82/31
f 44/84/32 48/86/32 47/85/32
f 48/86/33 46/88/33 45/87/33
f 46/88/34 42/93/34 41/89/34
f 47/85/35 45/87/35 41/90/35
f 44/92/36 42/94/36 46/88/36
