# Blender v2.92.0 OBJ File: 'ShootingRange2.blend'
# www.blender.org
mtllib ShootingRange2.mtl
o Cube
v 18.888889 0.252075 -20.000000
v 18.888889 -7.179590 -20.000000
v 18.888889 0.252075 20.000000
v 18.888889 -7.179590 20.000000
v -21.111111 0.252075 -20.000000
v -21.111111 -7.179590 -20.000000
v -21.111111 0.252075 20.000000
v -21.111111 -7.179590 20.000000
v -2.299776 -7.179590 -20.000000
v -2.299776 0.252075 20.000000
v -2.299776 -7.179590 20.000000
v -2.299776 0.252075 -20.000000
v 1.305213 -7.179590 20.000000
v 1.305213 0.252075 -20.000000
v 1.305213 -7.179590 -20.000000
v 1.305213 0.252075 20.000000
v 1.305213 3.400516 20.000000
v -0.198925 3.400516 20.000000
v -0.198925 3.400516 -20.000000
v 1.305213 3.400516 -20.000000
v -21.111111 -7.179590 0.000000
v 18.888889 0.252075 0.000000
v -21.111111 0.252075 0.000000
v 18.888889 -7.179590 0.000000
v -2.299776 -7.179590 0.000000
v -2.299776 0.252075 0.000000
v 1.305213 0.252075 0.000000
v 1.305213 -7.179590 0.000000
v -0.198925 3.400516 0.000000
v 1.305213 3.400516 0.000000
v -21.111111 -7.179590 1.396894
v 18.888889 0.252075 1.396894
v -2.299776 -7.179590 1.396894
v -2.299776 0.252075 1.396894
v 1.305213 0.252075 1.396894
v 1.305213 -7.179590 1.396894
v -0.198925 3.400516 1.396894
v 1.305213 3.400516 1.396894
v -21.111111 0.252075 1.396894
v 18.888889 -7.179590 1.396894
v 1.305213 2.289387 0.000000
v 18.888889 2.289387 0.000000
v 18.888889 2.289387 1.396894
v 1.305213 2.289387 1.396894
vt 0.875000 0.642461
vt 0.778747 0.750000
vt 0.778747 0.642461
vt 0.625000 0.903747
vt 0.375000 1.000000
vt 0.375000 0.903747
vt 0.625000 0.125000
vt 0.375000 0.250000
vt 0.375000 0.125000
vt 0.375000 0.642461
vt 0.266315 0.750000
vt 0.266315 0.642461
vt 0.625000 0.642461
vt 0.375000 0.750000
vt 0.625000 0.391315
vt 0.375000 0.500000
vt 0.375000 0.391315
vt 0.625000 0.250000
vt 0.375000 0.346253
vt 0.221253 0.642461
vt 0.125000 0.750000
vt 0.125000 0.642461
vt 0.625000 0.858685
vt 0.375000 0.858685
vt 0.625000 0.903747
vt 0.733685 0.642461
vt 0.625000 0.750000
vt 0.625000 0.346253
vt 0.221253 0.750000
vt 0.778747 0.642461
vt 0.733685 0.750000
vt 0.733685 0.642461
vt 0.733685 0.500000
vt 0.733685 0.625000
vt 0.733685 0.625000
vt 0.625000 0.346253
vt 0.625000 0.391315
vt 0.778747 0.625000
vt 0.778747 0.500000
vt 0.778747 0.500000
vt 0.625000 0.625000
vt 0.625000 0.642461
vt 0.733685 0.500000
vt 0.266315 0.500000
vt 0.221253 0.625000
vt 0.221253 0.500000
vt 0.625000 0.500000
vt 0.125000 0.625000
vt 0.125000 0.500000
vt 0.375000 0.625000
vt 0.266315 0.625000
vt 0.625000 0.107539
vt 0.375000 0.107539
vt 0.875000 0.500000
vt 0.625000 0.000000
vt 0.375000 0.000000
vt 0.733685 0.750000
vt 0.733685 0.625000
vt 0.625000 0.625000
vt 0.778747 0.625000
vt 0.875000 0.625000
vt 0.000000 0.000000
vt 0.000000 0.000000
vt 0.000000 0.000000
vt 0.733685 0.642461
vt 0.875000 0.750000
vt 0.625000 1.000000
vt 0.625000 0.858685
vt 0.778747 0.750000
vt 0.000000 0.000000
vn 0.0000 1.0000 0.0000
vn 0.0000 0.0000 1.0000
vn -1.0000 0.0000 0.0000
vn 0.0000 -1.0000 -0.0000
vn 1.0000 0.0000 0.0000
vn 0.0000 0.0000 -1.0000
vn -0.8318 0.5550 0.0000
usemtl Material
s off
f 39/1/1 10/2/1 34/3/1
f 10/4/2 8/5/2 11/6/2
f 23/7/3 6/8/3 21/9/3
f 40/10/4 13/11/4 36/12/4
f 32/13/5 4/14/5 40/10/5
f 14/15/6 2/16/6 15/17/6
f 5/18/6 9/19/6 6/8/6
f 33/20/4 8/21/4 31/22/4
f 16/23/2 11/6/2 13/24/2
f 16/23/2 18/25/2 10/4/2
f 35/26/1 3/27/1 32/13/1
f 3/27/2 13/24/2 4/14/2
f 12/28/6 15/17/6 9/19/6
f 36/12/4 11/29/4 33/20/4
f 37/30/1 17/31/1 38/32/1
f 14/33/5 30/34/5 27/35/5
f 14/15/6 19/36/6 20/37/6
f 10/2/7 37/30/7 34/3/7
f 26/38/7 19/39/7 12/40/7
f 22/41/5 43/42/5 32/13/5
f 19/39/1 30/34/1 20/43/1
f 15/44/4 25/45/4 9/46/4
f 14/33/1 22/41/1 1/47/1
f 9/46/4 21/48/4 6/49/4
f 1/47/5 24/50/5 2/16/5
f 2/16/4 28/51/4 15/44/4
f 39/52/3 21/9/3 31/53/3
f 5/54/1 26/38/1 12/40/1
f 7/55/3 31/53/3 8/56/3
f 35/26/5 17/31/5 16/57/5
f 41/58/1 43/42/1 42/59/1
f 29/60/1 38/32/1 30/34/1
f 28/51/4 33/20/4 25/45/4
f 27/35/6 42/59/6 22/41/6
f 25/45/4 31/22/4 21/48/4
f 22/41/5 40/10/5 24/50/5
f 24/50/4 36/12/4 28/51/4
f 23/61/1 34/3/1 26/38/1
f 35/62/3 41/63/3 27/64/3
f 32/13/2 44/65/2 35/26/2
f 41/58/5 38/32/5 44/65/5
f 26/38/7 37/30/7 29/60/7
f 39/1/1 7/66/1 10/2/1
f 10/4/2 7/67/2 8/5/2
f 23/7/3 5/18/3 6/8/3
f 40/10/4 4/14/4 13/11/4
f 32/13/5 3/27/5 4/14/5
f 14/15/6 1/47/6 2/16/6
f 5/18/6 12/28/6 9/19/6
f 33/20/4 11/29/4 8/21/4
f 16/23/2 10/4/2 11/6/2
f 16/23/2 17/68/2 18/25/2
f 35/26/1 16/57/1 3/27/1
f 3/27/2 16/23/2 13/24/2
f 12/28/6 14/15/6 15/17/6
f 36/12/4 13/11/4 11/29/4
f 37/30/1 18/69/1 17/31/1
f 14/33/5 20/43/5 30/34/5
f 14/15/6 12/28/6 19/36/6
f 10/2/7 18/69/7 37/30/7
f 26/38/7 29/60/7 19/39/7
f 22/41/5 42/59/5 43/42/5
f 19/39/1 29/60/1 30/34/1
f 15/44/4 28/51/4 25/45/4
f 14/33/1 27/35/1 22/41/1
f 9/46/4 25/45/4 21/48/4
f 1/47/5 22/41/5 24/50/5
f 2/16/4 24/50/4 28/51/4
f 39/52/3 23/7/3 21/9/3
f 5/54/1 23/61/1 26/38/1
f 7/55/3 39/52/3 31/53/3
f 35/26/5 38/32/5 17/31/5
f 41/58/1 44/65/1 43/42/1
f 29/60/1 37/30/1 38/32/1
f 28/51/4 36/12/4 33/20/4
f 27/35/6 41/58/6 42/59/6
f 25/45/4 33/20/4 31/22/4
f 22/41/5 32/13/5 40/10/5
f 24/50/4 40/10/4 36/12/4
f 23/61/1 39/1/1 34/3/1
f 35/62/3 44/70/3 41/63/3
f 32/13/2 43/42/2 44/65/2
f 41/58/5 30/34/5 38/32/5
f 26/38/7 34/3/7 37/30/7
