# Blender v2.92.0 OBJ File: 'SupplyBin.blend'
# www.blender.org
mtllib SupplyBinLid.mtl
o Top_Cylinder.002
v -0.912456 0.023829 -0.586242
v 0.912456 0.023829 -0.586242
v -0.912456 0.023829 0.586242
v 0.912456 0.023829 0.586242
v -0.912456 0.495787 0.313757
v -0.912456 0.519615 0.272485
v 0.912456 0.519615 0.272485
v 0.912456 0.495786 0.313757
v -0.912456 0.519615 -0.272485
v -0.912456 0.495787 -0.313758
v 0.912456 0.495786 -0.313758
v 0.912456 0.519615 -0.272485
v -0.912456 0.001414 0.586242
v 0.912456 0.000711 0.586242
v -0.912456 0.003947 -0.586242
v 0.912456 0.003947 -0.586242
v -0.912456 0.035594 -0.557091
v 0.912456 0.035594 -0.557091
v -0.912456 0.035594 0.557091
v 0.912456 0.035594 0.557091
v -0.912456 0.484083 0.298156
v -0.912456 0.506727 0.258935
v 0.912456 0.506727 0.258935
v 0.912456 0.484083 0.298156
v -0.912456 0.506727 -0.258935
v -0.912456 0.484083 -0.298156
v 0.912456 0.484083 -0.298156
v 0.912456 0.506727 -0.258935
v -0.912456 0.014294 0.557091
v 0.912456 0.013626 0.557091
v -0.912456 0.016701 -0.557091
v 0.912456 0.016701 -0.557091
vt 0.053593 0.447214
vt 0.971471 0.059290
vt 0.971471 0.447214
vt 0.368636 0.492656
vt 0.289774 0.797591
vt 0.368636 0.797591
vt 0.281810 0.492656
vt 0.202948 0.797591
vt 0.281810 0.797591
vt 0.525734 0.492656
vt 0.522656 0.797591
vt 0.525734 0.797591
vt 0.729670 0.797591
vt 0.726200 0.492656
vt 0.726091 0.797591
vt 0.289774 0.492656
vt 0.615929 0.797591
vt 0.622212 0.492656
vt 0.615929 0.492656
vt 0.710848 0.492656
vt 0.625138 0.797591
vt 0.710848 0.797591
vt 0.432965 0.797598
vt 0.368636 0.492656
vt 0.368636 0.797591
vt 0.522656 0.797595
vt 0.440367 0.492663
vt 0.440367 0.797598
vt 0.622212 0.492656
vt 0.625138 0.492656
vt 0.733071 0.492656
vt 0.729774 0.797591
vt 0.733071 0.797591
vt 0.432965 0.492663
vt 0.716818 0.797591
vt 0.605386 0.797599
vt 0.606990 0.802467
vt 0.609131 0.797591
vt 0.603833 0.988649
vt 0.526849 0.948155
vt 0.605809 0.993516
vt 0.283694 0.988631
vt 0.206911 0.947759
vt 0.285647 0.993507
vt 0.522656 0.850206
vt 0.528584 0.845903
vt 0.526623 0.843300
vt 0.207200 0.842904
vt 0.284208 0.802457
vt 0.286188 0.797591
vt 0.208874 0.945157
vt 0.202948 0.940851
vt 0.287365 0.988641
vt 0.289510 0.993518
vt 0.528799 0.945544
vt 0.522852 0.941267
vt 0.716820 0.797591
vt 0.722118 0.492657
vt 0.716818 0.492656
vt 0.525001 0.938999
vt 0.203199 0.849790
vt 0.209148 0.845517
vt 0.606990 0.988642
vt 0.609131 0.993509
vt 0.205108 0.938593
vt 0.722118 0.492657
vt 0.726091 0.797591
vt 0.726091 0.492656
vt 0.287365 0.802465
vt 0.289510 0.797600
vt 0.603431 0.802474
vt 0.053593 0.059290
vt 0.202948 0.492656
vt 0.522656 0.492656
vt 0.729670 0.492656
vt 0.622212 0.797591
vt 0.522656 0.492660
vt 0.622212 0.797591
vt 0.729670 0.492656
vt 0.716818 0.492656
vt 0.524814 0.852465
vt 0.722118 0.797592
vt 0.205347 0.852060
vt 0.722118 0.797592
vn 0.0000 0.5000 -0.8660
vn 0.0000 0.5000 0.8660
vn 0.0000 1.0000 0.0000
vn 0.0000 0.0000 -1.0000
vn -0.0000 0.0000 1.0000
vn 0.0000 0.8660 0.5000
vn 0.0000 0.8660 -0.5000
vn 0.0000 -0.5000 0.8660
vn 0.0000 -0.5000 -0.8660
vn -0.0000 -1.0000 0.0000
vn -0.0000 -0.8660 -0.5000
vn -0.0000 -0.8660 0.5000
vn -1.0000 0.0000 0.0000
vn 1.0000 0.0000 0.0000
vn -0.0004 -0.9143 -0.4051
vn -0.0000 -0.9162 0.4008
vn -0.0003 -0.9147 -0.4041
usemtl Cover
s off
f 11/1/1 1/2/1 10/3/1
f 4/4/2 5/5/2 3/6/2
f 7/7/3 9/8/3 6/9/3
f 2/10/4 15/11/4 1/12/4
f 4/13/5 13/14/5 14/15/5
f 6/9/6 8/16/6 7/7/6
f 10/17/7 12/18/7 11/19/7
f 26/20/8 18/21/8 27/22/8
f 21/23/9 20/24/9 19/25/9
f 25/26/10 23/27/10 22/28/10
f 31/29/5 18/21/5 17/30/5
f 20/31/4 29/32/4 19/33/4
f 24/34/11 22/28/11 23/27/11
f 28/35/12 26/20/12 27/22/12
f 3/36/13 29/37/13 13/38/13
f 17/39/13 10/40/13 1/41/13
f 20/42/14 8/43/14 4/44/14
f 6/45/13 21/46/13 5/47/13
f 11/48/14 18/49/14 2/50/14
f 24/51/14 7/52/14 8/43/14
f 30/53/14 4/44/14 14/54/14
f 26/55/13 9/56/13 10/40/13
f 13/57/15 30/58/15 14/59/15
f 25/60/13 6/45/13 9/56/13
f 12/61/14 27/62/14 11/48/14
f 31/63/13 1/41/13 15/64/13
f 23/65/14 12/61/14 7/52/14
f 32/66/16 15/67/16 16/68/16
f 2/50/14 32/69/14 16/70/14
f 5/47/13 19/71/13 3/36/13
f 11/1/1 2/72/1 1/2/1
f 4/4/2 8/16/2 5/5/2
f 7/7/3 12/73/3 9/8/3
f 2/10/4 16/74/4 15/11/4
f 4/13/5 3/75/5 13/14/5
f 6/9/6 5/5/6 8/16/6
f 10/17/7 9/76/7 12/18/7
f 26/20/8 17/30/8 18/21/8
f 21/23/9 24/34/9 20/24/9
f 25/26/10 28/77/10 23/27/10
f 31/29/5 32/78/5 18/21/5
f 20/31/4 30/79/4 29/32/4
f 24/34/11 21/23/11 22/28/11
f 28/35/12 25/80/12 26/20/12
f 3/36/13 19/71/13 29/37/13
f 17/39/13 26/55/13 10/40/13
f 20/42/14 24/51/14 8/43/14
f 6/45/13 22/81/13 21/46/13
f 11/48/14 27/62/14 18/49/14
f 24/51/14 23/65/14 7/52/14
f 30/53/14 20/42/14 4/44/14
f 26/55/13 25/60/13 9/56/13
f 13/57/17 29/82/17 30/58/17
f 25/60/13 22/81/13 6/45/13
f 12/61/14 28/83/14 27/62/14
f 31/63/13 17/39/13 1/41/13
f 23/65/14 28/83/14 12/61/14
f 32/66/16 31/84/16 15/67/16
f 2/50/14 18/49/14 32/69/14
f 5/47/13 21/46/13 19/71/13
